<svg id="Illustration" xmlns="http://www.w3.org/2000/svg" xmlns:xlink="http://www.w3.org/1999/xlink" viewBox="0 0 1032.66 734.46"><defs><linearGradient id="linear-gradient" x1="-1845.49" y1="509.12" x2="-866.38" y2="509.12" gradientTransform="matrix(-0.99, 0.12, 0.12, 0.99, -760.57, 43.06)" gradientUnits="userSpaceOnUse"><stop offset="0" stop-color="#b37cff"/><stop offset="1" stop-color="#f895e7"/></linearGradient><linearGradient id="linear-gradient-2" x1="-1614" y1="661.72" x2="-744.8" y2="661.72" gradientTransform="matrix(-0.96, 0.27, 0.27, 0.96, -811.83, 109.27)" xlink:href="#linear-gradient"/><linearGradient id="linear-gradient-3" x1="1256.65" y1="355.5" x2="738.54" y2="1035.69" gradientTransform="translate(-18.28 -44.55) rotate(-0.6)" gradientUnits="userSpaceOnUse"><stop offset="0" stop-color="#fdf53f"/><stop offset="1" stop-color="#d93c65"/></linearGradient><linearGradient id="linear-gradient-4" x1="1210.31" y1="570.76" x2="802.01" y2="600.87" gradientTransform="translate(-18.28 -44.55) rotate(-0.6)" gradientUnits="userSpaceOnUse"><stop offset="0" stop-color="#53d8ff"/><stop offset="1" stop-color="#3840f7"/></linearGradient><linearGradient id="linear-gradient-5" x1="1104.69" y1="576.34" x2="763.7" y2="593.17" xlink:href="#linear-gradient-4"/><linearGradient id="linear-gradient-6" x1="1083.8" y1="545.24" x2="653.36" y2="663.47" xlink:href="#linear-gradient-3"/><linearGradient id="linear-gradient-7" x1="1058.41" y1="454.62" x2="630.32" y2="572.21" gradientTransform="translate(-13.57 -55.56)" xlink:href="#linear-gradient-3"/><linearGradient id="linear-gradient-8" x1="528.43" y1="38.88" x2="188.14" y2="925.11" gradientTransform="matrix(1, 0, 0, 1, 0, 0)" xlink:href="#linear-gradient-4"/><linearGradient id="linear-gradient-9" x1="299.7" y1="339.93" x2="527" y2="339.93" gradientTransform="matrix(1, 0, 0, 1, 0, 0)" xlink:href="#linear-gradient-4"/><linearGradient id="linear-gradient-10" x1="619.35" y1="83.38" x2="250.22" y2="532.88" gradientTransform="matrix(1, 0, 0, 1, 0, 0)" xlink:href="#linear-gradient-4"/><linearGradient id="linear-gradient-11" x1="529.95" y1="368.52" x2="140.82" y2="879.64" gradientUnits="userSpaceOnUse"><stop offset="0" stop-color="#2b3582"/><stop offset="1" stop-color="#150e42"/></linearGradient><linearGradient id="linear-gradient-12" x1="190.11" y1="839.52" x2="476.42" y2="417.11" gradientUnits="userSpaceOnUse"><stop offset="0" stop-color="#a737d5"/><stop offset="1" stop-color="#ef497a"/></linearGradient><linearGradient id="linear-gradient-13" x1="416.57" y1="275.68" x2="303.65" y2="424.21" xlink:href="#linear-gradient-11"/><linearGradient id="linear-gradient-14" x1="429.14" y1="285.09" x2="316.23" y2="433.63" xlink:href="#linear-gradient-11"/><linearGradient id="linear-gradient-15" x1="415.21" y1="292.81" x2="336.31" y2="437.68" gradientTransform="matrix(1, 0, 0, 1, 0, 0)" xlink:href="#linear-gradient-4"/><linearGradient id="linear-gradient-16" x1="336.94" y1="683.6" x2="412.29" y2="683.6" gradientTransform="matrix(1, 0, 0, 1, 0, 0)" xlink:href="#linear-gradient-4"/><linearGradient id="linear-gradient-17" x1="885.27" y1="231.11" x2="361.79" y2="918.69" xlink:href="#linear-gradient-11"/><linearGradient id="linear-gradient-18" x1="427.17" y1="864.99" x2="812.32" y2="296.76" xlink:href="#linear-gradient-12"/><linearGradient id="linear-gradient-19" x1="551.44" y1="245.08" x2="389.22" y2="486.6" gradientTransform="matrix(1, 0, 0, 1, 0, 0)" xlink:href="#linear-gradient-3"/><linearGradient id="linear-gradient-20" x1="659.2" y1="297.8" x2="498.26" y2="537.4" gradientTransform="matrix(1, 0, 0, 1, 0, 0)" xlink:href="#linear-gradient-3"/><linearGradient id="linear-gradient-21" x1="825.93" y1="318.52" x2="652.33" y2="547.28" xlink:href="#linear-gradient-12"/><linearGradient id="linear-gradient-22" x1="772.95" y1="289.12" x2="596.09" y2="503.39" xlink:href="#linear-gradient-12"/><linearGradient id="linear-gradient-23" x1="782.44" y1="298.73" x2="606.66" y2="511.69" xlink:href="#linear-gradient-12"/><linearGradient id="linear-gradient-24" x1="583.03" y1="445.34" x2="449.22" y2="634.3" gradientTransform="matrix(1, 0, 0, 1, 0, 0)" xlink:href="#linear-gradient-4"/><linearGradient id="linear-gradient-25" x1="725.24" y1="446.2" x2="613.13" y2="580.02" gradientTransform="matrix(1, 0, 0, 1, 0, 0)" xlink:href="#linear-gradient-3"/><linearGradient id="linear-gradient-26" x1="732.4" y1="106.5" x2="580.5" y2="306.32" xlink:href="#linear-gradient-11"/><linearGradient id="linear-gradient-27" x1="749.44" y1="119.16" x2="597.54" y2="318.98" xlink:href="#linear-gradient-11"/><linearGradient id="linear-gradient-28" x1="729.4" y1="132.82" x2="625.52" y2="323.56" gradientTransform="matrix(1, 0, 0, 1, 0, 0)" xlink:href="#linear-gradient-4"/><linearGradient id="linear-gradient-29" x1="945.3" y1="186.09" x2="409.14" y2="1101.18" xlink:href="#linear-gradient-12"/><linearGradient id="linear-gradient-30" x1="1661.22" y1="745.93" x2="1572.43" y2="842.51" gradientTransform="matrix(-1, 0, 0, 1, 2465.28, 0)" xlink:href="#linear-gradient-11"/><linearGradient id="linear-gradient-31" x1="1632.4" y1="753.11" x2="1640.29" y2="753.11" gradientTransform="matrix(-1, 0, 0, 1, 2465.28, 0)" gradientUnits="userSpaceOnUse"><stop offset="0" stop-color="#f9b776"/><stop offset="1" stop-color="#f47960"/></linearGradient><linearGradient id="linear-gradient-32" x1="1668.21" y1="636.71" x2="1592.66" y2="739.11" gradientTransform="matrix(-1, 0, 0, 1, 2465.28, 0)" xlink:href="#linear-gradient-11"/><linearGradient id="linear-gradient-33" x1="1641.3" y1="727.62" x2="1552.52" y2="824.2" gradientTransform="matrix(-1, 0, 0, 1, 2465.28, 0)" xlink:href="#linear-gradient-11"/><linearGradient id="linear-gradient-34" x1="1603.98" y1="752.7" x2="1610.79" y2="752.7" xlink:href="#linear-gradient-31"/><linearGradient id="linear-gradient-35" x1="1654.75" y1="626.79" x2="1579.2" y2="729.18" gradientTransform="matrix(-1, 0, 0, 1, 2465.28, 0)" xlink:href="#linear-gradient-11"/><linearGradient id="Degradado_sin_nombre_25" x1="825.16" y1="547.97" x2="842.94" y2="643.94" gradientUnits="userSpaceOnUse"><stop offset="0" stop-color="#3374ba"/><stop offset="0.04" stop-color="#3f82c3"/><stop offset="0.14" stop-color="#569dd5"/><stop offset="0.24" stop-color="#67b1e2"/><stop offset="0.33" stop-color="#72bdea"/><stop offset="0.43" stop-color="#75c1ed"/><stop offset="0.49" stop-color="#6eb8e7"/><stop offset="0.63" stop-color="#62a6db"/><stop offset="0.77" stop-color="#5a9bd4"/><stop offset="0.94" stop-color="#5898d2"/></linearGradient><linearGradient id="Degradado_sin_nombre_106" x1="766.35" y1="500.42" x2="780.27" y2="540.17" gradientUnits="userSpaceOnUse"><stop offset="0.27" stop-color="#f47960"/><stop offset="0.6" stop-color="#f9b776"/></linearGradient><linearGradient id="Degradado_sin_nombre_109" x1="754.46" y1="504.58" x2="768.37" y2="544.34" gradientUnits="userSpaceOnUse"><stop offset="0.19" stop-color="#f9b776"/><stop offset="0.33" stop-color="#f9b475"/><stop offset="1" stop-color="#f47960"/></linearGradient><linearGradient id="Degradado_sin_nombre_109-2" x1="765.15" y1="529.98" x2="754.67" y2="508.84" xlink:href="#Degradado_sin_nombre_109"/><linearGradient id="Degradado_sin_nombre_51" x1="857.5" y1="578.69" x2="888.15" y2="578.69" gradientUnits="userSpaceOnUse"><stop offset="0" stop-color="#3374ba"/><stop offset="0.03" stop-color="#3a7bbf"/><stop offset="0.13" stop-color="#5090cd"/><stop offset="0.2" stop-color="#5898d2"/><stop offset="0.2" stop-color="#5898d2"/><stop offset="0.51" stop-color="#5898d2"/><stop offset="0.87" stop-color="#599ad3"/><stop offset="0.94" stop-color="#5898d2"/></linearGradient><linearGradient id="Degradado_sin_nombre_93" x1="1576.69" y1="604.43" x2="1627.68" y2="604.43" gradientTransform="matrix(-1, 0, 0, 1, 2465.28, 0)" gradientUnits="userSpaceOnUse"><stop offset="0" stop-color="#f9b776"/><stop offset="0.63" stop-color="#f47960"/></linearGradient><linearGradient id="linear-gradient-36" x1="1660.66" y1="549.77" x2="1654.69" y2="575.99" gradientTransform="matrix(-1, 0, 0, 1, 2465.28, 0)" xlink:href="#linear-gradient-4"/><linearGradient id="linear-gradient-37" x1="1623.89" y1="599.09" x2="1639.78" y2="599.09" xlink:href="#linear-gradient-31"/><linearGradient id="linear-gradient-38" x1="1615.84" y1="549.87" x2="1636" y2="549.87" xlink:href="#linear-gradient-31"/><linearGradient id="linear-gradient-39" x1="-4780.57" y1="-855.01" x2="-4788.1" y2="-879.85" gradientTransform="matrix(-0.75, -0.67, -0.67, 0.75, -3311.17, -2008.45)" xlink:href="#linear-gradient-31"/><linearGradient id="linear-gradient-40" x1="-4787.37" y1="-898.3" x2="-4781.06" y2="-862.36" gradientTransform="matrix(-0.75, -0.67, -0.67, 0.75, -3311.17, -2008.45)" xlink:href="#linear-gradient-11"/><linearGradient id="linear-gradient-41" x1="-4788.27" y1="-855.12" x2="-4795.05" y2="-877.48" gradientTransform="matrix(-0.75, -0.67, -0.67, 0.75, -3311.17, -2008.45)" xlink:href="#linear-gradient-31"/><linearGradient id="linear-gradient-42" x1="11522.02" y1="287.96" x2="11462.95" y2="321.67" gradientTransform="matrix(-1, 0, 0, 1, 12397.98, 0)" xlink:href="#linear-gradient-31"/><linearGradient id="linear-gradient-43" x1="-4202.99" y1="-3332.8" x2="-4207.53" y2="-3263.28" gradientTransform="translate(6125.89 1458.16) rotate(-26.18)" gradientUnits="userSpaceOnUse"><stop offset="0" stop-color="#cb236d"/><stop offset="1" stop-color="#4c246d"/></linearGradient><linearGradient id="linear-gradient-44" x1="11516.3" y1="296.36" x2="11718.39" y2="169.86" gradientTransform="matrix(-1, 0, 0, 1, 12397.98, 0)" xlink:href="#linear-gradient-31"/><linearGradient id="linear-gradient-45" x1="-3145.86" y1="-4695.1" x2="-3150.4" y2="-4625.59" gradientTransform="matrix(0.79, -0.61, 0.61, 0.79, 6259.05, 2114.63)" xlink:href="#linear-gradient-43"/><linearGradient id="linear-gradient-46" x1="2685.05" y1="1979.76" x2="2636.42" y2="2069.55" gradientTransform="matrix(-1, 0, 0, 1, 4566.28, 0)" xlink:href="#linear-gradient-12"/><linearGradient id="linear-gradient-47" x1="-7614.17" y1="-142.42" x2="-7599.64" y2="-105.99" gradientTransform="translate(8180.6 -2191.8) rotate(-19.17)" xlink:href="#linear-gradient-11"/><linearGradient id="linear-gradient-48" x1="11454.53" y1="223.58" x2="11315.3" y2="357.88" gradientTransform="matrix(-1, 0, 0, 1, 12397.98, 0)" xlink:href="#linear-gradient-3"/><linearGradient id="linear-gradient-49" x1="-5532.11" y1="268.52" x2="-5473.27" y2="268.52" gradientTransform="translate(6511.52)" xlink:href="#linear-gradient-31"/><linearGradient id="linear-gradient-50" x1="-7320.76" y1="-296.51" x2="-7317.88" y2="-317.55" gradientTransform="translate(8278.45 11.24) rotate(-4.11)" xlink:href="#linear-gradient-31"/><linearGradient id="linear-gradient-51" x1="-8216.48" y1="-1152.29" x2="-8189.4" y2="-1200.49" gradientTransform="translate(6407.53 -6033.19) rotate(-56.92)" xlink:href="#linear-gradient-31"/><linearGradient id="linear-gradient-52" x1="-8210.66" y1="-1194.26" x2="-8197.12" y2="-1160.3" gradientTransform="translate(6407.53 -6033.19) rotate(-56.92)" xlink:href="#linear-gradient-11"/><linearGradient id="linear-gradient-53" x1="-8210.72" y1="-1149.06" x2="-8183.64" y2="-1197.25" gradientTransform="translate(6407.53 -6033.19) rotate(-56.92)" xlink:href="#linear-gradient-31"/><linearGradient id="linear-gradient-54" x1="-5575.88" y1="111.39" x2="-5606.65" y2="119.82" gradientTransform="translate(6540.42 -118.78) rotate(-2.83)" xlink:href="#linear-gradient-4"/><linearGradient id="linear-gradient-55" x1="5936.17" y1="262.77" x2="6215.72" y2="239.25" gradientTransform="translate(-5039.59)" xlink:href="#linear-gradient-11"/><linearGradient id="linear-gradient-56" x1="-5589.67" y1="253.71" x2="-5599.58" y2="268.63" gradientTransform="translate(6511.52)" xlink:href="#linear-gradient-4"/><linearGradient id="linear-gradient-57" x1="-52.75" y1="2727.4" x2="107.53" y2="2727.4" gradientTransform="matrix(0.05, -1, -1, -0.05, 2999.12, 543.46)" xlink:href="#linear-gradient-12"/><linearGradient id="linear-gradient-58" x1="-50.4" y1="2612.74" x2="9.72" y2="2454.26" gradientTransform="matrix(0.05, -1, -1, -0.05, 2999.12, 543.46)" xlink:href="#linear-gradient-12"/><linearGradient id="linear-gradient-59" x1="34.92" y1="2039.37" x2="95.03" y2="1880.89" gradientTransform="matrix(0.05, -1, -1, -0.05, 2999.12, 543.46)" xlink:href="#linear-gradient-12"/><linearGradient id="linear-gradient-60" x1="-2328.25" y1="765.16" x2="-2299.16" y2="765.16" gradientTransform="translate(2479.56)" xlink:href="#linear-gradient-4"/><linearGradient id="linear-gradient-61" x1="-2328.26" y1="759.77" x2="-2299.98" y2="759.77" gradientTransform="translate(2479.56)" xlink:href="#linear-gradient-11"/><linearGradient id="linear-gradient-62" x1="-2325.57" y1="751.98" x2="-2317.37" y2="751.98" gradientTransform="translate(2479.56)" xlink:href="#linear-gradient-31"/><linearGradient id="linear-gradient-63" x1="-2386.26" y1="764.53" x2="-2375.11" y2="764.53" gradientTransform="translate(2479.56)" xlink:href="#linear-gradient-4"/><linearGradient id="linear-gradient-64" x1="-2386.18" y1="755.48" x2="-2369.81" y2="755.48" gradientTransform="translate(2479.56)" xlink:href="#linear-gradient-11"/><linearGradient id="linear-gradient-65" x1="-2377.67" y1="744.66" x2="-2367.88" y2="744.66" gradientTransform="translate(2479.56)" xlink:href="#linear-gradient-31"/><linearGradient id="linear-gradient-66" x1="-2400.36" y1="773.3" x2="-2271.69" y2="627.72" gradientTransform="translate(2479.56)" xlink:href="#linear-gradient-11"/><linearGradient id="linear-gradient-67" x1="195.47" y1="559.45" x2="102.47" y2="659.95" gradientTransform="matrix(1, 0, 0, 1, 0, 0)" xlink:href="#linear-gradient-3"/><linearGradient id="linear-gradient-68" x1="-2344.66" y1="708.38" x2="-2339.97" y2="699" gradientTransform="translate(2479.56)" xlink:href="#linear-gradient-4"/><linearGradient id="linear-gradient-69" x1="-2332.8" y1="601.88" x2="-2367.67" y2="632.76" gradientTransform="translate(2479.56)" xlink:href="#linear-gradient-31"/><linearGradient id="linear-gradient-70" x1="174.74" y1="540.28" x2="81.74" y2="640.77" gradientTransform="matrix(1, 0, 0, 1, 0, 0)" xlink:href="#linear-gradient-3"/><linearGradient id="linear-gradient-71" x1="217.04" y1="579.42" x2="124.05" y2="679.92" gradientTransform="matrix(1, 0, 0, 1, 0, 0)" xlink:href="#linear-gradient-3"/><linearGradient id="linear-gradient-72" x1="-2267.43" y1="604.8" x2="-2239.97" y2="604.8" gradientTransform="translate(2479.56)" xlink:href="#linear-gradient-31"/><linearGradient id="linear-gradient-73" x1="-2294.12" y1="531.42" x2="-2294.42" y2="582.7" gradientTransform="translate(2479.56)" xlink:href="#linear-gradient-31"/><linearGradient id="linear-gradient-74" x1="-2370.45" y1="624.92" x2="-2226.65" y2="624.92" gradientTransform="translate(2479.56)" xlink:href="#linear-gradient-11"/><linearGradient id="linear-gradient-75" x1="-2234.56" y1="561" x2="-2102.56" y2="561" gradientTransform="translate(2398.75 -34.08)" xlink:href="#linear-gradient"/><linearGradient id="linear-gradient-76" x1="-2242" y1="561.15" x2="-2095.13" y2="561.15" gradientTransform="translate(2479.56)" xlink:href="#linear-gradient-11"/><linearGradient id="linear-gradient-77" x1="-2623.4" y1="1842.48" x2="-2648.65" y2="1875.88" gradientTransform="translate(2535.36 -1675.14) rotate(-8.21)" xlink:href="#linear-gradient-31"/><linearGradient id="linear-gradient-78" x1="-2642.68" y1="1850.54" x2="-2612.53" y2="1850.54" gradientTransform="translate(2535.36 -1675.14) rotate(-8.21)" xlink:href="#linear-gradient-11"/><linearGradient id="linear-gradient-79" x1="-2660.37" y1="1868.93" x2="-2640.13" y2="1848.15" gradientTransform="translate(2535.36 -1675.14) rotate(-8.21)" xlink:href="#linear-gradient-31"/><linearGradient id="linear-gradient-80" x1="-2319.03" y1="617.43" x2="-2353.9" y2="648.31" gradientTransform="translate(2479.56)" xlink:href="#linear-gradient-31"/><linearGradient id="linear-gradient-81" x1="-2242.89" y1="601.58" x2="-2233.05" y2="601.58" gradientTransform="translate(2479.56)" xlink:href="#linear-gradient-31"/></defs><path d="M845.36,72.08c65.24,59.31,254.3-38.73,267.25,83.82,15.15,143.49-174.38,209.55-99,302.44s19.66,214.25-234,243.27S103,654.41,184.3,505.16s15-148.25,2.8-208.29S208.19,97.73,418,184.52,680.15-78.12,845.36,72.08Z" transform="translate(-80.81 -34.08)" opacity="0.26" fill="url(#linear-gradient)"/><path d="M634.68,127c65.23,43.27,217.93-68.2,245.78,37.59C913.08,288.47,755.66,372,834.34,443.3s46.08,185.36-172.55,245S61.64,737.91,112.92,596s-6.75-132.11-25.58-183.14S79.05,235.29,274.87,283.2,469.51,17.47,634.68,127Z" transform="translate(-80.81 -34.08)" opacity="0.26" fill="url(#linear-gradient-2)"/><path d="M1052.57,322.68l16.72.88A15.5,15.5,0,0,1,1084,339.11l-1.68,396.68A16.28,16.28,0,0,1,1065.86,752l-114.79-1.25Z" transform="translate(-80.81 -34.08)" fill="url(#linear-gradient-3)"/><path d="M851.67,324.68l211.77-12.46a7.51,7.51,0,0,1,8,7.66l-8.79,408.83a15.71,15.71,0,0,1-16.17,15.37l-149-4.43Z" transform="translate(-80.81 -34.08)" fill="url(#linear-gradient-4)"/><path d="M862.92,333.15,1049,307.43a7.89,7.89,0,0,1,9,7.91l-4.75,412.3a10.91,10.91,0,0,1-10.48,10.79l-137,5.44Z" transform="translate(-80.81 -34.08)" fill="url(#linear-gradient-5)"/><path d="M813.86,312.85,1018,298a17.69,17.69,0,0,1,19,17.46l4.41,420.93a15.46,15.46,0,0,1-15.3,15.62l-188.36,2a16.71,16.71,0,0,1-16.86-15.65l-26-403.73A20.48,20.48,0,0,1,813.86,312.85Z" transform="translate(-80.81 -34.08)" fill="url(#linear-gradient-6)"/><rect x="1021.56" y="338.06" width="31.88" height="125.87" rx="9.55" transform="matrix(1, -0.01, 0.01, 1, -84.95, -23.21)" fill="url(#linear-gradient-7)"/><path d="M301.8,520H527a13,13,0,0,0,13-13V170a13,13,0,0,0-13-13l-227-.61a13,13,0,0,0-13,13.06l1.8,337.63A13,13,0,0,0,301.8,520Z" transform="translate(-80.81 -34.08)" fill="url(#linear-gradient-8)"/><path d="M299.7,186.38A13.19,13.19,0,0,1,313,173l200.94,1.24A13.17,13.17,0,0,1,527,187.49l-1.4,302.68a13.19,13.19,0,0,1-12.93,13.12l-195.26,3.57a13.17,13.17,0,0,1-13.41-13Z" transform="translate(-80.81 -34.08)" fill="url(#linear-gradient-9)"/><rect x="240.19" y="151.92" width="163" height="9" rx="3.95" fill="#fff" opacity="0.6"/><path d="M338.45,207h0a4,4,0,0,0,3.87,3.73L478,213.21a3.94,3.94,0,0,0,4-3.94V209a3.94,3.94,0,0,0-3.88-3.95l-135.66-2.15A4,4,0,0,0,338.45,207Z" transform="translate(-80.81 -34.08)" fill="#fff" opacity="0.6"/><path d="M324.42,496a10.83,10.83,0,0,1-11.37-10.79l-4.4-247.55a11.38,11.38,0,0,1,11.14-11.57L503,222.52a11.37,11.37,0,0,1,11.59,11.15l4.72,248.92a11.3,11.3,0,0,1-3.2,8.13,10.48,10.48,0,0,1-8,3.28l-183.49,2ZM312.65,237.21l4.4,247.56a7.36,7.36,0,0,0,7.44,7.23h0L508,489.8a7.38,7.38,0,0,0,7.29-7.51l-4.73-248.92a7.31,7.31,0,0,0-2.25-5.17,7.4,7.4,0,0,0-5.26-2.06l-183.17,3.57a7.37,7.37,0,0,0-7.22,7.5Z" transform="translate(-80.81 -34.08)" fill="#fff" opacity="0.61"/><path d="M512.85,251H313.11a2,2,0,0,1-2-1.35A2,2,0,0,1,313,247H512.77a2,2,0,0,1,2,1.35A2,2,0,0,1,512.85,251Z" transform="translate(-80.81 -34.08)" fill="#fff" opacity="0.61"/><path d="M629.2,330H404a13,13,0,0,1-13-13V100a13,13,0,0,1,13-13l227-.61a13,13,0,0,1,13,13l-1.8,217.65A13,13,0,0,1,629.2,330Z" transform="translate(-80.81 -34.08)" fill="url(#linear-gradient-10)"/><path d="M617.43,103l-201.32,1.24A13.19,13.19,0,0,0,403,117.49l1.4,182.84a13.2,13.2,0,0,0,13,13.13L613,317a13.2,13.2,0,0,0,13.43-13l4.3-187.65A13.19,13.19,0,0,0,617.43,103Z" transform="translate(-80.81 -34.08)" fill="#fff" opacity="0.6"/><rect x="366.19" y="81.92" width="163" height="9" rx="3.95" fill="#fff" opacity="0.6"/><path d="M592.55,137h0a4,4,0,0,1-3.87,3.73L453,143.21a3.94,3.94,0,0,1-4-3.94V139a3.94,3.94,0,0,1,3.88-3.95l135.66-2.15A4,4,0,0,1,592.55,137Z" transform="translate(-80.81 -34.08)" fill="#fff" opacity="0.6"/><path d="M606.21,306h-.14l-183.22-2.2a11.64,11.64,0,0,1-6.91-2.24,11.34,11.34,0,0,1-4.59-9.35l4.73-129.12A11.37,11.37,0,0,1,427.67,152l183.16,3.57A11.39,11.39,0,0,1,622,167.11v0l-4.4,127.72A11.39,11.39,0,0,1,606.21,306ZM427.45,156a7.37,7.37,0,0,0-7.38,7.24l-4.73,129.27a7.39,7.39,0,0,0,7.3,7.49l183.48,2h.08a7.38,7.38,0,0,0,7.36-7.24L618,167.05a7.39,7.39,0,0,0-7.23-7.49L427.61,156Z" transform="translate(-80.81 -34.08)" fill="#fff"/><path d="M617.61,181H417.86a2,2,0,0,1-2-1.35,2,2,0,0,1,1.9-2.65H617.52a2,2,0,0,1,2,1.35A2,2,0,0,1,617.61,181Z" transform="translate(-80.81 -34.08)" fill="#fff"/><path d="M222,389.87A28.86,28.86,0,0,1,250.87,361H496.36a25.43,25.43,0,0,1,25.4,24.14l18.12,355.91a18.77,18.77,0,0,1-18.39,19.71l-281.36,5.11A17.8,17.8,0,0,1,222,748.07Z" transform="translate(-80.81 -34.08)" fill="url(#linear-gradient-11)"/><path d="M281.59,760H250.1c-10.53-.88-19.1-9.55-19.1-20.08V692.39a.68.68,0,0,1,.68-.68c.37,0,.67.3.32.68v47.53A18.75,18.75,0,0,0,250.11,758H281.6c.37.33.66.63.66,1S282,759.67,281.59,760Z" transform="translate(-80.81 -34.08)" fill="#fff"/><path d="M231.68,678.33a.68.68,0,0,1-.68-.67V670a.68.68,0,0,1,.68-.68c.37,0,.67.3.32.68v7.69C232.35,678,232.05,678.33,231.68,678.33Z" transform="translate(-80.81 -34.08)" fill="#fff"/><path d="M242.79,370.36a8.38,8.38,0,0,1,9.52-8.36c33.53,4.54,148.8,18.6,244.11,11.28a7.77,7.77,0,0,1,8.35,7.32l19,357.5a8.92,8.92,0,0,1-8.38,9.38c-40.08,2.37-205.19,11.54-264.07,5.37a7.05,7.05,0,0,1-6.32-7C244.74,700.92,243.12,425.76,242.79,370.36Z" transform="translate(-80.81 -34.08)" fill="url(#linear-gradient-12)"/><path d="M246.87,379.32a8.08,8.08,0,0,1,9.16-8.05c32.27,4.37,143.2,17.9,234.92,10.86a7.46,7.46,0,0,1,8,7l18.29,344a8.59,8.59,0,0,1-8.06,9c-38.58,2.28-197.46,11.11-254.13,5.17a6.79,6.79,0,0,1-6.08-6.73C248.75,697.42,247.19,432.63,246.87,379.32Z" transform="translate(-80.81 -34.08)" fill="#fff" opacity="0.6"/><path d="M276.27,405.84l3.42,73.76a4.7,4.7,0,0,0,4.55,4.47c13.66.39,56.23,1.43,80.26.17a5.23,5.23,0,0,0,5-5.06c.46-13.83,1.46-54.09-1.69-70.92a5.92,5.92,0,0,0-5.61-4.81l-80.74-2.82A5,5,0,0,0,276.27,405.84Z" transform="translate(-80.81 -34.08)" fill="#fff" opacity="0.13"/><circle cx="242.19" cy="397.92" r="16" fill="#fff" opacity="0.78"/><path d="M298.64,479h50.52a3.91,3.91,0,0,0,3.27-6c-4.29-6.71-13.26-16.57-28.8-16.12-15,.43-23.87,9.34-28.34,15.73A4.09,4.09,0,0,0,298.64,479Z" transform="translate(-80.81 -34.08)" fill="#fff" opacity="0.78"/><g opacity="0.78"><path d="M477.14,412c2.2,0,4-1.11,3.93-2.47S479.2,407,477,407l-86.29-1.54c-2.2,0-3.48,1.42-2.83,3.25A5.71,5.71,0,0,0,393,412Z" transform="translate(-80.81 -34.08)" fill="#fff"/></g><g opacity="0.78"><path d="M390.71,419.44c-2.2,0-3.48,1.42-2.83,3.25A5.71,5.71,0,0,0,393,426h84.1c2.2,0,4-1.11,3.93-2.47S479.2,421,477,421Z" transform="translate(-80.81 -34.08)" fill="#fff"/></g><g opacity="0.78"><path d="M390.71,433.44c-2.2,0-3.48,1.42-2.83,3.25A5.71,5.71,0,0,0,393,440h84.1c2.2,0,4-1.11,3.93-2.47S479.2,435,477,435Z" transform="translate(-80.81 -34.08)" fill="#fff"/></g><path d="M447.56,445.66c6.84-.52,19.61-.76,26.64-.86a6.37,6.37,0,0,1,6.29,4.89,103.75,103.75,0,0,1,3,25.84,5.69,5.69,0,0,1-5.72,5.47l-26-.28a6.24,6.24,0,0,1-6.15-5.66l-2.28-24.43A4.56,4.56,0,0,1,447.56,445.66Z" transform="translate(-80.81 -34.08)" fill="#fff" opacity="0.78"/><g opacity="0.78"><path d="M430.23,458c2.2,0,4-1.11,4-2.47s-1.84-2.54-4-2.62l-38.61-1.39c-2.2-.08-3.74,1.34-3.42,3.17s2.37,3.31,4.57,3.31Z" transform="translate(-80.81 -34.08)" fill="#fff"/></g><g opacity="0.78"><path d="M391.45,468c-2.2,0-3.68,1.48-3.3,3.29s2.5,3.23,4.7,3.15l37.49-1.37c2.2-.08,3.94-1.26,3.87-2.62s-1.92-2.47-4.12-2.47Z" transform="translate(-80.81 -34.08)" fill="#fff"/></g><g opacity="0.78"><path d="M486.15,507c2.21,0,3.94-1.12,3.85-2.48s-2-2.5-4.18-2.52l-206-1.62c-2.21,0-2.89,1.38-1.51,3.11l.3.38a9.42,9.42,0,0,0,6.49,3.13Z" transform="translate(-80.81 -34.08)" fill="#fff"/></g><g opacity="0.78"><path d="M279.83,514.38c-2.21,0-2.89,1.38-1.51,3.11l.3.38a9.42,9.42,0,0,0,6.49,3.13h201c2.21,0,3.94-1.12,3.85-2.48s-2-2.5-4.18-2.52Z" transform="translate(-80.81 -34.08)" fill="#fff"/></g><path d="M278.19,537.19c5-.38,14.33-.56,19.47-.63a4.65,4.65,0,0,1,4.59,3.55A76.38,76.38,0,0,1,304.44,559a4.14,4.14,0,0,1-4.18,4l-19-.2a4.57,4.57,0,0,1-4.49-4.14l-1.66-17.84A3.32,3.32,0,0,1,278.19,537.19Z" transform="translate(-80.81 -34.08)" fill="#fff" opacity="0.78"/><g opacity="0.78"><path d="M311,548.21l.12.83a4.81,4.81,0,0,0,4.6,4h43.82c2.2,0,4-1.47,4-3.27s-1.84-3.34-4-3.43l-45.07-1.88A3.18,3.18,0,0,0,311,548.21Z" transform="translate(-80.81 -34.08)" fill="#fff"/></g><path d="M378.49,540.82a3.33,3.33,0,0,1,3-3.63c5-.38,14.33-.56,19.47-.63a4.66,4.66,0,0,1,4.6,3.57A75.69,75.69,0,0,1,407.79,559a4.13,4.13,0,0,1-4.17,4l-19-.2a4.56,4.56,0,0,1-4.49-4.14Z" transform="translate(-80.81 -34.08)" fill="#fff" opacity="0.78"/><g opacity="0.78"><path d="M414.34,548.21l.12.83a4.81,4.81,0,0,0,4.6,4h43.83c2.2,0,4-1.47,4-3.27s-1.84-3.34-4-3.43l-45.07-1.88A3.18,3.18,0,0,0,414.34,548.21Z" transform="translate(-80.81 -34.08)" fill="#fff"/></g><g opacity="0.78"><path d="M475,599c2.21,0,3.94-1.12,3.86-2.48s-2-2.5-4.18-2.52l-203-1.65c-.55,0-.72.35-.39.79l3.93,5.07a2.31,2.31,0,0,0,1.61.79Z" transform="translate(-80.81 -34.08)" fill="#fff"/></g><g opacity="0.6"><path d="M273.16,609.51l.25.33a9.24,9.24,0,0,0,6.45,3.16H475c2.21,0,3.95-1.12,3.86-2.48s-2-2.5-4.18-2.52l-200-1.62C272.51,606.36,271.81,607.77,273.16,609.51Z" transform="translate(-80.81 -34.08)" fill="#fff"/></g><g opacity="0.6"><path d="M273.16,623.51l.25.33a9.24,9.24,0,0,0,6.45,3.16H475c2.21,0,3.95-1.12,3.86-2.48s-2-2.5-4.18-2.52l-200-1.62C272.51,620.36,271.81,621.77,273.16,623.51Z" transform="translate(-80.81 -34.08)" fill="#fff"/></g><path d="M389.18,312.32c-8.87-6.17-16.58-6.05-22-4.45a10.85,10.85,0,0,0-7.69,11.39l2.34,25.55,27.86,2.47S406.57,324.42,389.18,312.32Zm-12.25,20.61a6.95,6.95,0,1,1,6.94-6.94A6.95,6.95,0,0,1,376.93,332.93Z" transform="translate(-80.81 -34.08)" fill="url(#linear-gradient-13)"/><path d="M364.6,334.06a.66.66,0,0,1-.66-.61l-.38-4.07a.67.67,0,0,1,.61-.73.66.66,0,0,1,.73.61l.37,4.07a.67.67,0,0,1-.6.73Zm-.73-8a.66.66,0,0,1-.66-.61l-.29-3.09a10.34,10.34,0,0,1,7.33-10.84,20.87,20.87,0,0,1,10.18-.42.67.67,0,0,1,.52.8.67.67,0,0,1-.79.52,19.46,19.46,0,0,0-9.53.39,9,9,0,0,0-6.37,9.43l.28,3.09a.66.66,0,0,1-.6.73Z" transform="translate(-80.81 -34.08)" fill="#fff"/><path d="M324,361.32V348.47a7.84,7.84,0,0,1,8.11-7.83l88.56,3a7.63,7.63,0,0,1,7.35,7.16l.74,12.35Z" transform="translate(-80.81 -34.08)" fill="url(#linear-gradient-14)"/><path d="M356.83,345H353c-.37.48-.67.18-.67-.19A.91.91,0,0,1,353,344h3.81a.91.91,0,0,1,.67.81C357.5,345.18,357.2,345.48,356.83,345Z" transform="translate(-80.81 -34.08)" fill="#fff"/><path d="M328.6,357.28a.58.58,0,0,1-.6-.67v-5.2a7.38,7.38,0,0,1,7.21-7.41h14a.91.91,0,0,1,.67.81c0,.37-.3.67-.67.19h-14a7.25,7.25,0,0,0-6.21,6.41v5.2C329.27,357,329,357.28,328.6,357.28Z" transform="translate(-80.81 -34.08)" fill="#fff"/><path d="M295.07,356H451.89a11.44,11.44,0,0,1,11.28,9.49l.17,1A9.83,9.83,0,0,1,453.66,378H292.77a6.4,6.4,0,0,1-6.39-6.7l.36-7.36A8.34,8.34,0,0,1,295.07,356Z" transform="translate(-80.81 -34.08)" fill="url(#linear-gradient-15)"/><path d="M407.62,736h-.18l-65.51-.63c-9.36-.09-17.09-6.53-18-15l-5.76-55a11.94,11.94,0,0,1,2.82-9,14.37,14.37,0,0,1,10-4.94h0c5.52-.38,13.3-1,21.52-1.74,17.33-1.48,38.89-3.31,51-3.47,8.8,0,16.27,5.17,18.34,12.84,3.42,12.61,3.12,36.5,2.47,61.94C424.19,729.34,416.68,736,407.62,736Zm-76.23-79.33a9.32,9.32,0,0,0-6.52,3.17,7,7,0,0,0-1.67,5.22L329,720c.62,5.91,6.22,10.41,13,10l65.51,1h.13c6.35.12,11.61-4.35,11.75-9.9.64-25.06.94-48.54-2.29-60.51-1.45-5.36-7-9.09-13.43-9.11-11.95.15-33.41,2-50.66,3.45-8.25.7-16,1.36-21.6,1.74Z" transform="translate(-80.81 -34.08)" fill="#fff"/><path d="M338.43,662.49c13.77-.94,43.68-4,57.87-4.16,6-.07,11.28,3.56,12.69,8.77,2.74,10.13,2.37,30.31,1.9,48.93-.14,5.58-5.27,10-11.52,10L347,725.5c-6.44-.06-11.79-4.45-12.39-10.17L330,671.4C329.55,666.86,333.33,662.84,338.43,662.49Z" transform="translate(-80.81 -34.08)" fill="#fff" opacity="0.6"/><path d="M404.43,636.16c-7.82,4.34-22.3,21.59-35.66,39.11-8.52-14.53-17.28-26.95-22.33-26.95-12.16,0-11.22,6.55-1.87,25.25,2.36,4.73,6.16,12.14,10.62,20C346,706.43,339.26,716.54,339,717.53c-8.07,26.89,9.52,13.89,27.72-5.21,10.88,15.85,22,25.91,25.59,8,0,0-4.94-10.56-11.71-23.59,8.05-9.58,14.74-18.54,17.32-23.18C407.23,656.74,421.26,626.81,404.43,636.16Z" transform="translate(-80.81 -34.08)" fill="url(#linear-gradient-16)"/><path d="M509.83,221H840.07a34.22,34.22,0,0,1,34.17,32.47l24.38,478.79a25.24,25.24,0,0,1-24.74,26.51l-378.5,6.87A23.94,23.94,0,0,1,471,741.7V259.83A38.84,38.84,0,0,1,509.83,221Z" transform="translate(-80.81 -34.08)" fill="url(#linear-gradient-17)"/><path d="M550.83,757H508.46A25.74,25.74,0,0,1,483,731V667.07c-.22-.5.18-.9.68-.9s.91.4,1.32.9V731a23.37,23.37,0,0,0,23.49,24h42.35c.5.77.9,1.18.89,1.68S551.32,757.58,550.83,757Z" transform="translate(-80.81 -34.08)" fill="#fff"/><path d="M483.68,648.17a.66.66,0,0,1-.68-.91V636.91a.66.66,0,0,1,.68-.91c.5,0,.91.41,1.32.91v10.35C484.59,647.76,484.18,648.17,483.68,648.17Z" transform="translate(-80.81 -34.08)" fill="#fff"/><path d="M510.82,222.61c45.1,6.12,200.18,25,328.39,15.19a10.44,10.44,0,0,1,11.24,9.84L876,728.56a12,12,0,0,1-11.27,12.62c-53.93,3.19-276,15.53-355.22,7.23A9.51,9.51,0,0,1,501,739l-3-505.13A11.28,11.28,0,0,1,510.82,222.61Z" transform="translate(-80.81 -34.08)" fill="url(#linear-gradient-18)"/><path d="M515.45,235.09c43.4,5.89,192.64,24.09,316,14.62a10,10,0,0,1,10.81,9.46L866.88,722A11.55,11.55,0,0,1,856,734.13c-51.89,3.07-265.61,14.94-341.84,7A9.16,9.16,0,0,1,506,732l-2.86-486.11A10.85,10.85,0,0,1,515.45,235.09Z" transform="translate(-80.81 -34.08)" fill="#fff" opacity="0.6"/><path d="M543.67,281.6l4.61,99.22a6.31,6.31,0,0,0,6.12,6c18.37.52,75.63,1.91,108,.23a7,7,0,0,0,6.68-6.81c.61-18.61,2-72.77-2.28-95.41a8,8,0,0,0-7.55-6.47l-108.61-3.8A6.7,6.7,0,0,0,543.67,281.6Z" transform="translate(-80.81 -34.08)" fill="#fff" opacity="0.78"/><circle cx="525.69" cy="283.42" r="21.5" fill="url(#linear-gradient-19)"/><path d="M569.26,371.36a5.49,5.49,0,0,0,4.51,8.64h68a5.26,5.26,0,0,0,4.42-8.11c-5.77-9-17.85-22.3-38.76-21.7C587.21,350.77,575.26,362.76,569.26,371.36Z" transform="translate(-80.81 -34.08)" fill="url(#linear-gradient-20)"/><g opacity="0.6"><path d="M815.27,290c2.2,0,4-1.5,3.91-3.33s-1.9-3.36-4.1-3.4l-120.52-2.15a1.51,1.51,0,0,0-1.55,2.16l1.6,4.53A3.52,3.52,0,0,0,697.7,290Z" transform="translate(-80.81 -34.08)" fill="#fff"/></g><g opacity="0.6"><path d="M693.57,303.86l.48,1.37a6.07,6.07,0,0,0,5.33,3.77H815.27c2.2,0,4-1.5,3.91-3.33s-1.9-3.36-4.1-3.4l-118.84-2.12A2.6,2.6,0,0,0,693.57,303.86Z" transform="translate(-80.81 -34.08)" fill="#fff"/></g><g opacity="0.6"><path d="M693.57,322.85l.48,1.38a6.07,6.07,0,0,0,5.33,3.77H815.27c2.2,0,4-1.5,3.91-3.33s-1.9-3.36-4.1-3.4l-118.84-2.12A2.6,2.6,0,0,0,693.57,322.85Z" transform="translate(-80.81 -34.08)" fill="#fff"/></g><path d="M774.07,335.47c9.19-.71,26.39-1,35.86-1.17a8.59,8.59,0,0,1,8.47,6.56,139.73,139.73,0,0,1,4,34.68,7.65,7.65,0,0,1-7.69,7.46l-34.94-.38a8.39,8.39,0,0,1-8.27-7.61l-3.07-32.87A6.11,6.11,0,0,1,774.07,335.47Z" transform="translate(-80.81 -34.08)" fill="url(#linear-gradient-21)"/><path d="M752.17,352c2.2,0,4-1.5,4-3.33s-1.84-3.39-4-3.47l-55.61-2a2.41,2.41,0,0,0-2.56,2.93l.5,2.84a3.81,3.81,0,0,0,3.61,3Z" transform="translate(-80.81 -34.08)" fill="url(#linear-gradient-22)"/><path d="M694.07,368.94l.22,1a4.94,4.94,0,0,0,4.83,3.77l53.2-1.95c2.19-.08,3.92-1.64,3.82-3.47s-2-3.32-4.17-3.32l-54.73,0A3.11,3.11,0,0,0,694.07,368.94Z" transform="translate(-80.81 -34.08)" fill="url(#linear-gradient-23)"/><g opacity="0.6"><path d="M826.84,418a3.51,3.51,0,0,0,3.78-3.48A4.12,4.12,0,0,0,826.4,411l-278.77-2.3c-2.2,0-2.87,1.44-1.5,3.24l2.11,2.79a9.4,9.4,0,0,0,6.61,3.27Z" transform="translate(-80.81 -34.08)" fill="#fff"/></g><g opacity="0.6"><path d="M547.63,427.7c-2.2,0-2.87,1.44-1.5,3.24l2.11,2.79a9.4,9.4,0,0,0,6.61,3.27h272a3.51,3.51,0,0,0,3.78-3.48A4.12,4.12,0,0,0,826.4,430Z" transform="translate(-80.81 -34.08)" fill="#fff"/></g><path d="M542.15,463.16a4.46,4.46,0,0,1,4.09-4.87c6.7-.52,19.27-.76,26.19-.85a6.27,6.27,0,0,1,6.19,4.79,102.14,102.14,0,0,1,2.94,25.39,5.6,5.6,0,0,1-5.63,5.38l-25.5-.27a6.14,6.14,0,0,1-6-5.56Z" transform="translate(-80.81 -34.08)" fill="url(#linear-gradient-24)"/><g opacity="0.6"><path d="M590.16,472.19l.57,3.85a4.81,4.81,0,0,0,4.6,4h61.72a4,4,0,0,0,4-4v-.79a4.28,4.28,0,0,0-4-4.16l-63.38-2.65A3.18,3.18,0,0,0,590.16,472.19Z" transform="translate(-80.81 -34.08)" fill="#fff"/></g><path d="M681.18,463.16a4.47,4.47,0,0,1,4.09-4.87c6.71-.52,19.28-.76,26.2-.85a6.27,6.27,0,0,1,6.19,4.79,102.62,102.62,0,0,1,2.94,25.39A5.61,5.61,0,0,1,715,493l-25.5-.27a6.13,6.13,0,0,1-6-5.56Z" transform="translate(-80.81 -34.08)" fill="url(#linear-gradient-25)"/><g opacity="0.6"><path d="M729.16,472.19l.57,3.85a4.81,4.81,0,0,0,4.6,4h61.72a4,4,0,0,0,4-4v-.79a4.28,4.28,0,0,0-4-4.16l-63.38-2.65A3.18,3.18,0,0,0,729.16,472.19Z" transform="translate(-80.81 -34.08)" fill="#fff"/></g><g opacity="0.6"><path d="M811.89,542a3.52,3.52,0,0,0,3.79-3.48,4.12,4.12,0,0,0-4.22-3.52l-270.74-2.3c-2.2,0-2.9,1.46-1.55,3.28l2,2.71a9.19,9.19,0,0,0,6.55,3.31Z" transform="translate(-80.81 -34.08)" fill="#fff"/></g><g opacity="0.6"><path d="M540.72,550.7c-2.2,0-2.9,1.46-1.55,3.28l2,2.72a9.21,9.21,0,0,0,6.55,3.3H811.89a3.52,3.52,0,0,0,3.79-3.48,4.12,4.12,0,0,0-4.22-3.52Z" transform="translate(-80.81 -34.08)" fill="#fff"/></g><g opacity="0.6"><path d="M540.72,569.7c-2.2,0-2.9,1.46-1.55,3.28l2,2.71a9.19,9.19,0,0,0,6.55,3.31H811.89a3.52,3.52,0,0,0,3.79-3.48,4.12,4.12,0,0,0-4.22-3.52Z" transform="translate(-80.81 -34.08)" fill="#fff"/></g><path d="M695.56,155.79c-11.93-8.3-22.3-8.13-29.6-6a14.58,14.58,0,0,0-10.35,15.31l3.15,34.37,37.47,3.33S719,172.07,695.56,155.79Zm-16.48,27.73a9.35,9.35,0,1,1,9.34-9.34A9.34,9.34,0,0,1,679.08,183.52Z" transform="translate(-80.81 -34.08)" fill="url(#linear-gradient-26)"/><path d="M662.5,185a.91.91,0,0,1-.9-.82l-.5-5.47a.9.9,0,0,1,.82-1,.89.89,0,0,1,1,.81l.5,5.48a.89.89,0,0,1-.81,1Zm-1-10.72a.9.9,0,0,1-.9-.82l-.38-4.16a13.89,13.89,0,0,1,9.86-14.58,28.07,28.07,0,0,1,13.69-.57.9.9,0,1,1-.36,1.77,26.24,26.24,0,0,0-12.82.53A12.1,12.1,0,0,0,662,169.17l.38,4.15a.89.89,0,0,1-.82,1Z" transform="translate(-80.81 -34.08)" fill="#fff"/><path d="M608,221.7V204.42a10.54,10.54,0,0,1,10.91-10.53L738,198a10.25,10.25,0,0,1,9.89,9.63l1,16.61Z" transform="translate(-80.81 -34.08)" fill="url(#linear-gradient-27)"/><path d="M652,200h-5.12c-.5.4-.9,0-.9-.51s.4-.9.9-1.49H652c.5.59.91,1,.91,1.49S652.54,200.4,652,200Z" transform="translate(-80.81 -34.08)" fill="#fff"/><path d="M614.07,216.28a1.22,1.22,0,0,1-1.07-.91v-7A11,11,0,0,1,623,198H641.8c.5.59.9,1,.9,1.49s-.4.91-.9.51H623a8.58,8.58,0,0,0-8,8.38v7A1,1,0,0,1,614.07,216.28Z" transform="translate(-80.81 -34.08)" fill="#fff"/><path d="M571.35,216H777.59a15.41,15.41,0,0,1,15.17,12.78l.13.75a13.22,13.22,0,0,1-13,15.48H568.28a8.61,8.61,0,0,1-8.59-9l.45-9.3A11.22,11.22,0,0,1,571.35,216Z" transform="translate(-80.81 -34.08)" fill="url(#linear-gradient-28)"/><path d="M743.41,726h-.29l-105-1c-15-.14-27.39-10.47-28.81-24l-9.23-88.1a19.19,19.19,0,0,1,4.52-14.4,23.09,23.09,0,0,1,16.07-7.93h0c8.85-.6,21.3-1.66,34.49-2.78,27.77-2.37,62.33-5.31,81.78-5.55,14.11-.08,26.08,8.27,29.4,20.56,5.47,20.22,5,58.51,3.95,99.29C770,715.32,757.93,726,743.41,726ZM621.73,599.6a14.78,14.78,0,0,0-10.36,5,11.05,11.05,0,0,0-2.66,8.3l9.16,87.41c1,9.39,9.89,16.55,20.7,16.66l104.19,1H743c10.09,0,18.45-7.11,18.68-15.94,1-39.85,1.5-77.2-3.65-96.23-2.3-8.53-11.18-14.46-21.35-14.49-19,.24-53.14,3.14-80.56,5.48-13.12,1.12-25.52,2.17-34.36,2.78Z" transform="translate(-80.81 -34.08)" fill="#fff"/><path d="M632.53,607.21c22.05-1.51,70-6.38,92.73-6.66,9.64-.12,18.09,5.7,20.34,14.05,4.39,16.23,3.81,48.57,3,78.42-.23,8.94-8.44,16.08-18.46,16l-83.91-.81c-10.32-.1-18.89-7.13-19.85-16.29l-7.37-70.4C618.29,614.21,624.35,607.76,632.53,607.21Z" transform="translate(-80.81 -34.08)" fill="#fff" opacity="0.6"/><path d="M637,621.46h0a16.12,16.12,0,0,1,22.23,6l20.71,37.13a5.17,5.17,0,0,0,9.23-.4l51.37-114.36c2.56-5.71,11.06-3.78,11,2.48-.53,35-9.81,101.47-65.7,157.12,0,0-30.8-12-55.61-66.44A16.91,16.91,0,0,1,637,621.46Z" transform="translate(-80.81 -34.08)" fill="url(#linear-gradient-29)"/><path d="M832.13,753.13s.92,5.2,1.37,10.36a3.55,3.55,0,0,1-3.4,3.84c-6.86.29-21.54.84-26.8.61a1.16,1.16,0,0,1-1-1.58h0a2.59,2.59,0,0,1,1.32-1.4l24.25-11.14Z" transform="translate(-80.81 -34.08)" fill="url(#linear-gradient-30)"/><path d="M832.88,750.07l-.74,6.23s-4.24,2-7.14-.25l1.75-6.94Z" transform="translate(-80.81 -34.08)" fill="url(#linear-gradient-31)"/><path d="M832.33,633c.32,1.63,1.71,81.16-6.79,116.79a1.19,1.19,0,0,0,.7,1.39,21.24,21.24,0,0,0,7,1.41,2.07,2.07,0,0,0,2-1.49c2.42-8.25,14.07-49.68,15.59-89.26,1.69-44.22,0-1.51,0-1.51l-1-27.33Z" transform="translate(-80.81 -34.08)" fill="url(#linear-gradient-32)"/><path d="M860,755.84s1.46,2.63,2.88,9.61a2.17,2.17,0,0,1-1.91,2.6c-2.26.22-5.75.51-8.54.49a2.16,2.16,0,0,1-2.14-2.41,18.2,18.2,0,0,1,4.25-10Z" transform="translate(-80.81 -34.08)" fill="url(#linear-gradient-33)"/><path d="M861.3,747.84l-1.72,9.41s-1.71,1.27-5.09.35l.83-10.13Z" transform="translate(-80.81 -34.08)" fill="url(#linear-gradient-34)"/><path d="M866,635.45c6.95,42-1.51,103.69-4.36,115.77a1.92,1.92,0,0,1-1.53,1.44,12.65,12.65,0,0,1-5.43-.22,1.73,1.73,0,0,1-1.24-1.59c-.39-9.77.3-69.74-6.17-93.44a5.42,5.42,0,0,0-2.08-3l-12.57-8.94-1-14.45Z" transform="translate(-80.81 -34.08)" fill="url(#linear-gradient-35)"/><path d="M821.67,556c20.83-.34,43.82,5.47,43.82,5.47,6.21,36.24,1.09,78,1.09,78-16.13,4.23-34.32-2.59-34.32-2.59-2.68-15.14-15.19-57.76-15.19-57.76A68.64,68.64,0,0,1,791.6,571c5.27-6.1,7.75-13.87,8.83-18.46A69.71,69.71,0,0,0,821.67,556Z" transform="translate(-80.81 -34.08)" fill="url(#Degradado_sin_nombre_25)"/><path d="M760.14,525.28a4,4,0,0,1,4.64-1.3c3.06,12.95,19.14,23.44,35.65,28.58-1.08,4.59-3.56,12.36-8.83,18.46C764.19,555.61,760.14,525.28,760.14,525.28Z" transform="translate(-80.81 -34.08)" fill="url(#Degradado_sin_nombre_106)"/><path d="M760.64,525.91c-.22.68,2.26,1.71,3.72-1.07,0-1.33.86-7.05.07-8.14-4.25-5.79-12.48-13-12.48-13a2,2,0,0,0-.25,2.72l4,4.16a19.21,19.21,0,0,0-2.34,4.61,5.6,5.6,0,0,0,.56,4.12c.7,1.26,1.66,2.9,2.56,4.19A5.55,5.55,0,0,0,760.64,525.91Z" transform="translate(-80.81 -34.08)" fill="url(#Degradado_sin_nombre_109)"/><path d="M757.44,513.24l3.64,3.08,1.15,3.07L759,523s-1.09-6.09-1.9-7.41S756.69,513.62,757.44,513.24Z" transform="translate(-80.81 -34.08)" fill="url(#Degradado_sin_nombre_109-2)"/><path d="M857.5,581.6l8-20.17s19.46,13.22,22.66,30A46,46,0,0,0,871.23,596C869.79,588,857.5,581.6,857.5,581.6Z" transform="translate(-80.81 -34.08)" fill="url(#Degradado_sin_nombre_51)"/><path d="M840.5,600.58s21.84,12.35,29.21,1.81a8.28,8.28,0,0,0,1.52-6.44,46,46,0,0,1,16.92-4.53,23.17,23.17,0,0,1-2.52,15.86c-12.91,23.62-48-1.31-48-1.31Z" transform="translate(-80.81 -34.08)" fill="url(#Degradado_sin_nombre_93)"/><path d="M842,617.74a1.21,1.21,0,0,0,1.16-1.55L831.2,574.55a1.21,1.21,0,0,0-1-.87c-2.16-.26-8.42-1-15.65-1.57-8.71-.74-18.82-1.34-24.86-.83a1.21,1.21,0,0,0-1,1.75c3.44,7,17.59,35.26,24.66,44.51a1.21,1.21,0,0,0,1,.46Z" transform="translate(-80.81 -34.08)" fill="#f9f493"/><path d="M813.29,568.51l-8.65-1.44a.62.62,0,0,0-.69.81l.86,2.59a.6.6,0,0,0,.5.42l8.32,1.11a.62.62,0,0,0,.69-.75l-.53-2.27A.63.63,0,0,0,813.29,568.51Z" transform="translate(-80.81 -34.08)" fill="url(#linear-gradient-36)"/><path d="M819.76,575.83l-.71-3.71a.86.86,0,0,0-.76-.69l-17.46-1.77a.85.85,0,0,0-.92,1.05l1.11,4.62a.86.86,0,0,0,.79.66l17.06.86A.86.86,0,0,0,819.76,575.83Z" transform="translate(-80.81 -34.08)" fill="#9e00d0"/><path d="M840.24,606.14s1.66-6.82,1-9.25-2-5.54-6.29-4.84a63.14,63.14,0,0,0-9.43,2.51s.25,3.16,3.54,2.14l-2,1.58s.29,2.52,3.07,1.17l-1.89,2.1a2.2,2.2,0,0,0,3.23.74C833.47,601,834.44,607,840.24,606.14Z" transform="translate(-80.81 -34.08)" fill="url(#linear-gradient-37)"/><path d="M842.77,539l6.63,19.17a.7.7,0,0,1-.32.84c-1.82,1-8.34,3.88-16.18-1.11a3.23,3.23,0,0,1-1.47-2.31L829.28,539Z" transform="translate(-80.81 -34.08)" fill="url(#linear-gradient-38)"/><path d="M828.35,521.3S821.07,535,822,540.54s10,5.13,17.83.64l5.5-14.8Z" transform="translate(-80.81 -34.08)" fill="url(#linear-gradient-39)"/><path d="M839.49,533.91a.56.56,0,0,1-.25-.82,14.73,14.73,0,0,0,2-4.3s1.31-.84-3.33-1.95-11.56-2.84-13-6.78,2.3-13.54,8.25-5.82a.56.56,0,0,0,.89,0c1-1.26,3.54-3.9,7.09-2.3,3.33,1.49,3.7,3.93,3.66,5.16a.57.57,0,0,0,.66.58c1.69-.33,5.72-.6,7.61,3.54,1.55,3.41.54,5.34-.38,6.29a.56.56,0,0,0,.24.93c1.11.34,2.54,1.28,2.39,3.87-.19,3.58-4.2,3.26-5.34,3.1a.57.57,0,0,0-.5.18c-1,1.08-5.38,5.67-10.15,6.23a.57.57,0,0,1-.59-.76l2.06-6a.57.57,0,0,0-.31-.7Z" transform="translate(-80.81 -34.08)" fill="url(#linear-gradient-40)"/><path d="M838.66,534.76s5.18-3.55,5.56-.56-4.67,4.34-7.17,3.22Z" transform="translate(-80.81 -34.08)" fill="url(#linear-gradient-41)"/><path d="M884.94,342.91c.07,0,37.54-65.63,42.6-71.8a3.91,3.91,0,0,1,3.5-1.41l10.46,1.24,12.28,26.58L933.32,285.6c2,14-24.27,34.82-33.28,42.41a2.08,2.08,0,0,0-.17,3l3.6,3.77a41.28,41.28,0,0,1-20.42,11.61Z" transform="translate(-80.81 -34.08)" fill="url(#linear-gradient-42)"/><path d="M901.39,332.77a5.31,5.31,0,0,1,3.08,2.78,2.35,2.35,0,0,1-.88,2.7c-3.79,2.71-16.27,11.46-22,13.18a.66.66,0,0,1-.82-.77c.3-1.34,1.25-4,4.33-7.92l-.27.56a.8.8,0,0,0,1.1,1.05C889.76,342.18,897.61,337.42,901.39,332.77Z" transform="translate(-80.81 -34.08)" fill="url(#linear-gradient-43)"/><path d="M899.54,359c.06,0,5.68-13.59,5.74-13.63a238.79,238.79,0,0,1,21.44-65.32,3.92,3.92,0,0,1,3.14-2.08l10.5-.9,17.4,23.54-22.45-7.53c4.82,13.31-16.72,39-24,48.27a2.08,2.08,0,0,0,.45,3l4.29,3a41.43,41.43,0,0,1-17.65,15.51Z" transform="translate(-80.81 -34.08)" fill="url(#linear-gradient-44)"/><path d="M913.59,345.75a5.27,5.27,0,0,1,3.57,2.11,2.33,2.33,0,0,1-.31,2.82c-3.16,3.42-13.61,14.51-18.9,17.35a.64.64,0,0,1-1-.58c0-1.37.41-4.18,2.64-8.63l-.16.6a.8.8,0,0,0,1.3.81C904.11,357.32,910.83,351.07,913.59,345.75Z" transform="translate(-80.81 -34.08)" fill="url(#linear-gradient-45)"/><path d="M989.47,272.13s9.49,14.12,10.27,20.56-2.62,8.67-12.56,9.49c-29.56,2.44-44.14-6.42-44.14-6.42-2-12.89-3.46-16.17-20.35-23.18,0,0,21.37,1.69,25.66,0S989.47,272.13,989.47,272.13Z" transform="translate(-80.81 -34.08)" fill="url(#linear-gradient-46)"/><path d="M951.62,193s6.61-7.82,13.64,1.77c1.27,1.74,6.16.31,8,3.94a4.63,4.63,0,0,0,5,2.57c5.13-.95,13.51-1,17.65,7,3.16,6.14.72,9.73-2.44,11.77a5.19,5.19,0,0,0-1.75,6.94c1.35,2.28,1.6,5.38-1.87,9.1-7.79,8.34-23.19-5.29-23.19-5.29l-12.24-28.91Z" transform="translate(-80.81 -34.08)" fill="url(#linear-gradient-47)"/><path d="M963.8,270.26s-11-10.52-16.49-17.49a14.8,14.8,0,0,1-2.51-13.31c2.49-8.37,6.9-17,7.3-18.39.62-2.07,13-2,13-2s24.39,15.83,34,42.64l-10.76,3.35S982,254.4,975.66,247.6c0,0,10.89,14.39,11.27,20.27Z" transform="translate(-80.81 -34.08)" fill="url(#linear-gradient-48)"/><path d="M942.74,274.42l8.31-9,9.59,2.58s11.18,1.74,17.58,0l6.4-1.73,14.46-4.5,2.27,6.42a3.86,3.86,0,0,1-1.41,4.44,24.76,24.76,0,0,1-3.65,2.27c-1.9.84-43.88.27-43.88.27Z" transform="translate(-80.81 -34.08)" fill="url(#linear-gradient-49)"/><path d="M956.6,204.19l8.33,15.49c-.55,3.38-9.07,3.47-10.39,1.46a2.14,2.14,0,0,1-.26-.69l-5-10.35c-.21-1,2.55-4.41,3.46-4.89l3.31-1.76C957.35,202.77,952,202.71,956.6,204.19Z" transform="translate(-80.81 -34.08)" fill="url(#linear-gradient-50)"/><path d="M939.74,200.55s-.94,5.24,3.17,11.89,8.21,6.35,10.29,4,4.57-6.32,3.44-13S941.16,193.88,939.74,200.55Z" transform="translate(-80.81 -34.08)" fill="url(#linear-gradient-51)"/><path d="M951.66,204.18s-6.66-8.75-11.77-1.12l.08,2.63s-6.65-.31-5.92-6.44,6.15-10.31,13.67-8.22,11.92,4.48,12.77,9.71-3.41,4.37-3.41,4.37-1.63-3.61-3.6-3.85-1.26,2.6-1.26,2.6Z" transform="translate(-80.81 -34.08)" fill="url(#linear-gradient-52)"/><path d="M953.19,204s-3.45-4.48-.31-5.41,3,4.39,2.82,6.37Z" transform="translate(-80.81 -34.08)" fill="url(#linear-gradient-53)"/><path d="M970.23,278H931.94a1.77,1.77,0,0,1-1.7-1.76c0-.94.77-1.72,1.71-1.24h38.2c.94-.42,1.71.34,1.71,1.29A1.7,1.7,0,0,1,970.23,278Z" transform="translate(-80.81 -34.08)" fill="url(#linear-gradient-54)"/><path d="M897.33,243h32.2a6.05,6.05,0,0,1,5.48,3.48L949.88,278h-40a3.69,3.69,0,0,1-3.43-2.33L895,246.47A2.54,2.54,0,0,1,897.33,243Z" transform="translate(-80.81 -34.08)" fill="url(#linear-gradient-55)"/><path d="M920,259.3c.69,2.14.18,4.22-1.14,4.65s-3-1-3.64-3.11-.18-4.23,1.14-4.65S919.33,257.16,920,259.3Z" transform="translate(-80.81 -34.08)" fill="url(#linear-gradient-56)"/><path d="M344.32,293.12a.94.94,0,0,1-.63-.23c-1-.84-2.06-1.67-3.1-2.46a1,1,0,0,1,1.21-1.59c1.06.81,2.13,1.65,3.16,2.51a1,1,0,0,1,.13,1.41A1,1,0,0,1,344.32,293.12Z" transform="translate(-80.81 -34.08)" fill="#eac4f9"/><path d="M173.35,377.34a1,1,0,0,1-1-1c0-1.24-.07-2.48-.07-3.73,0-1.49,0-3,.1-4.51a1,1,0,0,1,1-1,1,1,0,0,1,1,1c-.06,1.48-.1,3-.1,4.43,0,1.23,0,2.45.07,3.66a1,1,0,0,1-1,1ZM174.8,356h-.17a1,1,0,0,1-.81-1.16c.46-2.69,1-5.4,1.72-8.06a1,1,0,0,1,1.21-.73,1,1,0,0,1,.73,1.22c-.67,2.61-1.24,5.27-1.69,7.91A1,1,0,0,1,174.8,356Zm5.78-20.62a.92.92,0,0,1-.36-.07,1,1,0,0,1-.57-1.29c1-2.56,2.12-5.1,3.31-7.55a1,1,0,1,1,1.8.87c-1.17,2.41-2.26,4.9-3.25,7.41A1,1,0,0,1,180.58,335.35Zm9.83-19a1,1,0,0,1-.84-1.54c1.5-2.3,3.11-4.55,4.79-6.72a1,1,0,1,1,1.58,1.22c-1.64,2.13-3.22,4.34-4.69,6.59A1,1,0,0,1,190.41,316.33Zm13.51-16.59a1,1,0,0,1-.71-1.71c1.94-1.94,4-3.82,6.07-5.59a1,1,0,0,1,1.41.11,1,1,0,0,1-.12,1.41c-2,1.74-4,3.59-5.94,5.48A1,1,0,0,1,203.92,299.74Zm16.63-13.49a1,1,0,0,1-.84-.45,1,1,0,0,1,.29-1.39c2.29-1.49,4.67-2.92,7.07-4.24a1,1,0,0,1,1,1.76c-2.36,1.29-4.7,2.69-6.94,4.16A1,1,0,0,1,220.55,286.25Zm109.61-3a.9.9,0,0,1-.5-.14c-2.33-1.34-4.74-2.61-7.16-3.77a1,1,0,1,1,.86-1.8c2.47,1.18,4.93,2.47,7.3,3.84a1,1,0,0,1,.36,1.37A1,1,0,0,1,330.16,283.27Zm-90.59-6.85a1,1,0,0,1-.36-1.93c2.55-1,5.17-1.91,7.78-2.71a1,1,0,0,1,.59,1.91c-2.57.78-5.14,1.68-7.64,2.66A1,1,0,0,1,239.57,276.42Zm71.05-1.92a1.19,1.19,0,0,1-.32-.05c-2.55-.85-5.17-1.61-7.77-2.25a1,1,0,0,1-.73-1.21,1,1,0,0,1,1.21-.73c2.65.66,5.32,1.43,7.92,2.29a1,1,0,0,1-.31,1.95Zm-50.42-3.84a1,1,0,0,1-.17-2c2.7-.47,5.45-.83,8.18-1.08a1,1,0,0,1,.18,2c-2.67.24-5.37.59-8,1Zm29.51-.8h-.11c-2.67-.31-5.39-.51-8.07-.61a1,1,0,1,1,.07-2c2.74.1,5.5.31,8.23.63a1,1,0,0,1-.12,2Z" transform="translate(-80.81 -34.08)" fill="#eac4f9"/><path d="M175.41,394.53a1,1,0,0,1-1-.8c-.27-1.31-.52-2.64-.74-4a1,1,0,0,1,2-.32c.21,1.3.45,2.61.72,3.89a1,1,0,0,1-.78,1.18Z" transform="translate(-80.81 -34.08)" fill="#eac4f9"/><path d="M221.56,461.71a.94.94,0,0,1-.53-.16c-1.15-.73-2.28-1.48-3.37-2.23a1,1,0,0,1-.25-1.4,1,1,0,0,1,1.39-.25c1.07.74,2.18,1.48,3.3,2.19a1,1,0,0,1-.54,1.85Z" transform="translate(-80.81 -34.08)" fill="#eac4f9"/><path d="M277.76,478.11c-1.36,0-2.74,0-4.08-.08a1,1,0,0,1,.07-2c2.64.11,5.36.11,8,0a1,1,0,0,1,1,1,1,1,0,0,1-1,1C280.47,478.09,279.11,478.11,277.76,478.11Zm17-1.4a1,1,0,0,1-.16-2c2.61-.44,5.23-1,7.8-1.61a1,1,0,1,1,.48,1.94c-2.62.65-5.3,1.2-7.95,1.64Zm-34,0h-.17c-2.65-.44-5.33-1-7.95-1.64a1,1,0,1,1,.48-1.94c2.57.63,5.2,1.17,7.8,1.61a1,1,0,0,1,.82,1.15A1,1,0,0,1,260.73,476.7Zm54.36-5.51a1,1,0,0,1-.94-.64,1,1,0,0,1,.58-1.3c2.47-.94,4.93-2,7.32-3.13a1,1,0,0,1,.86,1.81c-2.44,1.15-5,2.23-7.47,3.19A.84.84,0,0,1,315.09,471.19Zm-74.7,0a1.13,1.13,0,0,1-.36-.06c-2.52-1-5-2-7.46-3.19a1,1,0,0,1,.85-1.81c2.39,1.13,4.85,2.18,7.33,3.13a1,1,0,0,1-.36,1.93Zm93.52-9.46a1,1,0,0,1-.54-1.84c2.23-1.42,4.43-2.94,6.55-4.53a1,1,0,1,1,1.2,1.6c-2.16,1.62-4.4,3.17-6.68,4.62A1,1,0,0,1,333.91,461.71Zm16.54-13a1,1,0,0,1-.7-1.72c1.9-1.84,3.75-3.77,5.5-5.75a1,1,0,1,1,1.5,1.33c-1.78,2-3.67,4-5.61,5.86A1,1,0,0,1,350.45,448.67ZM364,432.57a1,1,0,0,1-.56-.17,1,1,0,0,1-.27-1.39c1.49-2.19,2.92-4.46,4.23-6.75a1,1,0,1,1,1.74,1c-1.34,2.33-2.79,4.65-4.31,6.87A1,1,0,0,1,364,432.57Zm10.05-18.51a1.09,1.09,0,0,1-.39-.08,1,1,0,0,1-.53-1.31c.8-1.93,1.56-3.91,2.25-5.89.19-.52.37-1,.54-1.57a1,1,0,0,1,1.9.63c-.18.54-.36,1.07-.55,1.6-.7,2-1.48,4-2.3,6A1,1,0,0,1,374.07,414.06Zm6.16-20.16a.71.71,0,0,1-.2,0,1,1,0,0,1-.78-1.17c.52-2.6.94-5.24,1.25-7.87a1,1,0,0,1,2,.24c-.32,2.68-.75,5.37-1.28,8A1,1,0,0,1,380.23,393.9Zm2-20.9a1,1,0,0,1-1-1c0-2.65-.14-5.32-.37-8a1,1,0,0,1,.92-1.08,1,1,0,0,1,1.08.91c.22,2.69.35,5.42.37,8.11a1,1,0,0,1-1,1Z" transform="translate(-80.81 -34.08)" fill="#eac4f9"/><path d="M379.93,351.92a1,1,0,0,1-1-.79c-.28-1.28-.58-2.58-.9-3.85a1,1,0,1,1,1.93-.5c.33,1.3.64,2.63.92,3.93a1,1,0,0,1-.77,1.19A.75.75,0,0,1,379.93,351.92Z" transform="translate(-80.81 -34.08)" fill="#eac4f9"/><path d="M344,327.09a1.26,1.26,0,0,0-1.3-.65l-15.09,2.26a66.29,66.29,0,0,0-16.5-13.83l-.42-15.24a1.28,1.28,0,0,0-.88-1.17L292.33,293a1.25,1.25,0,0,0-1.38.45l-9.07,12.26a66.51,66.51,0,0,0-21.44,1.91l-11.09-10.49a1.24,1.24,0,0,0-1.44-.2l-16.22,8.46a1.25,1.25,0,0,0-.66,1.3l2.26,15.09a66.5,66.5,0,0,0-13.83,16.5l-15.24.42a1.26,1.26,0,0,0-1.16.88L197.57,357a1.24,1.24,0,0,0,.45,1.38l12.26,9.07a66.6,66.6,0,0,0,1.91,21.45L201.7,400a1.24,1.24,0,0,0-.2,1.44L210,417.66a1.24,1.24,0,0,0,1.29.66l15.09-2.26a66.34,66.34,0,0,0,16.51,13.83l.42,15.24a1.23,1.23,0,0,0,.87,1.16l17.46,5.49a1.26,1.26,0,0,0,1.39-.45l9.06-12.26a66.57,66.57,0,0,0,21.45-1.91l11.08,10.49a1.24,1.24,0,0,0,1.44.2l16.23-8.47a1.24,1.24,0,0,0,.66-1.29L320.65,423a66.29,66.29,0,0,0,13.83-16.5l15.25-.43a1.24,1.24,0,0,0,1.16-.87l5.48-17.46a1.26,1.26,0,0,0-.45-1.39l-12.26-9.06a66.32,66.32,0,0,0-1.9-21.45l10.48-11.08a1.24,1.24,0,0,0,.2-1.44Z" transform="translate(-80.81 -34.08)" fill="url(#linear-gradient-57)"/><path d="M276.94,390.13a17.75,17.75,0,1,1,15.15-8.45A17.63,17.63,0,0,1,276.94,390.13Zm.06-32.5a14.75,14.75,0,1,0,12.53,22.48h0A14.75,14.75,0,0,0,277,357.63Z" transform="translate(-80.81 -34.08)" fill="#fff"/><path d="M276.59,418.19A44.61,44.61,0,0,1,272,418a45.24,45.24,0,0,1-9.05-1.87,45.66,45.66,0,1,1,47.8-73.92l-2.24,2a42.67,42.67,0,1,0,8.82,41.15c.26-.83.5-1.67.71-2.51a44,44,0,0,0,.87-4.55s0-.06,0-.1c0-.2,0-.41.08-.62l.12-1.13,3,.28a45.38,45.38,0,0,1-1.92,9.53h0A45.73,45.73,0,0,1,276.59,418.19Z" transform="translate(-80.81 -34.08)" fill="#fff"/><path d="M432.79,412.09a1,1,0,0,1-.63-.23c-1-.83-2.06-1.63-3.12-2.39a1,1,0,0,1-.24-1.39,1,1,0,0,1,1.4-.24c1.1.78,2.19,1.62,3.23,2.48a1,1,0,0,1,.13,1.41A1,1,0,0,1,432.79,412.09Z" transform="translate(-80.81 -34.08)" fill="#eac4f9"/><path d="M344.46,447h-.13a1,1,0,0,1-.86-1.12,55.94,55.94,0,0,1,1.78-8.47,1,1,0,0,1,1.25-.68,1,1,0,0,1,.67,1.24,54.57,54.57,0,0,0-1.72,8.16A1,1,0,0,1,344.46,447Zm7.27-21a1,1,0,0,1-.51-.14,1,1,0,0,1-.34-1.37,53.65,53.65,0,0,1,5-7.05,1,1,0,0,1,1.4-.13,1,1,0,0,1,.13,1.41,54.07,54.07,0,0,0-4.84,6.8A1,1,0,0,1,351.73,426Zm15.06-16.27a1,1,0,0,1-.58-1.82,55.55,55.55,0,0,1,7.42-4.44,1,1,0,1,1,.9,1.79,52.37,52.37,0,0,0-7.16,4.29A1,1,0,0,1,366.79,409.72Zm50.65-6.54a1,1,0,0,1-.35-.06c-.43-.16-.85-.32-1.29-.47a53.21,53.21,0,0,0-6.72-1.87,1,1,0,0,1-.78-1.18,1,1,0,0,1,1.19-.78,55.54,55.54,0,0,1,7,1.95c.45.15.89.31,1.33.48a1,1,0,0,1,.59,1.29A1,1,0,0,1,417.44,403.18Zm-30.34-2.36a1,1,0,0,1-.2-2,55.2,55.2,0,0,1,8.58-1.11,1,1,0,1,1,.1,2,52.45,52.45,0,0,0-8.27,1.08Z" transform="translate(-80.81 -34.08)" fill="#eac4f9"/><path d="M345.11,464.73a1,1,0,0,1-1-.8c-.27-1.32-.5-2.67-.67-4a1,1,0,0,1,2-.26c.17,1.29.39,2.6.65,3.87a1,1,0,0,1-.78,1.18Z" transform="translate(-80.81 -34.08)" fill="#eac4f9"/><path d="M370.71,500.61a1.06,1.06,0,0,1-.51-.14c-1.16-.69-2.32-1.43-3.43-2.19a1,1,0,0,1,1.14-1.65c1.07.74,2.18,1.45,3.31,2.11a1,1,0,0,1,.35,1.37A1,1,0,0,1,370.71,500.61Z" transform="translate(-80.81 -34.08)" fill="#eac4f9"/><path d="M404.92,507.7a1,1,0,0,1-.12-2,53.81,53.81,0,0,0,8-1.64,1,1,0,0,1,.55,1.92,56.59,56.59,0,0,1-8.34,1.71Zm-13.56,0h-.13a55.29,55.29,0,0,1-8.33-1.74,1,1,0,1,1,.55-1.92,52.91,52.91,0,0,0,8,1.67,1,1,0,0,1,.86,1.12A1,1,0,0,1,391.36,507.68Zm34.23-7a1,1,0,0,1-.51-1.86,54,54,0,0,0,6.75-4.67,1,1,0,0,1,1.26,1.56,56.22,56.22,0,0,1-7,4.84A1,1,0,0,1,425.59,500.7Zm16.24-14.55a1,1,0,0,1-.6-.2,1,1,0,0,1-.21-1.39,53.37,53.37,0,0,0,4.36-7,1,1,0,0,1,1.35-.42,1,1,0,0,1,.42,1.35,56.7,56.7,0,0,1-4.52,7.22A1,1,0,0,1,441.83,486.15ZM451,466.36a1,1,0,0,1-.24,0,1,1,0,0,1-.74-1.2,53,53,0,0,0,1.28-8.11,1,1,0,1,1,2,.16,54.49,54.49,0,0,1-1.32,8.41A1,1,0,0,1,451,466.36Z" transform="translate(-80.81 -34.08)" fill="#eac4f9"/><path d="M451.65,444.5a1,1,0,0,1-1-.82c-.22-1.29-.5-2.58-.82-3.84a1,1,0,0,1,.72-1.21,1,1,0,0,1,1.22.72c.33,1.3.62,2.64.85,4a1,1,0,0,1-.81,1.16Z" transform="translate(-80.81 -34.08)" fill="#eac4f9"/><path d="M432.61,429.24a.64.64,0,0,0-.67-.34l-7.83,1.18a34.4,34.4,0,0,0-8.57-7.18l-.22-7.91a.66.66,0,0,0-.45-.61l-9.07-2.84a.63.63,0,0,0-.71.23l-4.71,6.36a34.51,34.51,0,0,0-11.13,1l-5.75-5.44a.65.65,0,0,0-.75-.1L374.33,418a.65.65,0,0,0-.35.67l1.18,7.84A34.35,34.35,0,0,0,368,435l-7.91.22a.66.66,0,0,0-.61.46l-2.84,9.06a.65.65,0,0,0,.23.72l6.36,4.7a34.57,34.57,0,0,0,1,11.14l-5.44,5.75a.65.65,0,0,0-.1.75l4.39,8.42a.64.64,0,0,0,.67.34l7.84-1.17a34.57,34.57,0,0,0,8.56,7.18l.22,7.91a.64.64,0,0,0,.46.6l9.06,2.85a.66.66,0,0,0,.72-.24l4.7-6.36a34.57,34.57,0,0,0,11.14-1l5.75,5.44a.64.64,0,0,0,.75.11l8.42-4.4a.63.63,0,0,0,.34-.67L420.51,479a34.62,34.62,0,0,0,7.18-8.57l7.91-.22a.63.63,0,0,0,.6-.45l2.85-9.07a.64.64,0,0,0-.24-.71l-6.36-4.71a34.51,34.51,0,0,0-1-11.13l5.44-5.75a.64.64,0,0,0,.11-.75Z" transform="translate(-80.81 -34.08)" fill="url(#linear-gradient-58)"/><path d="M397.81,462.69a9.95,9.95,0,1,1,8.48-4.73h0a9.89,9.89,0,0,1-6.16,4.46A10.14,10.14,0,0,1,397.81,462.69Zm0-16.87a6.93,6.93,0,1,0,3.63,1A6.91,6.91,0,0,0,397.84,445.82Z" transform="translate(-80.81 -34.08)" fill="#fff"/><path d="M397.63,477.26c-.82,0-1.65-.05-2.48-.13h0a24.9,24.9,0,0,1-4.82-1,24.46,24.46,0,0,1-17.1-23.31A24.43,24.43,0,0,1,405,429.53a24.41,24.41,0,0,1,10.92,7.06l-2.24,2a21.43,21.43,0,1,0,4.43,20.66h0A21.21,21.21,0,0,0,419,455a1.94,1.94,0,0,0,0-.24l3,.28a24.69,24.69,0,0,1-1,5.09c-.05.13-.09.27-.13.4A24.48,24.48,0,0,1,397.63,477.26Z" transform="translate(-80.81 -34.08)" fill="#fff"/><path d="M1009.68,374.26a.66.66,0,0,0-.67-.34l-7.84,1.17a34.32,34.32,0,0,0-8.56-7.17l-.22-7.92a.65.65,0,0,0-.46-.6l-9.06-2.85a.66.66,0,0,0-.72.24l-4.7,6.36a34.57,34.57,0,0,0-11.14,1l-5.75-5.44a.65.65,0,0,0-.75-.11l-8.42,4.4a.64.64,0,0,0-.34.67l1.17,7.83a34.62,34.62,0,0,0-7.18,8.57l-7.91.22a.65.65,0,0,0-.6.45l-2.85,9.07a.65.65,0,0,0,.23.71l6.37,4.71a34.49,34.49,0,0,0,1,11.13l-5.45,5.76a.64.64,0,0,0-.1.74l4.4,8.43a.64.64,0,0,0,.67.34l7.83-1.18a34.22,34.22,0,0,0,8.57,7.18l.22,7.92a.65.65,0,0,0,.45.6l9.06,2.85a.65.65,0,0,0,.72-.24l4.71-6.36a34.51,34.51,0,0,0,11.13-1l5.75,5.44a.67.67,0,0,0,.75.11l8.42-4.4a.65.65,0,0,0,.35-.67l-1.18-7.83a34.8,34.8,0,0,0,7.18-8.57l7.91-.22a.66.66,0,0,0,.61-.46l2.84-9.06a.65.65,0,0,0-.23-.72l-6.36-4.7a34.77,34.77,0,0,0-1-11.13l5.44-5.76a.65.65,0,0,0,.1-.75Z" transform="translate(-80.81 -34.08)" fill="url(#linear-gradient-59)"/><path d="M974.88,407.71a9.94,9.94,0,0,1-8.44-15.15,10,10,0,0,1,13.67-3.25A9.95,9.95,0,0,1,983.36,403h0a9.84,9.84,0,0,1-6.16,4.45A9.68,9.68,0,0,1,974.88,407.71Zm0-16.87a6.93,6.93,0,1,0,1.59,13.68,6.93,6.93,0,0,0-1.59-13.68Z" transform="translate(-80.81 -34.08)" fill="#fff"/><path d="M974.7,422.27c-.83,0-1.65,0-2.48-.12h0a24.2,24.2,0,0,1-4.81-1A24.42,24.42,0,1,1,993,381.61l-2.24,2a21.43,21.43,0,1,0,4.43,20.67h0A22.1,22.1,0,0,0,996,400c0-.08,0-.16,0-.24l3,.27a24.81,24.81,0,0,1-1,5.1c0,.13-.08.26-.13.39A24.46,24.46,0,0,1,974.7,422.27Z" transform="translate(-80.81 -34.08)" fill="#fff"/><path d="M179.59,763.75c-5,.43-13.64,1.13-20.46,1.43-4.1.18-6.46-.22-7.82-.77,0,.16,0,.3,0,.44a1.42,1.42,0,0,0,1.34,1.33,240.31,240.31,0,0,0,26.79,0,1,1,0,0,0,.82-1.51A9.8,9.8,0,0,0,179.59,763.75Z" transform="translate(-80.81 -34.08)" fill="url(#linear-gradient-60)"/><path d="M159.13,765.5c6.82-.3,15.47-1,20.46-1.43-4.91-6-20.46-10.07-20.46-10.07h-4.39a18.4,18.4,0,0,0-3.43,10.73C152.67,765.28,155,765.68,159.13,765.5Z" transform="translate(-80.81 -34.08)" fill="url(#linear-gradient-61)"/><path d="M154,747l.41,8.14a1.84,1.84,0,0,0,1.58,1.74,7.28,7.28,0,0,0,3.34-.28,2.19,2.19,0,0,0,1.44-1.68l1.42-7.92Z" transform="translate(-80.81 -34.08)" fill="url(#linear-gradient-62)"/><path d="M96.93,765.12a4,4,0,0,1-3.55-2.63v0a2.82,2.82,0,0,0,1.9,3.2,12.47,12.47,0,0,0,5.24.82,5.24,5.24,0,0,0,3.93-1.81v0C102.82,765.53,100.54,765.62,96.93,765.12Z" transform="translate(-80.81 -34.08)" fill="url(#linear-gradient-63)"/><path d="M107.12,746H103.5c-5.52-.11-9,11.53-10.12,16a3.94,3.94,0,0,0,3.55,2.63c3.61.5,5.89.41,7.52-.4,3-3.92,4.46-9.67,5.17-13A4.57,4.57,0,0,0,107.12,746Z" transform="translate(-80.81 -34.08)" fill="url(#linear-gradient-64)"/><path d="M104,738.91l-2,8a2.16,2.16,0,0,0,1.13,2.46,7.63,7.63,0,0,0,4.16,1,1.8,1.8,0,0,0,1.48-1.21l3-8.42Z" transform="translate(-80.81 -34.08)" fill="url(#linear-gradient-65)"/><path d="M101.57,741.22c2.5,2.22,10.64,2.51,10.64,2.51,29.33-70.38,41.33-80.38,41.33-80.38-4.24,26.56-.69,85.38-.69,85.38,4.84,2.14,11.08,0,11.08,0a453.16,453.16,0,0,1,15-111.33c-19.82-.44-30.36-7.23-33.81-9.95C128.58,654.09,101.57,741.22,101.57,741.22Z" transform="translate(-80.81 -34.08)" fill="url(#linear-gradient-66)"/><path d="M150.14,546.5c-3.75,18.72-2.41,52.21-1.53,67.49.25,4.29-2.75,10.25-5.17,14.31a1.27,1.27,0,0,0,.52,1.79c4,2.08,17.79,8.55,33.72,9.35a2.29,2.29,0,0,0,2.29-1.7c11.81-44.11,25.53-72.3,25.53-72.3C190.35,541.25,150.14,546.5,150.14,546.5Z" transform="translate(-80.81 -34.08)" fill="url(#linear-gradient-67)"/><path d="M155.54,661.68a.87.87,0,0,1-.49-.14.94.94,0,0,1-.31-1.29,29.37,29.37,0,0,1,11.62-10.09.94.94,0,1,1,.82,1.69,28.05,28.05,0,0,0-10.84,9.38A1,1,0,0,1,155.54,661.68Z" transform="translate(-80.81 -34.08)" fill="url(#linear-gradient-68)"/><path d="M126.6,600.21c1.21,8.72,4.77,18.23,11.89,28.33l2.71-2.21a83.47,83.47,0,0,1-1.35-27.07C135.46,598.4,130.27,599.29,126.6,600.21Z" transform="translate(-80.81 -34.08)" fill="url(#linear-gradient-69)"/><path d="M154.33,569.59l-4.19-23.09s-28,21.41-23.54,53.71c3.67-.92,8.86-1.81,13.25-1C141.13,588.89,145,577.64,154.33,569.59Z" transform="translate(-80.81 -34.08)" fill="url(#linear-gradient-70)"/><path d="M205.5,565.44l-10.8,23.28c1.74,14,9.29,20.12,17.43,22.45A49.53,49.53,0,0,1,215.76,596C205.36,585.28,205.5,565.44,205.5,565.44Z" transform="translate(-80.81 -34.08)" fill="url(#linear-gradient-71)"/><path d="M215.76,596a49.53,49.53,0,0,0-3.63,15.15c21.72,8.43,27.46-7.91,27.46-7.91l-4-.71C226.52,603.51,220.19,600.58,215.76,596Z" transform="translate(-80.81 -34.08)" fill="url(#linear-gradient-72)"/><path d="M195.55,536.71l-5.22,19.18a3.73,3.73,0,0,1-5,2.48,76.28,76.28,0,0,1-7.52-3.44,5,5,0,0,1-1.77-7.22l10.84-16.18Z" transform="translate(-80.81 -34.08)" fill="url(#linear-gradient-73)"/><path d="M249.55,590.42l-133.7,48.66A10.24,10.24,0,0,0,110,652.94l.41.89a9.52,9.52,0,0,0,12.66,4.7l129.81-60Z" transform="translate(-80.81 -34.08)" fill="url(#linear-gradient-74)"/><ellipse cx="230.19" cy="526.92" rx="66" ry="65" opacity="0.5" fill="url(#linear-gradient-75)"/><path d="M311,489c-40.56,0-73.44,32.29-73.44,72.11s32.88,72.12,73.44,72.12,73.44-32.29,73.44-72.12S351.56,489,311,489Zm0,133.63c-34.6,0-62.65-27.54-62.65-61.52s28-61.52,62.65-61.52,62.65,27.55,62.65,61.52S345.6,622.67,311,622.67Z" transform="translate(-80.81 -34.08)" fill="url(#linear-gradient-76)"/><path d="M243.14,570.1a.51.51,0,0,1-.5-.44c-.21-1.71-.37-3.45-.45-5.17a.5.5,0,0,1,.47-.53.48.48,0,0,1,.53.48c.09,1.7.24,3.41.45,5.09a.49.49,0,0,1-.43.56Zm.51-20.17h-.09a.51.51,0,0,1-.41-.59,66.71,66.71,0,0,1,4-13.56C257.7,510.09,282.78,493.5,311,493.5a69.53,69.53,0,0,1,37,10.57.5.5,0,0,1-.53.85A68.66,68.66,0,0,0,311,494.5c-27.81,0-52.52,16.35-62.95,41.66h0a65.56,65.56,0,0,0-3.9,13.36A.49.49,0,0,1,243.65,549.93Z" transform="translate(-80.81 -34.08)" fill="#fff"/><path d="M207,522.13c0,.33-4.35,21.89-4.35,21.89l-12.26-2.77,1.14-21.06S206.17,516.62,207,522.13Z" transform="translate(-80.81 -34.08)" fill="url(#linear-gradient-77)"/><path d="M194.24,524.89l-1.46,11a1.48,1.48,0,0,0,0,.42c.12.87.77,3.81,3.74,3,2.7-.76,5.17-1.42,6.88-.9a1.56,1.56,0,0,1,1.07,1.8,66.79,66.79,0,0,1-2.82,10,1.55,1.55,0,0,1-1.88.91A49.52,49.52,0,0,1,189,546.75a1.56,1.56,0,0,1-.76-1.4c.12-2.78.45-11.25.17-13.63-.25-2.22-3-3.56-4.18-4a1.51,1.51,0,0,1-.85-.85c-.55-1.38-1.31-4.57,2.71-5.88a1.55,1.55,0,0,0,1-2c-.59-1.66-.85-4.19,2.26-5.58a5.69,5.69,0,0,1,6.8,1.64,1.56,1.56,0,0,0,2,.23,1.22,1.22,0,0,1,1.4,0,1.53,1.53,0,0,0,2.17-.66,4.65,4.65,0,0,1,5.4-2.69c5.49.94,6.11,7,4.66,10.59s-7.34,2.21-10.3.41c-2.25-1.36-5.17.07-6.44.84A1.56,1.56,0,0,0,194.24,524.89Z" transform="translate(-80.81 -34.08)" fill="url(#linear-gradient-78)"/><path d="M187.88,535.75s2.26-6.32-.06-7.87-5.76-.75-5,3.83C183.76,537.41,187.88,535.75,187.88,535.75Z" transform="translate(-80.81 -34.08)" fill="url(#linear-gradient-79)"/><path d="M140.08,626l12.64-1,5.48,5s-1.3,1.79-5.35.77a58.3,58.3,0,0,0-9.59-1.29s-5.59,2.52-5.66-2.19Z" transform="translate(-80.81 -34.08)" fill="url(#linear-gradient-80)"/><path d="M238,606.25c1.1.85,4.84-.93,7.13-2.16a2.64,2.64,0,0,0,1.28-3.12c-.55-1.74-1.47-4-2.61-4.26C241.91,596.24,233.48,602.73,238,606.25Z" transform="translate(-80.81 -34.08)" fill="url(#linear-gradient-81)"/><path d="M118.49,656.67a.51.51,0,0,1-.17,0c-5.22-1.81-6.44-4.89-6.54-7.17a8,8,0,0,1,5.2-7.67l16-6.26a.5.5,0,0,1,.36.94l-16,6.26a6.94,6.94,0,0,0-4.55,6.69c.12,2.85,2.09,5,5.86,6.26a.5.5,0,0,1-.16,1Z" transform="translate(-80.81 -34.08)" fill="#fff"/><path d="M138.16,634.58a.5.5,0,0,1-.19-1l2.08-.81a.52.52,0,0,1,.66.29.51.51,0,0,1-.29.65l-2.08.81A.57.57,0,0,1,138.16,634.58Z" transform="translate(-80.81 -34.08)" fill="#fff"/><path d="M794.38,503h0a2.22,2.22,0,0,1-2.37-2.13v-.27a16.81,16.81,0,0,0,.08-2.65,2.26,2.26,0,1,1,4.52-.13,8.11,8.11,0,0,0,.4,2.78v.3A2.61,2.61,0,0,1,794.38,503Zm-.48-9.84a2.27,2.27,0,0,1-2.25-2c-.09-1-.2-1.95-.33-2.92a2.26,2.26,0,0,1,4.49-.58c.13,1,.24,2,.34,3.06a2.26,2.26,0,0,1-2,2.47Zm-1.46-9.9a2.25,2.25,0,0,1-2.21-1.82c-.19-1-.4-1.92-.62-2.87a2.27,2.27,0,0,1,4.42-1c.22,1,.43,2,.63,3a2.26,2.26,0,0,1-1.78,2.66A2.18,2.18,0,0,1,792.44,483.26Zm-2.4-9.7a2.26,2.26,0,0,1-2.16-1.62c-.28-.94-.57-1.87-.88-2.8a2.26,2.26,0,1,1,4.3-1.4c.32,1,.62,1.94.91,2.91a2.26,2.26,0,0,1-1.52,2.82A2.37,2.37,0,0,1,790,473.56Zm-3.27-9.44a2.25,2.25,0,0,1-2.1-1.43c-.36-.91-.73-1.81-1.12-2.71a2.26,2.26,0,0,1,4.16-1.78q.6,1.41,1.17,2.82a2.27,2.27,0,0,1-2.11,3.1ZM782.7,455a2.28,2.28,0,0,1-2-1.25c-.44-.88-.89-1.75-1.34-2.62a2.26,2.26,0,1,1,4-2.11c.48.9.94,1.8,1.4,2.71a2.26,2.26,0,0,1-1,3A2.13,2.13,0,0,1,782.7,455Zm-4.82-8.75a2.28,2.28,0,0,1-1.94-1.09c-.5-.84-1-1.68-1.54-2.51a2.26,2.26,0,1,1,3.81-2.42c.55.86,1.08,1.72,1.61,2.59a2.26,2.26,0,0,1-1.94,3.43Zm-5.48-8.35a2.26,2.26,0,0,1-1.84-.95c-.57-.8-1.15-1.6-1.73-2.38a2.26,2.26,0,1,1,3.62-2.71c.61.82,1.21,1.64,1.8,2.47a2.27,2.27,0,0,1-1.85,3.57ZM766.32,430a2.24,2.24,0,0,1-1.74-.82c-.63-.76-1.26-1.51-1.9-2.25a2.26,2.26,0,0,1,3.42-3c.67.77,1.32,1.55,2,2.33a2.27,2.27,0,0,1-.31,3.18A2.24,2.24,0,0,1,766.32,430Zm-6.62-7.48a2.27,2.27,0,0,1-1.65-.7c-.67-.72-1.36-1.42-2-2.12a2.26,2.26,0,0,1,3.22-3.18c.71.72,1.42,1.45,2.12,2.18a2.26,2.26,0,0,1-.09,3.2A2.24,2.24,0,0,1,759.7,422.49Zm-7.13-7a2.28,2.28,0,0,1-1.53-.6q-1.08-1-2.19-2a2.26,2.26,0,1,1,3-3.39l2.25,2a2.26,2.26,0,0,1-1.53,3.93ZM745,409a2.24,2.24,0,0,1-1.42-.5l-2.32-1.84A2.26,2.26,0,0,1,744,403c.8.62,1.6,1.25,2.39,1.89a2.26,2.26,0,0,1-1.42,4Zm-8-6a2.26,2.26,0,0,1-1.3-.42l-2.43-1.68a2.26,2.26,0,1,1,2.53-3.74c.84.57,1.68,1.14,2.51,1.73a2.26,2.26,0,0,1-1.31,4.11Zm-8.36-5.5a2.16,2.16,0,0,1-1.17-.33l-2.54-1.52a2.26,2.26,0,0,1,2.28-3.9c.88.51,1.75,1,2.62,1.56a2.26,2.26,0,0,1,.74,3.11A2.23,2.23,0,0,1,728.65,397.43ZM720,392.5a2.36,2.36,0,0,1-1.05-.26c-.87-.46-1.75-.91-2.63-1.35a2.26,2.26,0,0,1,2-4.05l2.71,1.39a2.27,2.27,0,0,1-1,4.27Zm-9-4.36a2.36,2.36,0,0,1-.93-.2c-.9-.41-1.8-.8-2.71-1.19a2.26,2.26,0,0,1,1.78-4.16l2.78,1.22a2.26,2.26,0,0,1-.92,4.33ZM423.06,386a2.33,2.33,0,0,0-1.8-.58,2.25,2.25,0,0,1-2.25-2.27c0-1.25,2.26-3.15,2.26-3.15h0l1.78,1h1.21s2.25.91,2.26,2.16-2.25,2.84-2.25,2.84Zm8.21-1a2.27,2.27,0,0,1-2.21-2.79,2.33,2.33,0,0,1,2.26-1.73l2.87-.08a2.26,2.26,0,0,1,2.29,2.75,2.33,2.33,0,0,1-2.24,1.77l-2.92.08Zm-17,0h-.07l-3-.11a2.26,2.26,0,0,1,.19-4.52l3,.11a2.26,2.26,0,0,1-.07,4.52Zm27,0a2.26,2.26,0,0,1-.11-4.52l3-.15a2.26,2.26,0,1,1,.23,4.51c-1,.06-2,.11-3,.15Zm-37-.18h-.16l-3-.23a2.26,2.26,0,1,1,.38-4.51l3,.23a2.26,2.26,0,0,1-.16,4.52Zm46.95-.39a2.26,2.26,0,0,1-.15-4.52l3-.21a2.26,2.26,0,0,1,.33,4.51l-3,.21Zm250.47-.1a2.32,2.32,0,0,1-.81-.15l-2.77-1a2.26,2.26,0,1,1,1.55-4.25c1,.35,1.9.7,2.84,1.07a2.26,2.26,0,0,1-.81,4.37Zm-307.38-.44h-.26l-3-.37a2.26,2.26,0,0,1,.58-4.49c1,.13,2,.25,2.95.36a2.26,2.26,0,0,1-.26,4.51Zm66.88-.22a2.26,2.26,0,0,1-.19-4.51l3-.26a2.26,2.26,0,0,1,.4,4.51l-3,.26Zm10-.91a2.26,2.26,0,0,1-.22-4.51l3-.3a2.26,2.26,0,0,1,.46,4.5l-3,.3Zm-86.74-.26a2.43,2.43,0,0,1-.38,0c-1-.17-2-.34-3-.53a2.26,2.26,0,1,1,.81-4.44c1,.18,1.95.35,2.93.51a2.26,2.26,0,0,1-.37,4.49Zm96.68-.77a2.26,2.26,0,0,1-.24-4.51l3-.33a2.26,2.26,0,1,1,.5,4.49l-3,.33ZM692.29,381a2.13,2.13,0,0,1-.7-.11c-.94-.31-1.88-.6-2.83-.9a2.26,2.26,0,1,1,1.34-4.32l2.89.92a2.26,2.26,0,0,1-.7,4.41Zm-201.24-.4a2.26,2.26,0,0,1-.26-4.51l3-.35a2.26,2.26,0,1,1,.54,4.49l-3,.35A1.23,1.23,0,0,1,491.05,380.56Zm-116.44,0a2.12,2.12,0,0,1-.5-.05c-1-.22-2-.46-3-.7a2.26,2.26,0,1,1,1.08-4.39l2.88.68a2.26,2.26,0,0,1-.49,4.46ZM501,379.35a2.26,2.26,0,0,1-.28-4.5l3-.37a2.26,2.26,0,0,1,.56,4.48l-3,.38Zm181.73-1.25a2.06,2.06,0,0,1-.6-.08l-2.86-.76a2.26,2.26,0,1,1,1.12-4.38c1,.25,2,.51,2.93.78a2.26,2.26,0,0,1-.59,4.44Zm-171.81,0a2.26,2.26,0,0,1-.28-4.5l3-.38a2.26,2.26,0,0,1,.58,4.48l-3,.38A1.42,1.42,0,0,1,510.9,378.1Zm-146-.05a2.35,2.35,0,0,1-.64-.09c-1-.29-1.95-.58-2.92-.89a2.26,2.26,0,0,1,1.36-4.31c.94.3,1.89.58,2.83.86a2.26,2.26,0,0,1-.63,4.43Zm155.9-1.21a2.26,2.26,0,0,1-.28-4.51l3-.38a2.26,2.26,0,0,1,.56,4.49l-3,.38ZM673,375.7a2.72,2.72,0,0,1-.49-.05c-1-.22-1.93-.43-2.9-.63a2.26,2.26,0,0,1,.92-4.43l3,.64a2.26,2.26,0,0,1-.49,4.47Zm-142.26-.12a2.26,2.26,0,0,1-.28-4.5l3-.37a2.26,2.26,0,1,1,.56,4.49l-3,.36A1.42,1.42,0,0,1,530.74,375.58Zm-175.32-.68a2.44,2.44,0,0,1-.79-.14l-2.85-1.11a2.26,2.26,0,1,1,1.68-4.2c.91.37,1.83.72,2.76,1.07a2.26,2.26,0,0,1-.8,4.38Zm185.25-.53a2.26,2.26,0,0,1-.27-4.51l3-.35a2.26,2.26,0,1,1,.52,4.49l-3,.35Zm122.53-.64-.4,0c-1-.18-1.95-.34-2.93-.51a2.26,2.26,0,1,1,.74-4.46l3,.52a2.26,2.26,0,0,1-.4,4.48Zm-112.6-.51a2.26,2.26,0,0,1-.25-4.5l3-.33a2.26,2.26,0,1,1,.49,4.49l-3,.33Zm9.95-1.05a2.26,2.26,0,0,1-.23-4.51l3-.29a2.26,2.26,0,1,1,.43,4.5l-3,.29Zm92.78,0-.31,0-2.95-.39a2.26,2.26,0,0,1,.57-4.49l3,.4a2.26,2.26,0,0,1-.3,4.5Zm-82.83-.92a2.26,2.26,0,0,1-.19-4.52l3-.25a2.26,2.26,0,0,1,.37,4.51l-3,.25ZM346.2,371a2.21,2.21,0,0,1-1-.22c-.92-.43-1.84-.87-2.75-1.33a2.26,2.26,0,1,1,2-4c.88.44,1.76.86,2.65,1.28a2.26,2.26,0,0,1-1,4.31Zm297.2,0h-.23l-3-.29a2.26,2.26,0,0,1,.4-4.5l3,.29a2.26,2.26,0,0,1-.22,4.51Zm-62.93-.51a2.26,2.26,0,0,1-.15-4.52l3-.19a2.26,2.26,0,1,1,.28,4.51l-3,.2Zm53-.33h-.16l-3-.19a2.26,2.26,0,1,1,.26-4.51l3,.19a2.26,2.26,0,0,1-.15,4.51Zm-43-.25a2.26,2.26,0,0,1-.11-4.52l3-.13a2.26,2.26,0,1,1,.19,4.52l-3,.13Zm33,.1h-.08l-3-.1a2.26,2.26,0,0,1,.12-4.52l3,.1a2.26,2.26,0,0,1-.08,4.52Zm-23.13,0c-2.09,0-3.59-2.59-1.37-4.78a.38.38,0,0,1,.28-.12l4.31-.1h1.05a.43.43,0,0,1,.27.1c2.61,2.37.49,5.45-2,4.74a2.75,2.75,0,0,0-2.2.1A.6.6,0,0,1,600.32,370Zm15.2-2.31a2.21,2.21,0,0,1-2.07,1.31h-2.89a2.34,2.34,0,0,1-2.29-1.7,2.26,2.26,0,0,1,2.18-2.82h3A2.28,2.28,0,0,1,615.52,367.69Zm-278.18-1.31a2.2,2.2,0,0,1-1.13-.3c-.89-.52-1.76-1.05-2.63-1.59a2.26,2.26,0,0,1,2.4-3.84c.83.52,1.66,1,2.51,1.52a2.26,2.26,0,0,1-1.15,4.21ZM329,360.93a2.18,2.18,0,0,1-1.32-.44c-.83-.6-1.65-1.21-2.45-1.84a2.26,2.26,0,1,1,2.77-3.57c.77.6,1.55,1.18,2.34,1.75a2.27,2.27,0,0,1-1.34,4.1Zm-7.76-6.29a2.24,2.24,0,0,1-1.51-.58q-1.14-1-2.25-2.1a2.26,2.26,0,1,1,3.14-3.25c.7.67,1.42,1.34,2.14,2a2.25,2.25,0,0,1,.16,3.19A2.23,2.23,0,0,1,321.21,354.64Zm-7-7.1a2.24,2.24,0,0,1-1.7-.76c-.68-.77-1.35-1.56-2-2.35a2.26,2.26,0,0,1,3.5-2.87q.91,1.13,1.89,2.22a2.26,2.26,0,0,1-.2,3.2A2.23,2.23,0,0,1,314.18,347.54ZM308,339.66a2.26,2.26,0,0,1-1.87-1c-.58-.84-1.15-1.7-1.7-2.57a2.26,2.26,0,0,1,3.82-2.42c.52.82,1.06,1.63,1.61,2.43a2.26,2.26,0,0,1-1.86,3.54Zm-5.17-8.55a2.25,2.25,0,0,1-2-1.21c-.48-.91-.94-1.83-1.39-2.75a2.26,2.26,0,1,1,4.07-2q.65,1.32,1.32,2.61a2.27,2.27,0,0,1-.95,3.06A2.3,2.3,0,0,1,302.86,331.11Zm-4.15-9.1a2.24,2.24,0,0,1-2.1-1.43c-.38-1-.73-1.92-1.08-2.89a2.26,2.26,0,0,1,4.27-1.5c.32.92.66,1.83,1,2.74a2.27,2.27,0,0,1-1.29,2.93A2.33,2.33,0,0,1,298.71,322Zm-3.13-9.49a2.25,2.25,0,0,1-2.18-1.66c-.27-1-.52-2-.76-3a2.26,2.26,0,0,1,4.4-1.05c.22.95.47,1.9.72,2.84a2.25,2.25,0,0,1-1.59,2.77A2,2,0,0,1,295.58,312.52Zm-2.13-9.76a2.25,2.25,0,0,1-2.23-1.89c-.17-1-.32-2-.46-3a2.26,2.26,0,1,1,4.48-.61c.13,1,.28,1.93.44,2.9a2.27,2.27,0,0,1-1.86,2.6Zm-1.16-9.93a2.27,2.27,0,0,1-2.26-2.1c-.07-1-.12-2-.16-3.06a2.26,2.26,0,0,1,4.52-.18c0,1,.09,1.95.16,2.93a2.27,2.27,0,0,1-2.11,2.41Zm-.21-9.83H292a2.27,2.27,0,0,1-2.21-2.32c0-1.34.09-2.68.18-4a.27.27,0,0,1,.09-.2c2.33-2.27,5-.13,4.22,2.11a2.5,2.5,0,0,0-.05,1.53A2.27,2.27,0,0,1,292.08,283Zm.7-10.13h-.27a2.26,2.26,0,0,1-2-2.51c.12-1,.25-2,.39-3a2.26,2.26,0,0,1,4.48.65c-.14,1-.27,1.94-.38,2.91A2.26,2.26,0,0,1,292.78,272.87Zm1.59-9.87a1.8,1.8,0,0,1-.46-.05,2.25,2.25,0,0,1-1.75-2.67c.2-1,.43-2,.66-3a2.26,2.26,0,1,1,4.4,1c-.22,1-.44,1.91-.64,2.87A2.25,2.25,0,0,1,294.37,263Zm2.47-9.68a2.1,2.1,0,0,1-.65-.1,2.26,2.26,0,0,1-1.51-2.82c.29-1,.6-2,.93-2.92a2.26,2.26,0,1,1,4.29,1.43c-.31.93-.61,1.86-.89,2.8A2.27,2.27,0,0,1,296.84,253.32Zm3.34-9.43a2.33,2.33,0,0,1-.85-.16,2.26,2.26,0,0,1-1.24-2.95c.38-.95.78-1.89,1.19-2.82a2.26,2.26,0,1,1,4.14,1.82c-.39.89-.78,1.8-1.15,2.7A2.25,2.25,0,0,1,300.18,243.89Zm4.19-9.07a2.17,2.17,0,0,1-1-.26,2.25,2.25,0,0,1-1-3.05c.47-.9,1-1.8,1.45-2.7a2.26,2.26,0,1,1,3.95,2.21c-.47.85-.94,1.71-1.39,2.58A2.25,2.25,0,0,1,304.37,234.82Zm5-8.63a2.27,2.27,0,0,1-1.89-3.5q.84-1.29,1.71-2.55a2.27,2.27,0,0,1,3.72,2.59c-.56.8-1.11,1.61-1.64,2.43A2.27,2.27,0,0,1,309.41,226.19Zm5.88-8.09a2.27,2.27,0,0,1-1.76-3.69c.64-.79,1.3-1.58,2-2.35a2.26,2.26,0,1,1,3.43,2.95c-.64.74-1.26,1.49-1.87,2.25A2.27,2.27,0,0,1,315.29,218.1Zm6.65-7.46a2.27,2.27,0,0,1-1.61-3.85c.71-.73,1.44-1.45,2.17-2.16a2.26,2.26,0,0,1,3.14,3.26c-.7.68-1.4,1.37-2.08,2.07A2.28,2.28,0,0,1,321.94,210.64Zm7.31-6.82a2.26,2.26,0,0,1-1.47-4c.78-.67,1.57-1.32,2.36-2A2.26,2.26,0,0,1,333,201.4c-.76.61-1.51,1.24-2.26,1.88A2.28,2.28,0,0,1,329.25,203.82Zm7.89-6.15a2.27,2.27,0,0,1-1.32-4.11c.83-.59,1.67-1.17,2.51-1.74a2.26,2.26,0,1,1,2.53,3.75c-.81.55-1.61,1.11-2.41,1.68A2.29,2.29,0,0,1,337.14,197.67Zm8.37-5.46a2.26,2.26,0,0,1-1.16-4.21c.88-.52,1.76-1,2.65-1.52a2.26,2.26,0,1,1,2.21,3.94q-1.27.72-2.55,1.47A2.2,2.2,0,0,1,345.51,192.21Zm8.79-4.76a2.26,2.26,0,0,1-1-4.29c.92-.45,1.83-.88,2.76-1.31A2.26,2.26,0,1,1,358,186l-2.66,1.27A2.21,2.21,0,0,1,354.3,187.45Zm9.14-4a2.26,2.26,0,0,1-.84-4.36c.94-.38,1.89-.75,2.84-1.1a2.26,2.26,0,1,1,1.58,4.24c-.92.34-1.83.69-2.75,1.06A2.22,2.22,0,0,1,363.44,183.4Zm9.41-3.35a2.26,2.26,0,0,1-.68-4.42c1-.31,1.94-.6,2.92-.89a2.26,2.26,0,0,1,1.26,4.34l-2.82.86A2.25,2.25,0,0,1,372.85,180.05Zm9.64-2.66a2.27,2.27,0,0,1-.53-4.47c1-.23,2-.46,3-.67a2.26,2.26,0,1,1,1,4.42l-2.88.65A1.86,1.86,0,0,1,382.49,177.39ZM445,176.27a2.3,2.3,0,0,1-.45-.05l-2.9-.55a2.26,2.26,0,1,1,.79-4.45l3,.57a2.26,2.26,0,0,1-.44,4.48Zm-52.72-.86a2.26,2.26,0,0,1-.36-4.49c1-.17,2-.32,3-.47a2.26,2.26,0,0,1,.64,4.48q-1.45.21-2.91.45A2.43,2.43,0,0,1,392.28,175.41Zm42.85-.76-.29,0c-1-.13-1.95-.24-2.93-.35a2.26,2.26,0,1,1,.48-4.49c1,.1,2,.22,3,.35a2.26,2.26,0,0,1-.28,4.51Zm-32.93-.53a2.26,2.26,0,0,1-.21-4.51c1-.1,2-.19,3-.26a2.26,2.26,0,0,1,.34,4.51c-1,.07-2,.15-2.94.25Zm23-.41H425c-1-.06-2-.11-3-.15a2.26,2.26,0,1,1,.18-4.52c1,0,2,.09,3,.15a2.26,2.26,0,0,1-.13,4.52Zm-13-.13A2.27,2.27,0,0,1,410,170.8a2.35,2.35,0,0,1,2.24-1.75c1,0,2,0,3-.05h0a2.2,2.2,0,0,1,2.06,1.31,2.27,2.27,0,0,1-2,3.21l-3,0Z" transform="translate(-80.81 -34.08)" fill="#fff"/></svg>