<svg xmlns="http://www.w3.org/2000/svg" xmlns:xlink="http://www.w3.org/1999/xlink" viewBox="0 0 1741.71 1487.05"><defs><linearGradient id="Degradado_sin_nombre_2" x1="492.18" y1="2179.07" x2="492.18" y2="1918.77" gradientTransform="matrix(1, 0, 0, -1, -1.43, 2340.36)" gradientUnits="userSpaceOnUse"><stop offset="0" stop-color="#d7e2fd"/><stop offset="1" stop-color="#f1fffd"/></linearGradient><linearGradient id="Degradado_sin_nombre_114" x1="1321.18" y1="2166.3" x2="1366.91" y2="2219.37" gradientTransform="matrix(0.54, 0.84, 0.84, -0.54, -1238.9, 169.8)" gradientUnits="userSpaceOnUse"><stop offset="0" stop-color="#fdf53f"/><stop offset="1" stop-color="#d93c65"/></linearGradient><linearGradient id="Degradado_sin_nombre_114-2" x1="1394.5" y1="2261.55" x2="1259.29" y2="2057.28" gradientTransform="matrix(0.85, 0.53, 0.53, -0.85, -978.26, 1275.36)" xlink:href="#Degradado_sin_nombre_114"/><linearGradient id="Degradado_sin_nombre_114-3" x1="1392.43" y1="2252.3" x2="1320.43" y2="2131.43" gradientTransform="matrix(1, 0, 0, -1, -2.16, 2340.92)" xlink:href="#Degradado_sin_nombre_114"/><linearGradient id="Degradado_sin_nombre_114-4" x1="1388.38" y1="2162.3" x2="1467.98" y2="2254.7" gradientTransform="matrix(0.99, 0.17, 0.17, -0.99, -363.12, 2054.7)" xlink:href="#Degradado_sin_nombre_114"/><linearGradient id="Degradado_sin_nombre_114-5" x1="1510.1" y1="2329.4" x2="1274.72" y2="1973.8" gradientTransform="matrix(0.23, 0.97, 0.97, -0.23, -1075.81, -825.2)" xlink:href="#Degradado_sin_nombre_114"/><linearGradient id="Degradado_sin_nombre_114-6" x1="1504.94" y1="2316.27" x2="1379.6" y2="2105.85" gradientTransform="matrix(1, 0, 0, -1, -2.16, 2340.92)" xlink:href="#Degradado_sin_nombre_114"/><linearGradient id="Degradado_sin_nombre_114-7" x1="1423.81" y1="2034.3" x2="1505.72" y2="2129.37" gradientTransform="matrix(0.23, 0.97, 0.97, -0.23, -915.29, -762.95)" xlink:href="#Degradado_sin_nombre_114"/><linearGradient id="Degradado_sin_nombre_114-8" x1="1560.8" y1="2193.3" x2="1318.59" y2="1827.39" gradientTransform="matrix(0.71, 0.71, 0.71, -0.71, -1064.89, 643.03)" xlink:href="#Degradado_sin_nombre_114"/><linearGradient id="Degradado_sin_nombre_114-9" x1="1546.96" y1="2185.31" x2="1417.99" y2="1968.79" gradientTransform="matrix(1, 0, 0, -1, -2.16, 2340.92)" xlink:href="#Degradado_sin_nombre_114"/><linearGradient id="Degradado_sin_nombre_114-10" x1="1524.46" y1="2163.41" x2="1584.48" y2="2233.06" gradientTransform="matrix(1, 0, 0, -1, 0, 2363.81)" xlink:href="#Degradado_sin_nombre_114"/><linearGradient id="Degradado_sin_nombre_114-11" x1="1627.21" y1="2258.47" x2="1449.74" y2="1990.38" gradientTransform="matrix(0.71, 0.71, 0.71, -0.71, -1100.76, 563.28)" xlink:href="#Degradado_sin_nombre_114"/><linearGradient id="Degradado_sin_nombre_114-12" x1="1615.24" y1="2253.31" x2="1520.74" y2="2094.67" gradientTransform="matrix(1, 0, 0, -1, -2.16, 2340.92)" xlink:href="#Degradado_sin_nombre_114"/><linearGradient id="Degradado_sin_nombre_15" x1="842.54" y1="2246.95" x2="842.54" y2="1684.41" gradientTransform="matrix(1, 0, 0, -1, -2.16, 2340.92)" gradientUnits="userSpaceOnUse"><stop offset="0" stop-color="#e27e5d"/><stop offset="1" stop-color="#f0c75e"/></linearGradient><linearGradient id="Degradado_sin_nombre_73" x1="4538.62" y1="1085.75" x2="4411.17" y2="797.31" gradientTransform="translate(6213.74 2340.92) rotate(180)" gradientUnits="userSpaceOnUse"><stop offset="0" stop-color="#fdf53f"/><stop offset="0.66" stop-color="#e57a58"/><stop offset="1" stop-color="#d93c65"/></linearGradient><linearGradient id="Degradado_sin_nombre_73-2" x1="4643.82" y1="1039.27" x2="4516.37" y2="750.82" xlink:href="#Degradado_sin_nombre_73"/><linearGradient id="Degradado_sin_nombre_73-3" x1="4521.19" y1="916.52" x2="4543.55" y2="1023.85" xlink:href="#Degradado_sin_nombre_73"/><linearGradient id="Degradado_sin_nombre_137" x1="17136.63" y1="396.49" x2="17005.59" y2="360.57" gradientTransform="matrix(-1, -0.05, 0.05, -1, 17741.22, 2388.26)" gradientUnits="userSpaceOnUse"><stop offset="0" stop-color="#2b3582"/><stop offset="1" stop-color="#150e42"/></linearGradient><linearGradient id="Degradado_sin_nombre_138" x1="16923.79" y1="1283.16" x2="16881.6" y2="1219.62" gradientTransform="translate(4910.93 17590.26) rotate(-108.07)" gradientUnits="userSpaceOnUse"><stop offset="0" stop-color="#53d8ff"/><stop offset="1" stop-color="#3840f7"/></linearGradient><linearGradient id="Degradado_sin_nombre_73-4" x1="1144.58" y1="902.89" x2="1174.78" y2="1092.88" gradientTransform="matrix(1, 0, 0, -1, 0, 2363.81)" xlink:href="#Degradado_sin_nombre_73"/><linearGradient id="Degradado_sin_nombre_73-5" x1="1158.83" y1="878.08" x2="1189.03" y2="1068.08" gradientTransform="matrix(1, 0, 0, -1, -2.16, 2340.92)" xlink:href="#Degradado_sin_nombre_73"/><linearGradient id="Degradado_sin_nombre_73-6" x1="1141.84" y1="1036.61" x2="1224.37" y2="1152.16" gradientTransform="matrix(1, 0, 0, -1, 0, 2363.81)" xlink:href="#Degradado_sin_nombre_73"/><linearGradient id="Degradado_sin_nombre_81" x1="21193.46" y1="900.4" x2="21230.66" y2="1134.34" gradientTransform="translate(21635.21 2340.92) rotate(180)" gradientUnits="userSpaceOnUse"><stop offset="0" stop-color="#cb236d"/><stop offset="1" stop-color="#4c246d"/></linearGradient><linearGradient id="Degradado_sin_nombre_81-2" x1="21207.95" y1="898.87" x2="21246.46" y2="1141.11" xlink:href="#Degradado_sin_nombre_81"/><linearGradient id="Degradado_sin_nombre_114-13" x1="17357.66" y1="888.93" x2="17397.19" y2="1137.56" gradientTransform="translate(17809.21 2340.92) rotate(180)" xlink:href="#Degradado_sin_nombre_114"/><linearGradient id="Degradado_sin_nombre_93" x1="1005.14" y1="1000.96" x2="1104.51" y2="1000.96" gradientTransform="matrix(1, 0, 0, -1, -2.16, 2340.92)" gradientUnits="userSpaceOnUse"><stop offset="0" stop-color="#f9b776"/><stop offset="1" stop-color="#f47960"/></linearGradient><linearGradient id="Degradado_sin_nombre_81-3" x1="1065.93" y1="936.22" x2="1051.32" y2="712.13" gradientTransform="matrix(1, 0, 0, -1, -2.16, 2340.92)" xlink:href="#Degradado_sin_nombre_81"/><linearGradient id="Degradado_sin_nombre_93-2" x1="888.47" y1="994.2" x2="1098.15" y2="994.2" xlink:href="#Degradado_sin_nombre_93"/><linearGradient id="Degradado_sin_nombre_81-4" x1="1017.87" y1="1103.56" x2="1252.77" y2="1103.56" gradientTransform="matrix(1, 0, 0, -1, -2.16, 2340.92)" xlink:href="#Degradado_sin_nombre_81"/><linearGradient id="Degradado_sin_nombre_81-5" x1="924.91" y1="945.42" x2="910.29" y2="721.33" gradientTransform="matrix(1, 0, 0, -1, -2.16, 2340.92)" xlink:href="#Degradado_sin_nombre_81"/><linearGradient id="Degradado_sin_nombre_73-7" x1="140.31" y1="1117.08" x2="5.78" y2="821.13" gradientTransform="matrix(1, 0, 0, -1, -2.16, 2340.92)" xlink:href="#Degradado_sin_nombre_73"/><linearGradient id="Degradado_sin_nombre_73-8" x1="166.29" y1="1105.21" x2="31.77" y2="809.26" gradientTransform="matrix(1, 0, 0, -1, -2.16, 2340.92)" xlink:href="#Degradado_sin_nombre_73"/><linearGradient id="Degradado_sin_nombre_73-9" x1="106.98" y1="1154.13" x2="-27.54" y2="858.18" gradientTransform="matrix(1, 0, 0, -1, 0, 2363.81)" xlink:href="#Degradado_sin_nombre_73"/><linearGradient id="Degradado_sin_nombre_93-3" x1="7597.87" y1="1012.82" x2="7686.28" y2="1012.82" gradientTransform="translate(7801.4 2340.92) rotate(180)" xlink:href="#Degradado_sin_nombre_93"/><linearGradient id="Degradado_sin_nombre_81-6" x1="7649.09" y1="957.57" x2="7636.08" y2="758.06" gradientTransform="translate(7801.4 2340.92) rotate(180)" xlink:href="#Degradado_sin_nombre_81"/><linearGradient id="Degradado_sin_nombre_93-4" x1="7491.11" y1="1009.18" x2="7677.78" y2="1009.18" gradientTransform="translate(7801.4 2340.92) rotate(180)" xlink:href="#Degradado_sin_nombre_93"/><linearGradient id="Degradado_sin_nombre_81-7" x1="7523.55" y1="965.75" x2="7510.54" y2="766.25" gradientTransform="translate(7801.4 2340.92) rotate(180)" xlink:href="#Degradado_sin_nombre_81"/><linearGradient id="Degradado_sin_nombre_137-2" x1="4.45" y1="1143.91" x2="213.58" y2="1143.91" gradientTransform="matrix(1, 0, 0, -1, -2.16, 2340.92)" xlink:href="#Degradado_sin_nombre_137"/><linearGradient id="Degradado_sin_nombre_79" x1="86.57" y1="1022.74" x2="281.08" y2="1022.74" gradientTransform="matrix(1, 0, 0, -1, -2.16, 2340.92)" gradientUnits="userSpaceOnUse"><stop offset="0" stop-color="#9cfffb"/><stop offset="1" stop-color="#9bfffa"/></linearGradient><linearGradient id="Degradado_sin_nombre_79-2" x1="108.98" y1="1022.73" x2="303.49" y2="1022.73" xlink:href="#Degradado_sin_nombre_79"/><linearGradient id="Degradado_sin_nombre_137-3" x1="604.45" y1="960.7" x2="575.01" y2="902.79" gradientTransform="matrix(1, 0, 0, -1, -2.16, 2340.92)" xlink:href="#Degradado_sin_nombre_137"/><linearGradient id="Degradado_sin_nombre_93-5" x1="548.4" y1="937.63" x2="577.72" y2="937.63" xlink:href="#Degradado_sin_nombre_93"/><linearGradient id="Degradado_sin_nombre_44" x1="507.84" y1="1015.29" x2="632.49" y2="1189.99" gradientTransform="matrix(1, 0, 0, -1, -2.16, 2340.92)" gradientUnits="userSpaceOnUse"><stop offset="0" stop-color="#2b3582"/><stop offset="0.23" stop-color="#252a70"/><stop offset="0.73" stop-color="#19164f"/><stop offset="1" stop-color="#150e42"/></linearGradient><linearGradient id="Degradado_sin_nombre_137-4" x1="587.32" y1="902.17" x2="485.25" y2="768.69" gradientTransform="matrix(1, 0, 0, -1, -2.16, 2340.92)" xlink:href="#Degradado_sin_nombre_137"/><linearGradient id="Degradado_sin_nombre_138-2" x1="536.25" y1="873.25" x2="615.12" y2="873.25" gradientTransform="matrix(1, 0, 0, -1, -2.16, 2340.92)" xlink:href="#Degradado_sin_nombre_138"/><linearGradient id="Degradado_sin_nombre_93-6" x1="527.22" y1="910.59" x2="554.75" y2="910.59" xlink:href="#Degradado_sin_nombre_93"/><linearGradient id="Degradado_sin_nombre_137-5" x1="462.91" y1="928.23" x2="469.78" y2="1161.82" gradientTransform="matrix(1, 0, 0, -1, -2.16, 2340.92)" xlink:href="#Degradado_sin_nombre_137"/><linearGradient id="Degradado_sin_nombre_138-3" x1="633.21" y1="1155.41" x2="565.49" y2="1261.41" gradientTransform="matrix(1, 0, 0, -1, -2.16, 2340.92)" xlink:href="#Degradado_sin_nombre_138"/><linearGradient id="Degradado_sin_nombre_93-7" x1="611.29" y1="1228.06" x2="707.35" y2="1228.06" xlink:href="#Degradado_sin_nombre_93"/><linearGradient id="Degradado_sin_nombre_138-4" x1="591.85" y1="1353.14" x2="335.29" y2="1182.75" gradientTransform="matrix(1, 0, 0, -1, -2.16, 2340.92)" xlink:href="#Degradado_sin_nombre_138"/><linearGradient id="Degradado_sin_nombre_93-8" x1="519.72" y1="1369.79" x2="583.42" y2="1369.79" xlink:href="#Degradado_sin_nombre_93"/><linearGradient id="Degradado_sin_nombre_138-5" x1="563.72" y1="1395.5" x2="307.16" y2="1225.11" gradientTransform="matrix(1, 0, 0, -1, -2.16, 2340.92)" xlink:href="#Degradado_sin_nombre_138"/><linearGradient id="Degradado_sin_nombre_138-6" x1="359.77" y1="1574.96" x2="457.69" y2="1181.3" gradientTransform="matrix(1, 0, 0, -1, -2.16, 2340.92)" xlink:href="#Degradado_sin_nombre_138"/><linearGradient id="Degradado_sin_nombre_93-9" x1="476.24" y1="1226.91" x2="232.31" y2="803.03" xlink:href="#Degradado_sin_nombre_93"/><linearGradient id="Degradado_sin_nombre_137-6" x1="17183.16" y1="1308.93" x2="17090.18" y2="1210.65" gradientTransform="translate(17809.21 2340.92) rotate(180)" xlink:href="#Degradado_sin_nombre_137"/><linearGradient id="Degradado_sin_nombre_93-10" x1="598.57" y1="1572.14" x2="519.97" y2="1512.01" gradientTransform="matrix(0.92, 0.39, 0.39, -0.92, -563.96, 2146.31)" xlink:href="#Degradado_sin_nombre_93"/><linearGradient id="Degradado_sin_nombre_137-7" x1="549.3" y1="1615.75" x2="620.47" y2="1524.12" gradientTransform="matrix(0.92, 0.39, 0.39, -0.92, -563.96, 2146.31)" xlink:href="#Degradado_sin_nombre_137"/><linearGradient id="Degradado_sin_nombre_93-11" x1="588.84" y1="1584.83" x2="510.25" y2="1524.7" gradientTransform="matrix(0.92, 0.39, 0.39, -0.92, -563.96, 2146.31)" xlink:href="#Degradado_sin_nombre_93"/><linearGradient id="Degradado_sin_nombre_79-3" x1="69.26" y1="1174.01" x2="1602.35" y2="1174.01" xlink:href="#Degradado_sin_nombre_79"/><linearGradient id="Degradado_sin_nombre_137-8" x1="8563.63" y1="12827.08" x2="8368.13" y2="12638.07" gradientTransform="matrix(1.39, -0.07, -0.07, -1.39, 6114.16, 2772.8)" xlink:href="#Degradado_sin_nombre_137"/><linearGradient id="Degradado_sin_nombre_137-9" x1="7869.03" y1="12071.59" x2="7673.54" y2="11882.58" gradientTransform="matrix(-0.65, -1.23, -1.23, 0.65, -570.83, -4229.41)" xlink:href="#Degradado_sin_nombre_137"/><linearGradient id="Degradado_sin_nombre_81-8" x1="4681.08" y1="893.09" x2="4775.87" y2="893.09" gradientTransform="translate(6213.74 2340.92) rotate(180)" xlink:href="#Degradado_sin_nombre_81"/><linearGradient id="Degradado_sin_nombre_81-9" x1="4754.1" y1="1075.4" x2="4728.2" y2="896.43" gradientTransform="translate(6213.74 2340.92) rotate(180)" xlink:href="#Degradado_sin_nombre_81"/><linearGradient id="Degradado_sin_nombre_93-12" x1="4685.81" y1="921.67" x2="4711.46" y2="921.67" gradientTransform="translate(6213.74 2340.92) rotate(180)" xlink:href="#Degradado_sin_nombre_93"/><linearGradient id="Degradado_sin_nombre_81-10" x1="4829.77" y1="911.88" x2="4906.35" y2="911.88" gradientTransform="translate(6213.74 2340.92) rotate(180)" xlink:href="#Degradado_sin_nombre_81"/><linearGradient id="Degradado_sin_nombre_81-11" x1="4882.42" y1="1056.83" x2="4856.52" y2="877.86" gradientTransform="translate(6213.74 2340.92) rotate(180)" xlink:href="#Degradado_sin_nombre_81"/><linearGradient id="Degradado_sin_nombre_137-10" x1="4543.97" y1="1037.42" x2="4747.04" y2="1037.42" gradientTransform="translate(6213.74 2340.92) rotate(180)" xlink:href="#Degradado_sin_nombre_137"/><linearGradient id="Degradado_sin_nombre_93-13" x1="4807.31" y1="919.51" x2="4837.93" y2="919.51" gradientTransform="translate(6213.74 2340.92) rotate(180)" xlink:href="#Degradado_sin_nombre_93"/><linearGradient id="Degradado_sin_nombre_137-11" x1="4728.42" y1="1122.02" x2="4505.49" y2="869.26" gradientTransform="translate(6213.74 2340.92) rotate(180)" xlink:href="#Degradado_sin_nombre_137"/><linearGradient id="Degradado_sin_nombre_93-14" x1="4613.47" y1="1372.67" x2="4689.79" y2="1372.67" gradientTransform="translate(6213.74 2340.92) rotate(180)" xlink:href="#Degradado_sin_nombre_93"/><linearGradient id="Degradado_sin_nombre_73-10" x1="1661.96" y1="1263.31" x2="1445.52" y2="1028.52" gradientTransform="matrix(1, 0, 0, -1, -2.16, 2340.92)" xlink:href="#Degradado_sin_nombre_73"/><linearGradient id="Degradado_sin_nombre_73-11" x1="1698.31" y1="1373.57" x2="1468.4" y2="1190.13" gradientTransform="matrix(1, 0, 0, -1, -2.16, 2340.92)" xlink:href="#Degradado_sin_nombre_73"/><linearGradient id="Degradado_sin_nombre_93-15" x1="4766.19" y1="1202.98" x2="4836.93" y2="1202.98" gradientTransform="translate(6213.74 2340.92) rotate(180)" xlink:href="#Degradado_sin_nombre_93"/><linearGradient id="Degradado_sin_nombre_93-16" x1="-2156.66" y1="3513.18" x2="-2234.08" y2="3453.94" gradientTransform="translate(2716.15 4916.29) rotate(131.78) scale(1.01)" xlink:href="#Degradado_sin_nombre_93"/><linearGradient id="Degradado_sin_nombre_93-17" x1="-2166.19" y1="3525.66" x2="-2243.61" y2="3466.42" gradientTransform="translate(2716.15 4916.29) rotate(131.78) scale(1.01)" xlink:href="#Degradado_sin_nombre_93"/><linearGradient id="Degradado_sin_nombre_79-4" x1="1361.02" y1="1009.18" x2="1555.54" y2="1009.18" xlink:href="#Degradado_sin_nombre_79"/><linearGradient id="Degradado_sin_nombre_79-5" x1="1383.49" y1="1009.2" x2="1578" y2="1009.2" xlink:href="#Degradado_sin_nombre_79"/><linearGradient id="Degradado_sin_nombre_84" x1="-1553.74" y1="3089.66" x2="-1178.35" y2="2645.51" gradientTransform="matrix(1, 0, 0, -1, 172.47, 2340.92)" gradientUnits="userSpaceOnUse"><stop offset="0" stop-color="#cb236d"/><stop offset="0.31" stop-color="#4c246d"/></linearGradient><linearGradient id="Degradado_sin_nombre_81-12" x1="359.82" y1="1456.7" x2="-239.49" y2="994.49" gradientTransform="matrix(1, 0, 0, -1, -2.16, 2340.92)" xlink:href="#Degradado_sin_nombre_81"/><linearGradient id="Degradado_sin_nombre_93-18" x1="7027.37" y1="1312" x2="7014.77" y2="1392.85" gradientTransform="translate(7187.1 2340.92) rotate(180)" xlink:href="#Degradado_sin_nombre_93"/><linearGradient id="Degradado_sin_nombre_93-19" x1="5493.57" y1="1784.56" x2="5578.49" y2="1726.88" gradientTransform="translate(5597.7 3015.36) rotate(-176.57)" xlink:href="#Degradado_sin_nombre_93"/><linearGradient id="Degradado_sin_nombre_84-2" x1="-846.81" y1="3361.64" x2="-471.42" y2="2917.49" gradientTransform="matrix(1, 0.06, 0.06, -1, -414.57, 2654.15)" xlink:href="#Degradado_sin_nombre_84"/><linearGradient id="Degradado_sin_nombre_93-20" x1="4647.56" y1="2731.68" x2="4741.25" y2="2668.04" gradientTransform="translate(5553.71 1443.89) rotate(155.75)" xlink:href="#Degradado_sin_nombre_93"/><linearGradient id="Degradado_sin_nombre_86" x1="12612.35" y1="1252.94" x2="12343.16" y2="1184.55" gradientTransform="translate(12634.66 2340.92) rotate(180)" gradientUnits="userSpaceOnUse"><stop offset="0" stop-color="#f9b776"/><stop offset="0.53" stop-color="#f47960"/></linearGradient><linearGradient id="Degradado_sin_nombre_137-12" x1="1251.96" y1="1419.31" x2="1171.66" y2="1340.76" gradientTransform="matrix(1, 0, 0, -1, -2.16, 2340.92)" xlink:href="#Degradado_sin_nombre_137"/><linearGradient id="Degradado_sin_nombre_138-7" x1="1072.33" y1="1032.98" x2="1183.75" y2="790.49" gradientTransform="matrix(1, 0.07, 0.07, -1, 1.14, 2038.82)" xlink:href="#Degradado_sin_nombre_138"/><linearGradient id="Degradado_sin_nombre_93-21" x1="1120.94" y1="1316.35" x2="1109.97" y2="1386.71" xlink:href="#Degradado_sin_nombre_93"/><linearGradient id="Degradado_sin_nombre_93-22" x1="1066.2" y1="1444.88" x2="1158.84" y2="1381.96" xlink:href="#Degradado_sin_nombre_93"/><linearGradient id="Degradado_sin_nombre_137-13" x1="1170.34" y1="1500.59" x2="1089.93" y2="1421.93" gradientTransform="matrix(1, 0, 0, -1, -2.16, 2340.92)" xlink:href="#Degradado_sin_nombre_137"/><linearGradient id="Degradado_sin_nombre_93-23" x1="1338.98" y1="1478.83" x2="1431.62" y2="1415.91" gradientTransform="matrix(1.09, -0.02, -0.02, -1.02, -363.29, 2436.33)" xlink:href="#Degradado_sin_nombre_93"/><linearGradient id="Degradado_sin_nombre_93-24" x1="1106.31" y1="1004.94" x2="1303.29" y2="1004.94" gradientTransform="matrix(1, 0.06, 0.06, -1, -0.49, 2073.04)" xlink:href="#Degradado_sin_nombre_93"/><linearGradient id="Degradado_sin_nombre_114-14" x1="-1717.08" y1="-4695.57" x2="-1759.57" y2="-4752.65" gradientTransform="matrix(0.74, -0.67, 0.67, 0.74, 5554, 2481.83)" xlink:href="#Degradado_sin_nombre_114"/><linearGradient id="Degradado_sin_nombre_138-8" x1="2169.37" y1="-4406.91" x2="2194.96" y2="-4354.77" gradientTransform="translate(5469.12 2423.96) rotate(-89.43)" xlink:href="#Degradado_sin_nombre_138"/><linearGradient id="Degradado_sin_nombre_138-9" x1="2299.35" y1="-4404.86" x2="2259.52" y2="-4337.51" gradientTransform="translate(5469.12 2423.96) rotate(-89.43)" xlink:href="#Degradado_sin_nombre_138"/><linearGradient id="Degradado_sin_nombre_138-10" x1="6672.12" y1="-4646.21" x2="6701.9" y2="-4946.16" gradientTransform="matrix(-0.67, -0.74, 0.74, -0.67, 9119.91, 1949.07)" xlink:href="#Degradado_sin_nombre_138"/><linearGradient id="Degradado_sin_nombre_114-15" x1="2252.18" y1="-4221.12" x2="2198.1" y2="-4299.33" gradientTransform="translate(5469.12 2423.96) rotate(-89.43)" xlink:href="#Degradado_sin_nombre_114"/><linearGradient id="Degradado_sin_nombre_138-11" x1="6259.38" y1="-4826.78" x2="6301.31" y2="-4826.78" gradientTransform="translate(8860.51 2053.83) rotate(-128.48)" xlink:href="#Degradado_sin_nombre_138"/><linearGradient id="Degradado_sin_nombre_137-14" x1="2210.17" y1="-4288.16" x2="2244.5" y2="-4288.16" gradientTransform="translate(5469.12 2423.96) rotate(-89.43)" xlink:href="#Degradado_sin_nombre_137"/><linearGradient id="Degradado_sin_nombre_138-12" x1="6292.1" y1="-4858.14" x2="6319.8" y2="-4858.14" gradientTransform="translate(8860.51 2053.83) rotate(-128.48)" xlink:href="#Degradado_sin_nombre_138"/><linearGradient id="Degradado_sin_nombre_137-15" x1="2215.79" y1="-4328.72" x2="2238.47" y2="-4328.72" gradientTransform="translate(5469.12 2423.96) rotate(-89.43)" xlink:href="#Degradado_sin_nombre_137"/><linearGradient id="Degradado_sin_nombre_138-13" x1="834.78" y1="1436.2" x2="831.87" y2="1137.15" gradientTransform="translate(2194.18 2340.92) rotate(180)" xlink:href="#Degradado_sin_nombre_138"/><linearGradient id="Degradado_sin_nombre_138-14" x1="909.07" y1="2120.26" x2="592.25" y2="1614.37" gradientTransform="matrix(0.99, 0.14, 0.14, -0.99, 452.26, 2391.11)" xlink:href="#Degradado_sin_nombre_138"/><linearGradient id="Degradado_sin_nombre_138-15" x1="1422.54" y1="1334.39" x2="1410.01" y2="1932.19" gradientTransform="matrix(1, 0.09, 0.09, -1, -29.62, 1892.14)" xlink:href="#Degradado_sin_nombre_138"/><linearGradient id="Degradado_sin_nombre_117" x1="296.42" y1="-893.73" x2="161.72" y2="-1123.65" gradientTransform="matrix(1, 0.1, 0.1, -1, 1318.91, -512.47)" gradientUnits="userSpaceOnUse"><stop offset="0" stop-color="#a737d5"/><stop offset="1" stop-color="#ef497a"/></linearGradient><linearGradient id="Degradado_sin_nombre_117-2" x1="298.99" y1="-834.6" x2="164.28" y2="-1064.52" xlink:href="#Degradado_sin_nombre_117"/><linearGradient id="Degradado_sin_nombre_117-3" x1="320.92" y1="-908.09" x2="186.21" y2="-1138.01" xlink:href="#Degradado_sin_nombre_117"/><linearGradient id="Degradado_sin_nombre_117-4" x1="339.05" y1="-960.8" x2="161.81" y2="-1207.93" xlink:href="#Degradado_sin_nombre_117"/><linearGradient id="Degradado_sin_nombre_117-5" x1="364.63" y1="-934.09" x2="229.92" y2="-1164.01" xlink:href="#Degradado_sin_nombre_117"/><linearGradient id="Degradado_sin_nombre_137-16" x1="1476.15" y1="1740.82" x2="1368.68" y2="1599.45" gradientTransform="matrix(1, 0.09, 0.09, -1, -29.62, 1892.14)" xlink:href="#Degradado_sin_nombre_137"/><linearGradient id="Degradado_sin_nombre_137-17" x1="404.73" y1="-742.78" x2="296.91" y2="-884.62" gradientTransform="matrix(0.99, 0.13, 0.13, -0.99, 1303.78, -484.63)" xlink:href="#Degradado_sin_nombre_137"/><linearGradient id="Degradado_sin_nombre_137-18" x1="390.93" y1="-751.45" x2="316.48" y2="-888.16" gradientTransform="matrix(0.99, 0.13, 0.13, -0.99, 1303.78, -484.63)" xlink:href="#Degradado_sin_nombre_137"/><linearGradient id="Degradado_sin_nombre_114-16" x1="2113.14" y1="1570.36" x2="1856.03" y2="1361.12" gradientTransform="matrix(1.39, 0.12, 0.12, -1.4, -1753, 2434.2)" xlink:href="#Degradado_sin_nombre_114"/><linearGradient id="Degradado_sin_nombre_117-6" x1="2146.07" y1="1529.9" x2="1888.96" y2="1320.66" gradientTransform="matrix(1.39, 0.12, 0.12, -1.4, -1753, 2434.2)" xlink:href="#Degradado_sin_nombre_117"/><linearGradient id="Degradado_sin_nombre_117-7" x1="2150.44" y1="1524.53" x2="1893.33" y2="1315.29" gradientTransform="matrix(1.39, 0.12, 0.12, -1.4, -1753, 2434.2)" xlink:href="#Degradado_sin_nombre_117"/><linearGradient id="Degradado_sin_nombre_117-8" x1="2160.27" y1="1512.42" x2="1903.17" y2="1303.18" gradientTransform="matrix(1.39, 0.12, 0.12, -1.4, -1753, 2434.2)" xlink:href="#Degradado_sin_nombre_117"/><linearGradient id="Degradado_sin_nombre_138-16" x1="656.86" y1="1697.99" x2="985.49" y2="1697.99" gradientTransform="matrix(1, 0, 0, -1, -2.16, 2340.92)" xlink:href="#Degradado_sin_nombre_138"/><linearGradient id="Degradado_sin_nombre_138-17" x1="809.6" y1="1788" x2="960.67" y2="1788" gradientTransform="matrix(1, 0, 0, -1, -2.16, 2340.92)" xlink:href="#Degradado_sin_nombre_138"/><linearGradient id="Degradado_sin_nombre_138-18" x1="809.6" y1="1768.89" x2="960.68" y2="1768.89" gradientTransform="matrix(1, 0, 0, -1, -2.16, 2340.92)" xlink:href="#Degradado_sin_nombre_138"/><linearGradient id="Degradado_sin_nombre_138-19" x1="777.85" y1="6022.26" x2="780.23" y2="6022.26" gradientTransform="matrix(1, 0, 0, -0.43, -5.1, 3302.05)" xlink:href="#Degradado_sin_nombre_138"/><linearGradient id="Degradado_sin_nombre_138-20" x1="832.56" y1="1640.48" x2="834.91" y2="1640.48" gradientTransform="matrix(1, 0, 0, -1, -2.16, 2340.92)" xlink:href="#Degradado_sin_nombre_138"/><linearGradient id="Degradado_sin_nombre_138-21" x1="875.84" y1="1641.77" x2="880.46" y2="1641.77" gradientTransform="matrix(1, 0, 0, -1, -2.16, 2340.92)" xlink:href="#Degradado_sin_nombre_138"/><linearGradient id="Degradado_sin_nombre_138-22" x1="921.42" y1="1667.34" x2="923.77" y2="1667.34" gradientTransform="matrix(1, 0, 0, -1, -2.16, 2340.92)" xlink:href="#Degradado_sin_nombre_138"/><linearGradient id="Degradado_sin_nombre_138-23" x1="695.77" y1="1678.34" x2="711.82" y2="1678.34" gradientTransform="matrix(1, 0, 0, -1, -2.16, 2340.92)" xlink:href="#Degradado_sin_nombre_138"/><linearGradient id="Degradado_sin_nombre_138-24" x1="693.61" y1="1791.35" x2="709.66" y2="1791.35" gradientTransform="matrix(1, 0, 0, -1, 0, 2363.81)" xlink:href="#Degradado_sin_nombre_138"/><linearGradient id="Degradado_sin_nombre_138-25" x1="699.05" y1="1594.69" x2="957.52" y2="1594.69" gradientTransform="matrix(1, 0, 0, -1, -2.16, 2340.92)" xlink:href="#Degradado_sin_nombre_138"/><linearGradient id="Degradado_sin_nombre_138-26" x1="696.89" y1="1617.58" x2="955.36" y2="1617.58" gradientTransform="matrix(1, 0, 0, -1, 0, 2363.81)" xlink:href="#Degradado_sin_nombre_138"/><linearGradient id="Degradado_sin_nombre_138-27" x1="715.25" y1="1619.94" x2="924.11" y2="1758.63" gradientTransform="matrix(1, 0, 0, -1, -2.16, 2340.92)" xlink:href="#Degradado_sin_nombre_138"/><linearGradient id="Degradado_sin_nombre_138-28" x1="731.91" y1="1610.18" x2="933.61" y2="1744.11" gradientTransform="matrix(1, 0, 0, -1, -2.16, 2340.92)" xlink:href="#Degradado_sin_nombre_138"/><linearGradient id="Degradado_sin_nombre_137-19" x1="10948.82" y1="719.86" x2="10817.78" y2="683.95" gradientTransform="matrix(1, -0.05, -0.05, -1, -9740.74, 2385.97)" xlink:href="#Degradado_sin_nombre_137"/><linearGradient id="Degradado_sin_nombre_137-20" x1="10788.92" y1="1301.8" x2="10695.94" y2="1203.52" gradientTransform="matrix(1, 0, 0, -1, -9809.42, 2340.92)" xlink:href="#Degradado_sin_nombre_137"/><linearGradient id="Degradado_sin_nombre_138-29" x1="10714.74" y1="1280.05" x2="10672.55" y2="1216.51" gradientTransform="matrix(0.95, 0.31, 0.31, -0.95, -9674.3, -1007.85)" xlink:href="#Degradado_sin_nombre_138"/><linearGradient id="Degradado_sin_nombre_138-30" x1="10407.06" y1="-887.73" x2="10364.87" y2="-951.26" gradientTransform="matrix(-0.31, 0.95, 0.95, 0.31, 4764.1, -8532.55)" xlink:href="#Degradado_sin_nombre_138"/><linearGradient id="Degradado_sin_nombre_138-31" x1="10104.67" y1="-1091.92" x2="10062.49" y2="-1155.45" gradientTransform="matrix(-0.31, 0.95, 0.95, 0.31, 4499.58, -8193.09)" xlink:href="#Degradado_sin_nombre_138"/><linearGradient id="Degradado_sin_nombre_137-21" x1="103.2" y1="1193.32" x2="280.38" y2="1193.32" gradientTransform="matrix(1, 0, 0, -1, -2.16, 2340.92)" xlink:href="#Degradado_sin_nombre_137"/><linearGradient id="Degradado_sin_nombre_137-22" x1="197.87" y1="1259.82" x2="430.12" y2="1259.82" gradientTransform="matrix(1, 0, 0, -1, -2.16, 2340.92)" xlink:href="#Degradado_sin_nombre_137"/><linearGradient id="Degradado_sin_nombre_138-32" x1="325.09" y1="1266.76" x2="348.02" y2="1266.76" gradientTransform="matrix(0.31, 0.95, 0.95, -0.31, -977.47, 1149.62)" xlink:href="#Degradado_sin_nombre_138"/></defs><g id="Capa_2" data-name="Capa 2"><g id="Capa_1_copia_4" data-name="Capa 1 copia 4"><path d="M304.41,122.53a18.62,18.62,0,0,1-13.27-5.44,19.15,19.15,0,0,1-4-5.88,18.41,18.41,0,0,1,4-20.34,19.08,19.08,0,0,1,26.53,0,18.41,18.41,0,0,1,4,20.34,19,19,0,0,1-4,5.88,18.53,18.53,0,0,1-5.95,4A18.81,18.81,0,0,1,304.41,122.53Zm-12.36,45.25,32-40.21,29.51-41.83,6.91,6.6-31,39.46L299,174.33Zm12.36-53.4a6,6,0,0,0,3.12-.86,9.45,9.45,0,0,0,2.55-2.26,10.29,10.29,0,0,0,1.76-3.3,13,13,0,0,0,.62-4,11.35,11.35,0,0,0-2.38-7.27,7.08,7.08,0,0,0-5.67-3,5.87,5.87,0,0,0-3.12.86,10.09,10.09,0,0,0-2.55,2.25,10.78,10.78,0,0,0-1.76,3.23,12.07,12.07,0,0,0-.62,3.91,11.5,11.5,0,0,0,2.38,7.33,7,7,0,0,0,5.67,3Zm43.78,60.34a18.21,18.21,0,0,1-7.37-1.47,18.86,18.86,0,0,1-5.9-3.91,18.12,18.12,0,0,1-4-5.8,18.62,18.62,0,0,1,0-14.54,19.06,19.06,0,0,1,4-5.86,18.87,18.87,0,0,1,26.64,0,18,18,0,0,1,4,5.86,18.5,18.5,0,0,1-4,20.34,19.84,19.84,0,0,1-6,3.91,18.31,18.31,0,0,1-7.42,1.44Zm0-8.19a6,6,0,0,0,3.12-.85,10.14,10.14,0,0,0,2.55-2.26,10.57,10.57,0,0,0,1.75-3.24,12.4,12.4,0,0,0-1.81-11.3,8.15,8.15,0,0,0-2.55-2.21,6.47,6.47,0,0,0-3.06-.78,5.86,5.86,0,0,0-3.12.85,10.09,10.09,0,0,0-4.31,5.56,12.39,12.39,0,0,0-.62,4,11.27,11.27,0,0,0,2.38,7.27,7,7,0,0,0,5.67,3Z" fill="#94c4fc"/><path d="M575.1,183.77a90,90,0,0,0-169.59,60.61h0c.67,1.91,1.41,3.79,2.22,5.62A90,90,0,0,0,575.1,183.77Zm-62,93.91A67.51,67.51,0,0,1,428.43,241c-.6-1.38-1.15-2.78-1.67-4.22a67.51,67.51,0,1,1,86.34,40.89Z" fill="url(#Degradado_sin_nombre_2)"/><path d="M425.87,194l-21.52-6.73A90.13,90.13,0,0,1,487.61,124l.68,22.54A67.62,67.62,0,0,0,425.87,194Z" fill="#4873b0"/><path d="M428.4,241l-20.67,9q-1.19-2.76-2.22-5.62a89.76,89.76,0,0,1-1.19-57.18L425.87,194a67.26,67.26,0,0,0,.89,42.86C427.25,238.23,427.8,239.63,428.4,241Z" fill="#6f9ad0"/><path d="M421.71,272.43a89.93,89.93,0,0,1-14-22.43l20.67-9a67.18,67.18,0,0,0,10.49,16.81Z" fill="#94c4fc"/><rect x="1217.29" y="298.24" width="180.26" height="13.9" fill="#94c4fc"/><rect x="1180.65" y="363.73" width="134.89" height="13.9" fill="#94c4fc"/><path d="M525.32,801.07h-65c-2.6,0-4.7-2.74-4.7-6.12s2.1-6.11,4.7-6.11h65c2.6,0,4.7,2.73,4.7,6.11S527.87,801.07,525.32,801.07Z" fill="#94c4fc"/><path d="M498.88,762.48v65c0,2.59-2.73,4.7-6.11,4.7s-6.12-2.1-6.12-4.7v-65c0-2.6,2.74-4.7,6.12-4.7S498.88,759.85,498.88,762.48Z" fill="#94c4fc"/><rect x="840.67" width="180.26" height="22.56" fill="#94c4fc"/><rect x="839.52" y="62.71" width="134.89" height="22.56" fill="#94c4fc"/><circle cx="1369.35" cy="120.37" r="34.09" transform="translate(527.14 1206.78) rotate(-57.24)" fill="url(#Degradado_sin_nombre_114)"/><circle cx="1368.43" cy="109.16" r="33.02" transform="translate(149.43 740.47) rotate(-31.94)" fill="url(#Degradado_sin_nombre_114-2)"/><path d="M1342.2,108a1.27,1.27,0,0,1-1.28-1.26h0a1.35,1.35,0,0,1,.14-.59,31.72,31.72,0,0,1,34-16.92,1.28,1.28,0,1,1-.26,2.55h-.2a31,31,0,0,0-5.26-.47,29,29,0,0,0-26,16A1.27,1.27,0,0,1,1342.2,108Z" fill="#fff"/><circle cx="1370.09" cy="121.01" r="27.89" transform="translate(-1.69 221.09) rotate(-9.22)" fill="#fff" opacity="0.78" style="isolation:isolate"/><path d="M1367.36,141.84v-3a24.81,24.81,0,0,1-8.49-1.88,1.76,1.76,0,0,1-1-2.07l.78-2.83a1.78,1.78,0,0,1,2.16-1.25l.24.09a20.44,20.44,0,0,0,7.86,1.66c3,0,5.32-1,5.32-3.15,0-1.92-1.76-3-6-4.19-6-1.65-10.38-4.28-10.38-9.6,0-4.81,3.51-8.47,9.6-9.46v-3a1.77,1.77,0,0,1,1.77-1.77H1371a1.77,1.77,0,0,1,1.77,1.77h0V106a22.47,22.47,0,0,1,6.75,1.22,1.74,1.74,0,0,1,1.1,2.12l-.68,2.59a1.76,1.76,0,0,1-2.15,1.25h-.17a18.36,18.36,0,0,0-6.68-1.2c-3.62,0-4.65,1.5-4.65,2.84,0,1.66,2.17,2.79,6.87,4.24,6.71,2,9.5,4.8,9.5,9.81,0,4.6-3.41,8.73-10,9.76V142a1.77,1.77,0,0,1-1.77,1.77h-1.78a1.77,1.77,0,0,1-1.75-1.79h0Z" fill="url(#Degradado_sin_nombre_114-3)"/><circle cx="1466.4" cy="79.82" r="59.35" transform="translate(7.28 246.18) rotate(-9.62)" fill="url(#Degradado_sin_nombre_114-4)"/><circle cx="1466.31" cy="79.94" r="57.37" transform="translate(1051.68 1488.68) rotate(-76.72)" fill="url(#Degradado_sin_nombre_114-5)"/><path d="M1419.11,57.41a1.17,1.17,0,0,1-.58-.13,1.28,1.28,0,0,1-.56-1.72,54.34,54.34,0,0,1,58.23-28.95,1.28,1.28,0,1,1-.26,2.55h-.2a54,54,0,0,0-9.32-.83,51.48,51.48,0,0,0-46.17,28.42A1.27,1.27,0,0,1,1419.11,57.41Z" fill="#fff"/><circle cx="1467.67" cy="81.22" r="48.56" fill="#fff" opacity="0.78" style="isolation:isolate"/><path d="M1462.87,117.32V112a42.91,42.91,0,0,1-14.82-3.21,3.08,3.08,0,0,1-1.69-3.61l1.34-4.92a3.09,3.09,0,0,1,3.8-2.13h0l.38.13a35.72,35.72,0,0,0,13.68,2.88c5.31,0,9.26-1.79,9.26-5.48,0-3.33-3-5.3-10.43-7.28-10.52-2.88-18.07-7.46-18.07-16.73,0-8.36,6.12-14.74,16.72-16.45V50a3.08,3.08,0,0,1,3.08-3.08h3.11a3.08,3.08,0,0,1,3.08,3.08h0V54.7A40,40,0,0,1,1484,56.85a3.07,3.07,0,0,1,1.92,3.7l-1.24,4.55a3.07,3.07,0,0,1-3.74,2.17l-.31-.1a32.36,32.36,0,0,0-11.52-2.09c-6.3,0-8.09,2.61-8.09,5,0,2.87,3.77,4.85,12,7.37,11.69,3.51,16.55,8.36,16.55,17.08,0,8-5.94,15.2-17.44,17v5.92a3.06,3.06,0,0,1-3,3.07H1466a3,3,0,0,1-3.08-3h0Z" fill="url(#Degradado_sin_nombre_114-6)"/><circle cx="1507.23" cy="212.48" r="61.07" transform="translate(954.2 1630.6) rotate(-76.72)" fill="url(#Degradado_sin_nombre_114-7)"/><circle cx="1507.35" cy="212.53" r="59.04" transform="translate(291.21 1128.11) rotate(-45)" fill="url(#Degradado_sin_nombre_114-8)"/><path d="M1458.67,189.28a1.18,1.18,0,0,1-.58-.14,1.28,1.28,0,0,1-.56-1.72,55.57,55.57,0,0,1,49.82-30.68,57.55,57.55,0,0,1,10.06.91,1.27,1.27,0,0,1,1,1.49,1.29,1.29,0,0,1-1.49,1,53.26,53.26,0,0,0-57.14,28.4A1.25,1.25,0,0,1,1458.67,189.28Z" fill="#fff"/><circle cx="1508.68" cy="213.82" r="49.97" transform="translate(933.03 1624.66) rotate(-75.87)" fill="#fff" opacity="0.78" style="isolation:isolate"/><path d="M1503.75,251v-5.43a44.19,44.19,0,0,1-15.25-3.31,3.15,3.15,0,0,1-1.74-3.72l1.38-5.06a3.17,3.17,0,0,1,3.88-2.22l.42.15a36.72,36.72,0,0,0,14.09,3c5.46,0,9.53-1.85,9.53-5.64,0-3.42-3.15-5.46-10.74-7.49-10.82-3-18.59-7.68-18.59-17.21,0-8.61,6.29-15.17,17.21-16.93v-5.44a3.18,3.18,0,0,1,3.16-3.17h3.2a3.17,3.17,0,0,1,3.17,3.17v4.88a41.12,41.12,0,0,1,12.09,2.17,3.16,3.16,0,0,1,2,3.81l-1.27,4.68a3.16,3.16,0,0,1-3.85,2.24h0l-.31-.1a33.37,33.37,0,0,0-11.86-2.15c-6.48,0-8.33,2.68-8.33,5.09,0,3,3.89,5,12.31,7.59,12,3.6,17,8.6,17,17.57,0,8.24-6.11,15.64-18,17.49v6a3.17,3.17,0,0,1-3.15,3.17h-3.28a3.16,3.16,0,0,1-3.18-3.14v0Z" fill="url(#Degradado_sin_nombre_114-9)"/><circle cx="1585.69" cy="129.34" r="44.74" fill="url(#Degradado_sin_nombre_114-10)"/><circle cx="1585.69" cy="129.35" r="43.26" transform="translate(372.98 1159.14) rotate(-45)" fill="url(#Degradado_sin_nombre_114-11)"/><path d="M1550,112.65a1.18,1.18,0,0,1-.58-.14,1.28,1.28,0,0,1-.53-1.67,41,41,0,0,1,36.81-22.66,42.06,42.06,0,0,1,7.43.66,1.28,1.28,0,0,1-.46,2.52,41,41,0,0,0-7-.62,38.51,38.51,0,0,0-34.5,21.26A1.26,1.26,0,0,1,1550,112.65Z" fill="#fff"/><circle cx="1586.62" cy="130.17" r="36.61" transform="translate(-0.36 255.9) rotate(-9.22)" fill="#fff" opacity="0.78" style="isolation:isolate"/><path d="M1583,157.49v-4a32.53,32.53,0,0,1-11.18-2.42,2.32,2.32,0,0,1-1.27-2.72l1-3.71a2.32,2.32,0,0,1,2.84-1.62h0l.3.1a27.11,27.11,0,0,0,10.32,2.17c4,0,7-1.36,7-4.14,0-2.5-2.3-4-7.86-5.49-7.93-2.16-13.62-5.62-13.62-12.6,0-6.31,4.61-11.12,12.6-12.41v-4a2.32,2.32,0,0,1,2.32-2.32h2.38a2.32,2.32,0,0,1,2.32,2.32h0v3.57a29.67,29.67,0,0,1,8.85,1.6,2.3,2.3,0,0,1,1.45,2.78l-.93,3.43a2.31,2.31,0,0,1-2.82,1.64h0l-.22-.07a24.09,24.09,0,0,0-8.69-1.58c-4.74,0-6.1,2-6.1,3.73,0,2.17,2.85,3.66,9,5.56,8.81,2.64,12.47,6.3,12.47,12.88,0,6-4.47,11.45-13.15,12.81v4.45a2.3,2.3,0,0,1-2.29,2.33h-2.37A2.32,2.32,0,0,1,1583,157.49Z" fill="url(#Degradado_sin_nombre_114-12)"/><path d="M1129.15,525.87c-9-8.84-22.11-18.38-39.18-28.76-18.93-11.51-39-21.19-59-30.21-23.29-10.52-48-18.94-72.83-26a480.13,480.13,0,0,0-80.91-15.78q.67,142.23,1.36,284.46c11.23,2.24,16.85,3.35,28.1,5.54,48.77,11.15,97.12,23.41,145,37.81,38.59,11.61,77,27.3,111,48.69,28.53,17.94,55,42,72.79,71.14,19.89,32.69,28.17,69,30,105.24,2.07,40-3.69,83.81-23.49,121a269,269,0,0,1-78,89.49c-36.66,26.67-78.18,46.49-120.38,60.13-47.91,15.48-98.49,23.9-149.69,29l.93,144q-41.55,3.24-83.11,6.21l.36-148.17c-73.26-1.56-145.76-10.3-214.72-31.2-65.27-19.79-126.14-51-182.5-91.68q42.39-68.79,84.35-137.84c13.9,14.93,31.08,26.58,47.78,37.45,23.09,15,49.06,27.41,74.37,37.92,30.2,12.55,62.43,22.51,94.42,30.54a564.75,564.75,0,0,0,107.49,15.89l.39-286.32c-6-1.8-12.26-3.38-18.74-4.73s-12.74-3-18.73-4.8C739.59,833,692.4,820.45,648.4,802.35c-34.39-14.14-67.19-31.46-96-55.93C528.31,726,509.24,699,496.72,670.06c-14.19-32.82-16.93-70-15.6-104.09,1.64-41.62,9.67-85.8,29.49-123.42,18.15-34.45,41.72-64.62,71.52-88.23,30.32-24,65.92-40.69,103.76-52.67,41.12-13,85.35-16.53,128.85-17.91q.19-70,.4-139.93,35.86,3.09,71.78,5.84.41,69.32.83,138.62c58.24,7.79,115.56,20.44,169.62,42.88,48.56,20.17,96,43.68,140.13,73.1Q1163.57,465.17,1129.15,525.87ZM651.71,550.14c-.79,33.83,12.61,70,41.28,90.57,38.79,27.77,85.65,41.89,131,54.58l.42-272.54c-44.35,1.25-92.72,4.53-129.07,33.08-28.42,22.31-42.83,59.46-43.63,94.31Zm431.54,455.5a101.21,101.21,0,0,0-55.38-86.93C981.7,895.48,930,880.45,879.39,867.54l1.35,272c52.33-4.28,107-12.85,151.83-40.81,31.66-19.66,51.7-55.59,50.67-93.09Z" fill="url(#Degradado_sin_nombre_15)"/><path d="M1719.53,1278.66c3.69,5.47,18.38,129.25,20.68,175a5.42,5.42,0,0,1-5.14,5.66h-.28a5.41,5.41,0,0,1-5.35-4.58l-26.86-172.12Z" fill="url(#Degradado_sin_nombre_73)"/><path d="M1601.47,1278.66c-3.7,5.47-18.38,129.25-20.68,175a5.42,5.42,0,0,0,5.14,5.66h.28a5.41,5.41,0,0,0,5.35-4.58l26.86-172.12Z" fill="url(#Degradado_sin_nombre_73-2)"/><path d="M1741.71,1269v1.35c.09,9.71-8.27,17.68-18.75,17.86l-124.09,2.15c-10.33.18-18.93-7.29-19.43-16.85l-.07-1.23c-.52-10,8-18.37,18.71-18.56l124.2-2.23C1732.87,1251.26,1741.65,1259.15,1741.71,1269Z" fill="url(#Degradado_sin_nombre_73-3)"/><path d="M666.26,1182.88h.38l162.65-.17a7.28,7.28,0,1,0,0-14.56h0l-162.65.17a7.28,7.28,0,0,0-.36,14.56Z" fill="url(#Degradado_sin_nombre_137)"/><ellipse cx="890.18" cy="1106.49" rx="17.35" ry="10.67" transform="translate(-435.82 1614.89) rotate(-72.16)" fill="url(#Degradado_sin_nombre_138)"/><rect x="1148.5" y="1316.74" width="13.97" height="151.13" fill="url(#Degradado_sin_nombre_73-4)"/><path d="M1216.71,1470.78h-122.4v-.66a8.44,8.44,0,0,1,8.44-8.44h104.86a9.09,9.09,0,0,1,9.1,9.08h0Z" fill="url(#Degradado_sin_nombre_73-5)"/><rect x="1080.96" y="1282.88" width="153.89" height="43.65" rx="15.03" fill="url(#Degradado_sin_nombre_73-6)"/><rect x="419.71" y="1262.98" width="17.21" height="186.09" fill="url(#Degradado_sin_nombre_81)"/><path d="M352.91,1452.66H503.63v-8.35a2.86,2.86,0,0,0-2.86-2.85H356.07a3.08,3.08,0,0,0-3.08,3.08Z" fill="url(#Degradado_sin_nombre_81-2)"/><rect x="318.72" y="1221.33" width="201.39" height="57.12" rx="19.67" fill="url(#Degradado_sin_nombre_114-13)"/><path d="M1052.32,1216s-20.76,3.22-44.11,18.83a11.65,11.65,0,0,0-5.14,11.12c2.8,22.14,14.29,93.82,52.2,163.82a17.59,17.59,0,0,1,1.69,12.1l-6.59,30.64L1038.16,1464h31.46l20.94-56.68-9-2.83a16.94,16.94,0,0,1-11.84-15.86l-1-60.8c.9-27.09-16.61-45.78-16.61-45.78l50.24-2.44Z" fill="url(#Degradado_sin_nombre_93)"/><path d="M1025.87,1469.46c-2.87,3.75,30.83,8.7,47.86.5,0,0,23.6-41.06,23.6-62.2,0,0-1.88-4.31-15.73-3.34,0,0-7.93,48.62-16.3,54.07s-23.4.55-23.4.55S1030.11,1464,1025.87,1469.46Z" fill="url(#Degradado_sin_nombre_81-3)"/><path d="M1096,1282.87c-.27-.46-54.08-6.47-54.08-6.47s1.76,16.37-3.75,38.89-84.52,120.12-84.52,120.12l8.28,26.27c-25.61,8.92-50.81,10.35-75.61,4.55l51.35-30.82s48.05-163.76,77.49-193l53.95-18.67Z" fill="url(#Degradado_sin_nombre_93-2)"/><path d="M1216.71,1187.59s31,46.12,33.55,67.15-8.49,29.59-41,31-119.39,1.39-119.39,1.39l-74.16-63.36s54-19.27,68.07-24.72S1216.71,1187.59,1216.71,1187.59Z" fill="url(#Degradado_sin_nombre_81-4)"/><path d="M958.79,1452.83s8.92,8.64,2.9,18.26c0,0-70.66,12.52-89.85,6.84,0,0,4-9.09,25.59-19.44l-1.6,1.22a2.58,2.58,0,0,0,1.71,4.63C911.77,1463.53,941.23,1461,958.79,1452.83Z" fill="url(#Degradado_sin_nombre_81-5)"/><rect x="64.43" y="1305.05" width="12.44" height="134.54" fill="url(#Degradado_sin_nombre_73-7)"/><path d="M16.17,1442.18h109a8.1,8.1,0,0,0-8.1-8.1H24.3a8.1,8.1,0,0,0-8.1,8.1Z" fill="url(#Degradado_sin_nombre_73-8)"/><rect y="1274.9" width="137" height="38.86" rx="13.38" fill="url(#Degradado_sin_nombre_73-9)"/><path d="M159.61,1217.73s18.49,2.86,39.27,16.76a10.4,10.4,0,0,1,4.58,9.9c-2.49,19.72-12.73,83.53-46.47,145.85a15.65,15.65,0,0,0-1.51,10.76l5.87,27.29,10.87,10.17h-28L125.58,1388l8-2.52a15.11,15.11,0,0,0,10.54-14.12l.93-54.13c-.8-24.11,14.79-40.75,14.79-40.75l-44.72-2.18Z" fill="url(#Degradado_sin_nombre_93-3)"/><path d="M186,1441c2.55,3.34-27.45,7.74-42.6.44,0,0-21-36.55-21-55.37,0,0,1.67-3.84,14-3,0,0,7.06,43.28,14.51,48.13s20.84.49,20.84.49S182.28,1436.07,186,1441Z" fill="url(#Degradado_sin_nombre_81-6)"/><path d="M123.62,1274.9c.24-.41,48.16-5.76,48.16-5.76s-1.57,14.57,3.33,34.62,75.24,106.94,75.24,106.94L243,1434.08c22.8,8,45.24,9.22,67.31,4l-45.71-27.43s-42.78-145.79-69-171.8l-48-16.61Z" fill="url(#Degradado_sin_nombre_93-4)"/><path d="M245.77,1426.21s-8,7.69-2.58,16.25c0,0,62.91,11.15,80,6.09,0,0-3.55-8.1-22.78-17.31l1.42,1.09a2.3,2.3,0,0,1-1.52,4.12C287.63,1435.73,261.4,1433.41,245.77,1426.21Z" fill="url(#Degradado_sin_nombre_81-7)"/><path d="M150.81,1199.19c-3.65-1.42-15.3-2.88-29.94-4.24h0c15.51-22.32,24.66-48.35,29.4-76.94l-73.89-1.61c-6.92,25.48-45.7,75.25-48.39,79.52,0,0-23.7,38.89-25.39,52.86-2.26,18.73,7.57,26.34,36.53,27.59s106.29,1.24,106.29,1.24l66-56.4S163.32,1204.05,150.81,1199.19Z" fill="url(#Degradado_sin_nombre_137-2)"/><path d="M92.87,1473.31a11.45,11.45,0,0,1-3.34-.5c-4.3-1.33-6.28-4.93-4.43-8l177.57-298.06c1.85-3.1,6.83-4.53,11.13-3.2s6.28,4.93,4.43,8L100.65,1469.61C99.23,1472,96.1,1473.31,92.87,1473.31Z" fill="url(#Degradado_sin_nombre_79)"/><path d="M292.87,1473.31c-3.28,0-6.41-1.38-7.78-3.7L107.51,1171.55c-1.85-3.1.14-6.69,4.43-8s9.28.1,11.13,3.2l177.57,298.06c1.85,3.1-.13,6.7-4.43,8A11.45,11.45,0,0,1,292.87,1473.31Z" fill="url(#Degradado_sin_nombre_79-2)"/><path d="M561.71,1414.8s47.63,34.33,39.36,57.4c0,0-52.11-22.49-58.41-40.2s1.07-25.53,1.07-25.53Z" fill="url(#Degradado_sin_nombre_137-3)"/><path d="M554.51,1386.07l-7.79,22.51a7.82,7.82,0,0,0,3,9.19,20.49,20.49,0,0,0,6.44,2.5,9.13,9.13,0,0,0,10.09-4.58l9.31-17.54Z" fill="url(#Degradado_sin_nombre_93-5)"/><path d="M478.71,1183.38s97.82,17,139.79,55.72S580,1401.53,580,1401.53s-13.19-.09-29.16-13.78c0,0,47.72-93,6.59-120.13-46.24-30.49-99.52-37.36-99.52-37.36l19.87-43.89Z" fill="url(#Degradado_sin_nombre_44)"/><path d="M592.71,1459.44c-10.48-4.85-40.14-25.61-45.14-26.52s-13.67,5-13.67,5-2.11,3.79.15,10.41c7,8.42,22.42,24.48,43.2,30.46,15.28,4.4,26,.3,32.63-4.5A44.17,44.17,0,0,0,592.71,1459.44Z" fill="url(#Degradado_sin_nombre_137-4)"/><path d="M577.29,1478.75c-20.78-6-36.24-22-43.2-30.46,1.52,4.47,5,10.23,12.55,17,18.63,16.74,54.21,22.78,61.79,21.62,6.07-.94,5.5-6.54,1.49-12.64C603.26,1479.07,592.57,1483.15,577.29,1478.75Z" fill="url(#Degradado_sin_nombre_138-2)"/><path d="M525.06,1423.22c.12,2.89,6,12.79,9.46,18.34a9,9,0,0,0,7.62,4.26,22.63,22.63,0,0,0,6.29-.76,5.81,5.81,0,0,0,3.92-7.22h0l-6.74-23Z" fill="url(#Degradado_sin_nombre_93-6)"/><path d="M384.55,1154s-21.73,58.1,0,75.76,73.55,37.56,85.13,72.75,31.23,103.57,57.52,127.79c0,0,18.47-1.79,25.39-9.15,0,0-15-102.09-24.85-128.28-8.56-22.69-21.16-55.43-45.31-73.73-6.91-5.24-5.71-13.54-2.5-21.6l5.83-14.68Z" fill="url(#Degradado_sin_nombre_137-5)"/><path d="M611.14,1108.48c-36.43,2.2-25.08-56-24.42-58.32l-55.29,39.06s2.92,31.12,48.89,47.44A57.14,57.14,0,0,0,612,1139,50.28,50.28,0,0,1,611.14,1108.48Z" fill="url(#Degradado_sin_nombre_138-3)"/><path d="M681.58,1091c-13.58-9.44-29,0-29,0-18.15,11.87-31.58,16.92-41.48,17.52a50.28,50.28,0,0,0,.84,30.48c20.33-4.37,34.88-19.09,41.2-26.64a6.56,6.56,0,0,1,9.09-1c2.83,2.23,5.57,5.28,5.07,8.5-1,6.34,6.38,8.36,6.94,6.06s-2.52-15.94-2.52-15.94,14.72,14.81,20.47,20.49,13,0,13,0S695.15,1100.41,681.58,1091Z" fill="url(#Degradado_sin_nombre_93-7)"/><path d="M441.28,960.29s53-21.22,151.62,60.2c0,0,8.24,17.06-.75,32.23s-94.62,89.14-106.39,130.15c0,0-51,16.58-103.77-22.73C382,1160.14,386.64,1046,441.28,960.29Z" fill="url(#Degradado_sin_nombre_138-4)"/><path d="M546.05,941.35,520,973a10.38,10.38,0,0,0-1.37,11.16c3.62,7.39,12.21,18.14,31.27,16.65a16,16,0,0,0,13.16-9l18.24-37.71Z" fill="url(#Degradado_sin_nombre_93-8)"/><path d="M400.25,1095.74c-6.16-25,56.16-80.92,56.16-80.92l-15.13-54.53S306.71,1049.87,341,1121.91c4.92,10.32,11.45,17.56,19,22.39C370.87,1115.14,388.12,1101.76,400.25,1095.74Z" fill="url(#Degradado_sin_nombre_138-5)"/><path d="M400.2,1092.07a1.47,1.47,0,0,1-1.43-1.12c-6.29-25.62,54-80.06,56.62-82.36a1.48,1.48,0,0,1,2,2.19c-.61.55-61.59,55.55-55.72,79.47a1.48,1.48,0,0,1-1.08,1.78h0A1.29,1.29,0,0,1,400.2,1092.07Z" fill="url(#Degradado_sin_nombre_138-6)"/><path d="M494.63,1093.59s-73.88,28.68-91.92,7.1a12,12,0,0,1-2.46-5c-12.13,6-29.4,19.4-40.23,48.56,38.86,24.83,105.28-13.81,123.24-25.2a13.4,13.4,0,0,1,9.93-1.82c6.92,1.43,18.89,3.54,25.34,2.55,9.44-1.45,23,31.85,38.31,21.58C556.87,1141.41,543.71,1083.52,494.63,1093.59Z" fill="url(#Degradado_sin_nombre_93-9)"/><path d="M785.5,1012.2H650A25.8,25.8,0,0,0,626.7,1027l-62.62,132.78H732.41a15.68,15.68,0,0,0,14.59-9.93L795.56,1027a10.81,10.81,0,0,0-10.06-14.79Z" fill="url(#Degradado_sin_nombre_137-6)"/><path d="M611.13,905S611.58,939.4,606,955s-6.43,26.94-25.39,22.6-30.16-19.39-31.83-38c0,0-2.79-28.77,4.08-37.18S611.13,905,611.13,905Z" fill="url(#Degradado_sin_nombre_93-10)"/><path d="M559.42,931.22l2.24.94s-1.28-22.75,8.2-22.67,44.26,7,55.94-1.47c11.27-8.16,11.27-24.81,4-32.51a1.3,1.3,0,0,0-1.75-.08l-1.32,1.09a1.3,1.3,0,0,1-2.12-1.16h0a1.29,1.29,0,0,0-1.12-1.44,1.3,1.3,0,0,0-.88.21c-3.55,2.51-11.6,5.63-28.15,2-23.5-5.13-41.62-2.36-48.3,12.56a1.31,1.31,0,0,1-1.71.68,1.28,1.28,0,0,1-.56-.47c-1.2-1.66-3.58-3.2-8.24-1.75-8.1,2.52-11.13,16.61-2.52,32.86a1.29,1.29,0,0,1-.49,1.76h0a1.18,1.18,0,0,1-.37.14c-3,.55-8.12,2.74-1,11.52,7.3,9,13.09,10.76,15.42,11.1a1.32,1.32,0,0,0,1.43-.86L552.87,930a1.29,1.29,0,0,1,1.64-.8h.09Z" fill="url(#Degradado_sin_nombre_137-7)"/><path d="M558.8,934.24s3-20.63-7.56-18.91-4.42,22.65,2,26.16Z" fill="url(#Degradado_sin_nombre_93-11)"/><path d="M1599.92,1155.64c.84-2.62-.31-5.33-3.13-7.39a19.88,19.88,0,0,0-11.45-3.25H84.19c-5.83,0-11.26,1.79-14.4,4.75s-3.56,6.67-1.11,9.86l16.26,21.21c3.73,4.86,11.8,8,20.68,8H1575c8.26,0,15.36-3.53,16.93-8.42Z" fill="url(#Degradado_sin_nombre_79-3)"/><path d="M1481,1150.32h-.34l-145.95-.14a6.52,6.52,0,0,1-1-13,5.57,5.57,0,0,1,1,0l145.95.14a6.52,6.52,0,0,1,.32,13Z" stroke="#a9afea" stroke-miterlimit="10" fill="url(#Degradado_sin_nombre_137-8)"/><path d="M1278.15,1007.38c0,.1.1.2.14.3l61.42,132.39a6.52,6.52,0,1,1-11.84,5.48h0l-61.41-132.4a6.52,6.52,0,0,1,11.69-5.79h0Z" stroke="#ccf" stroke-miterlimit="10" fill="url(#Degradado_sin_nombre_137-9)"/><path d="M1494.54,1448.22c23.24,0,33.53-2,38.12-3.81a8.83,8.83,0,0,1-8.58,6.83h-82.21a4,4,0,0,1-4-4,3.77,3.77,0,0,1,.14-1C1447.37,1447,1467.28,1448.22,1494.54,1448.22Z" fill="url(#Degradado_sin_nombre_81-8)"/><path d="M1438,1446.19a3.86,3.86,0,0,1,.67-1.4c6.27-8,18.85-20.56,36-20.32,25.07.36,33.82,3.08,53.3.16l4.6,15.23a8.78,8.78,0,0,1,.13,4.55c-4.59,1.81-14.88,3.81-38.12,3.81C1467.28,1448.22,1447.37,1447,1438,1446.19Z" fill="url(#Degradado_sin_nombre_81-9)"/><path d="M1522.29,1408.21l5.64,19.19s-12.5,5.69-23.49,1.12l-2.16-16.63Z" fill="url(#Degradado_sin_nombre_93-12)"/><path d="M1351.87,1436.13c18.12,14.56,27.38,19.46,32.1,20.92a8.81,8.81,0,0,1-11-.08l-64.09-51.5a4,4,0,0,1-.6-5.62h0a4.45,4.45,0,0,1,.74-.7C1315.87,1405.6,1330.62,1419.07,1351.87,1436.13Z" fill="url(#Degradado_sin_nombre_81-10)"/><path d="M1309.06,1399.14a3.84,3.84,0,0,1,1.4-.66c9.87-2.28,27.5-4.15,40.69,6.76,19.33,16,24.45,23.56,41.46,33.5l-5.92,14.7a8.66,8.66,0,0,1-2.72,3.61c-4.72-1.46-14-6.36-32.1-20.92C1330.62,1419.07,1315.87,1405.6,1309.06,1399.14Z" fill="url(#Degradado_sin_nombre_81-11)"/><path d="M1643,1189.58s-139.11,11.38-167.69,24.8,23.29,201.78,23.29,201.78,7.77,3.74,25.06-1.64c0,0-17.73-139-4.53-169.12l150.66-24.64Z" fill="url(#Degradado_sin_nombre_137-10)"/><path d="M1406.43,1412.29c-1.29,1.17-13.82,26.45-13.82,26.45s-14-3-16.8-11.85l12.55-22.81Z" fill="url(#Degradado_sin_nombre_93-13)"/><path d="M1726.79,1188.42a70.56,70.56,0,0,1,4.35,25.41c-.26,20-16.38,36.33-36.41,37.33l-164.49,7.5a7.89,7.89,0,0,0-7.29,5.93c-3.86,15-22.76,60.86-115.12,152.48a7.45,7.45,0,0,1-9.21,1l-13.15-8.31a3,3,0,0,1-1-4.09l95.78-163.55a37,37,0,0,1,22.52-16.71l140.2-35.84Z" fill="url(#Degradado_sin_nombre_137-11)"/><path d="M1536,936.6s46.34,27.49,64.31,42.58l-37.14,20.72s-20.07-23.18-39.18-32.84Z" fill="url(#Degradado_sin_nombre_93-14)"/><path d="M1729.78,1189.58s-44.41,10.83-86.8,0c0,0-59.31-79.73-82.26-101.43,0,0-36.6,57.76-118.07,65.94l-4.54-10.15s64.86-29.9,84.82-75.84,28-65.53,46.15-77.52c11.32-7.46,18.09-12.56,21.59-15.34a5.8,5.8,0,0,1,6.65-.43C1616.6,986.56,1707.31,1048.69,1729.78,1189.58Z" fill="url(#Degradado_sin_nombre_73-10)"/><path d="M1585.08,1045.27a176.33,176.33,0,0,1-21.95,38.91Z" fill="url(#Degradado_sin_nombre_73-11)"/><path d="M1447.55,1138.64l-9.17-2.45-27.84-6.44a12.87,12.87,0,0,0-9.79,1.65l-23.94,15.06,66.11-.11Z" fill="url(#Degradado_sin_nombre_93-15)"/><path d="M1473.24,931.23s14.22,30.81,25.81,42.35,17.16,21.22,32.17,9.31,18.58-30,12.16-47.3c0,0-9.73-26.75-19.41-31.32S1473.24,931.23,1473.24,931.23Z" fill="url(#Degradado_sin_nombre_93-16)"/><path d="M1530.36,932.63l-1.07.48a2.6,2.6,0,0,1-3.44-1.26h0l-.06-.15c-2.07-5.41-7.42-17.13-13.94-14-7.71,3.76-21.42,10.42-26.17,17.57-1.9,2.85-3.51,6.11-6.46,7.83-3.57,2.09-8.1,1.35-12,.07-10.13-3.32-18.81-15.13-18.9-25.81a16.27,16.27,0,0,1,7.55-14.25c4.27-2.8,17.17-2.74,18.31-7.21,1.25-4.89,4.9-8.92,9.22-11.51s9.31-3.89,14.27-4.77c5.52-1,11.28-1.45,16.66.13,5.66,1.67,9.85,3.35,15.74,3.62,3.72.16,6.33-.26,9.62,1.83,8.06,5.1,9.65,17.76,9.29,26.29a1.26,1.26,0,0,0,1.16,1.35h0a1.27,1.27,0,0,0,.39,0c10.86-3,3.91,12.5,4.83,17,.69,3.34,7.65,16.54.64,17.73-2.26.38-4.43-.88-6.38-2.09-7.36-4.58-9.26-9.81-14-16.4a1.29,1.29,0,0,0-1.8-.28,1.12,1.12,0,0,0-.2.18Z" fill="#336"/><path d="M1532.2,935.07s-11.41-17.08-1.32-20,13.55,18.26,9.34,24.1Z" fill="url(#Degradado_sin_nombre_93-17)"/><path d="M1367.33,1485.43a11.44,11.44,0,0,1-3.34-.49c-4.3-1.32-6.28-4.89-4.44-8l177.58-295.23c1.85-3.07,6.82-4.49,11.12-3.17s6.28,4.88,4.44,8l-177.58,295.23C1373.71,1484.07,1370.61,1485.43,1367.33,1485.43Z" fill="url(#Degradado_sin_nombre_79-4)"/><path d="M1567.37,1485.43c-3.28,0-6.4-1.37-7.78-3.66L1382,1186.53c-1.85-3.07.13-6.63,4.43-8s9.27.09,11.12,3.17L1575.15,1477c1.84,3.07-.14,6.64-4.43,8A11.54,11.54,0,0,1,1567.37,1485.43Z" fill="url(#Degradado_sin_nombre_79-5)"/><path d="M200.41,936.65c0,3.82-34.46,145.48-34.46,145.48L67.78,1111A44.13,44.13,0,0,1,18,1092.19h0A88.73,88.73,0,0,1,45.82,969.83h.06l13.9-8.74A261.14,261.14,0,0,0,135,889.28l5.24-7.51Z" fill="url(#Degradado_sin_nombre_84)"/><path d="M26.5,1075.84h-.13c-4-2.39-13.16-10.07-13-29.88a76.89,76.89,0,0,1,10-37.1c11.49-20.26,31.32-34,50.5-47.27l4-2.75c19.46-13.54,41-30,49.67-53.7a.26.26,0,0,1,.32-.15.25.25,0,0,1,.15.32c-8.77,23.87-30.33,40.36-49.86,53.94l-4,2.75C55,975.25,35.23,989,23.79,1009.11A76.36,76.36,0,0,0,13.88,1046c-.18,19.55,8.85,27.1,12.74,29.44a.23.23,0,0,1,.09.31A.22.22,0,0,1,26.5,1075.84Z" fill="#fff"/><path d="M27.46,1057.05a.25.25,0,0,1-.24-.2c-2.61-13.25-2.22-25.09,1.16-35.19,6.11-18.27,22.27-31.52,35.67-41,2.68-1.9,5.45-3.81,8.13-5.65,12.31-8.48,25-17.24,34.26-29.15a.25.25,0,0,1,.34,0h0a.23.23,0,0,1,0,.34h0c-9.26,12-22,20.76-34.38,29.25-2.68,1.84-5.44,3.75-8.12,5.65-25.39,18-32.3,31.26-35.48,40.78-3.36,10-3.74,21.77-1.15,34.93a.26.26,0,0,1-.2.3Z" fill="#fff"/><path d="M153.33,1117.92s32.14-30.61,48-50.88a43,43,0,0,0,7.28-38.71c-7.22-24.34-20.06-49.55-21.23-53.47-1.8-6-37.84-5.77-37.84-5.77s-70.93,46-98.8,124l31.3,9.74s18.52-31.07,36.82-50.82c0,0-31.66,41.83-32.78,59Z" fill="url(#Degradado_sin_nombre_81-12)"/><path d="M193.53,940.82c-.37,1.25-15.11,40.69-15.84,41.34s-20.64,1.72-30-4.68L170.92,932Z" fill="url(#Degradado_sin_nombre_93-18)"/><path d="M189.71,875.58s17,8.36,27.48,34.27.91,37-10.32,38-27.86-.22-44.55-17.52S167.51,865.55,189.71,875.58Z" fill="url(#Degradado_sin_nombre_93-19)"/><path d="M174.92,917.54s-11.07-37.65,21.68-36.23l7.39,5.82s13.17-19.78-6-30.67-49-3.86-59,22.21-6,43.5,7.28,57,19.79-.58,19.79-.58-6.92-12.31-3.47-18.49,10.16,1.9,10.16,1.9Z" fill="url(#Degradado_sin_nombre_84-2)"/><path d="M174.81,924.13s-15.25-16.22-20.83-4.59,15.17,14.5,23,15Z" fill="url(#Degradado_sin_nombre_93-20)"/><path d="M218.27,1120.24l-23.64-22.75L162,1111.29s-32.52,5-51.13,0l-18.61-5-42.1-13.13-6.6,18.67a11.25,11.25,0,0,0,4.1,12.92,74.23,74.23,0,0,0,10.63,6.61c5.54,2.43,136.55-1.67,136.55-1.67Z" fill="url(#Degradado_sin_nombre_86)"/><path d="M1150.55,902.42c4.68,1.46,21.57,7.52,19.39,18.39a2,2,0,0,0,1.63,2.31,1.79,1.79,0,0,0,.86,0c7.28-2,23.35-4.42,33.32,8.06,8.8,11,2.22,21.43-3.14,27.14a2,2,0,0,0,1.67,3.38c13.38-1.69,42.45-2.09,47.21,25.14,4.43,25.4-13.24,32.56-23.73,34.58a2,2,0,0,0-.66,3.64c5.23,3.32,11.29,10.17,8.84,23.7-3.84,21.21-45.41,19.47-50.27,19.2a2,2,0,0,1-.87-.26l-66.6-38a2,2,0,0,1-1-1.4l-13.44-77.65a2,2,0,0,1,.53-1.73l44.21-46A2,2,0,0,1,1150.55,902.42Z" fill="url(#Degradado_sin_nombre_137-12)"/><path d="M1117.21,1144.27s-33.45-37-49.48-61a48.32,48.32,0,0,1-4.93-44c10.13-26.66,26.62-53.82,28.25-58.12,2.52-6.59,42.87-3.3,42.87-3.3s75.61,57.49,100.31,147.17l-35.87,8.29s-18.15-36.34-37-60c0,0,32,49.5,31.79,68.77Z" fill="url(#Degradado_sin_nombre_138-7)"/><path d="M1086.25,945.21c.42,1.47,11,38.11,11.81,38.88s23.18,2,33.7-5.51l-17.89-39.08Z" fill="url(#Degradado_sin_nombre_93-21)"/><path d="M1094.61,873.37s-19.08,8-32,35.62-3.29,40.29,8.88,42,30.36,1.48,49.61-16.32S1119.4,863.82,1094.61,873.37Z" fill="url(#Degradado_sin_nombre_93-22)"/><path d="M1106.11,921s14.4-40.33-21.36-40.81l-8.42,5.88s-13.12-22.36,8.42-33,46.73-1.86,55.9,27.15,10.73,48.43-4.52,62.31-21.53-1.86-21.53-1.86,8.3-13,4.92-19.92-11.17,1.43-11.17,1.43Z" fill="url(#Degradado_sin_nombre_137-13)"/><path d="M1105.23,932.46s7.45-21.3,18.19-13.12-8.15,19.7-15.56,23.46Z" fill="url(#Degradado_sin_nombre_93-23)"/><path d="M1042.45,1136.67l28.11-23.82,35.63,17.81s36.1,8,57.32,3.67l21.23-4.32,48.09-11.66,6.07,21.4a12.64,12.64,0,0,1-5.53,14.18c-4.27,2.64-9.25,5.52-12.38,6.66-6.39,2.32-153-11.67-153-11.67Z" fill="url(#Degradado_sin_nombre_93-24)"/><path d="M1012.55,165.31s.29-.48.85-1.35a1.08,1.08,0,0,1,1.47-.33,1,1,0,0,1,.44.58c.46-.13,1-.26,1.55-.4a1.06,1.06,0,0,1,.5,2.07c-1.61.39-2.75.74-3.29.91l-.32.09-2.54.68Zm3.86-5.81c1-1.43,2.09-2.89,3.18-4.31a1.06,1.06,0,0,1,1.69,1.29h0c-1.08,1.41-2.13,2.84-3.13,4.25a1.07,1.07,0,0,1-1.49.26,1,1,0,0,1-.21-.21,1.08,1.08,0,0,1,0-1.28Zm4.87,4.48a1.08,1.08,0,0,1,.9-1.21c1.79-.26,3.6-.44,5.41-.52a1.08,1.08,0,0,1,1,1.12,1.07,1.07,0,0,1-.93,1,50.08,50.08,0,0,0-5.19.5,1.11,1.11,0,0,1-1-.39,1.2,1.2,0,0,1-.21-.51Zm10.61-.66a1.06,1.06,0,0,1,1.11-1h0a35.4,35.4,0,0,1,5.41.85,1.06,1.06,0,1,1-.5,2.07h0a32.29,32.29,0,0,0-5.09-.8,1.06,1.06,0,0,1-1-1.12h.07Zm-9-12.36c1.15-1.39,2.32-2.76,3.49-4.08a1.06,1.06,0,0,1,1.5-.09h0a1.07,1.07,0,0,1,.09,1.51c-1.15,1.29-2.31,2.64-3.43,4a1.06,1.06,0,0,1-1.49.15h0a.75.75,0,0,1-.16-.15,1.07,1.07,0,0,1,0-1.33Zm19.34,14.52a1.06,1.06,0,0,1,1.39-.54h0a25.26,25.26,0,0,1,3.46,1.9c.43.29.85.55,1.26.8a1.07,1.07,0,0,1,.36,1.46,1,1,0,0,1-1.35.42l-.09-.05h0c-.44-.26-.88-.54-1.33-.84a22.7,22.7,0,0,0-3.17-1.74,1.3,1.3,0,0,1-.39-.31,1,1,0,0,1-.1-1.1Zm14.48,15.06a1.05,1.05,0,0,1,1.13-.25,7.81,7.81,0,0,1,3.19-.21,1.06,1.06,0,0,1-.23,2.11,4.73,4.73,0,0,0-3.42.67l-1.36-1.63Zm-5.17-10a1.08,1.08,0,0,1,1.39-.6,18.89,18.89,0,0,0,4.85,1.29,1.07,1.07,0,0,1-.25,2.12,21.46,21.46,0,0,1-5.39-1.43.89.89,0,0,1-.44-.32,1.11,1.11,0,0,1-.13-1ZM1030,143c1.25-1.29,2.52-2.57,3.8-3.79a1.06,1.06,0,0,1,1.47,1.53h0c-1.25,1.2-2.51,2.46-3.73,3.73a1.07,1.07,0,0,1-1.5,0h0l-.09-.11a1.07,1.07,0,0,1,.09-1.33Zm30.42,33.8c1.43-1.48,2.65-2.78,3.64-3.86a1.07,1.07,0,1,1,1.71,1.29l-.14.15c-1,1.09-2.24,2.41-3.68,3.9a1.07,1.07,0,0,1-1.5,0h0a.28.28,0,0,1-.09-.1,1.07,1.07,0,0,1,.09-1.35Zm4.65,5.25a1.06,1.06,0,0,1,1.28-.78,52,52,0,0,0,5.12,1,1.07,1.07,0,0,1,.89,1.22,1,1,0,0,1-1.1.89h-.09c-2-.31-3.74-.7-5.3-1.07a1.12,1.12,0,0,1-.58-.37,1.07,1.07,0,0,1-.17-.8Zm-3.21-9.75a1.06,1.06,0,0,1,.73-1.31h0a13.65,13.65,0,0,0,3.6-1.7q.49-.31.81-.48l.3-.12a1,1,0,0,1,1.29.58h0v.1a1.1,1.1,0,0,1-.69,1.36,6,6,0,0,0-.6.36,15.48,15.48,0,0,1-4.16,1.94,1,1,0,0,1-1.12-.36.91.91,0,0,1-.17-.34Zm-24.13-36.72c1.21-1.06,2.44-2.09,3.66-3.06l.47-.38a1.08,1.08,0,0,1,1.5.17h0a1.06,1.06,0,0,1-.16,1.48h0l-.46.37c-1.2,1-2.4,2-3.58,3a1.07,1.07,0,0,1-1.51-.1h0a1.06,1.06,0,0,1,.13-1.46Zm37.78,48.26a1.06,1.06,0,0,1,1.11-1c1.69.07,3.44,0,5.2,0a1.06,1.06,0,1,1,.13,2.12h0c-1.81.09-3.61.09-5.42,0a1.06,1.06,0,0,1-1-1.11Zm10.61-.4a1,1,0,0,1,.78-1.18h.11l1.12-.18a35.72,35.72,0,0,0,3.95-.88,1.06,1.06,0,0,1,1.15,1v0h0a1,1,0,0,1-.57,1,35.07,35.07,0,0,1-4.18.94l-1.15.18a1.07,1.07,0,0,1-1-.39,1.14,1.14,0,0,1-.18-.44Zm-40.21-53a1.07,1.07,0,0,1,.26-1.48c1.49-1,3-2,4.5-3a1.07,1.07,0,0,1,1.11,1.82c-1.45.89-2.93,1.86-4.38,2.89a1.08,1.08,0,0,1-1.45-.21Zm50.48,50.39a1.06,1.06,0,0,1,.52-1.41h0a35.35,35.35,0,0,0,4.51-2.49,1.07,1.07,0,1,1,1.34,1.67h0l-.17.11a36.65,36.65,0,0,1-4.79,2.65,1.06,1.06,0,0,1-1.27-.3,1,1,0,0,1-.11-.23Zm-41.48-56.07a1.05,1.05,0,0,1,.43-1.42h0c1.61-.85,3.25-1.62,4.87-2.32a1.08,1.08,0,0,1,.84,2h0c-1.57.67-3.16,1.43-4.73,2.24A1.06,1.06,0,0,1,1055,125a1.43,1.43,0,0,1-.08-.22Zm50.61,49a37,37,0,0,0,3.61-3.69,1.06,1.06,0,0,1,1.62,1.38h0a39.07,39.07,0,0,1-3.82,3.9,1.06,1.06,0,0,1-1.5-.09h0a1.06,1.06,0,0,1,.12-1.47Zm-40.84-53.32a1.06,1.06,0,0,1,.68-1.34h0c1.73-.57,3.49-1,5.22-1.45a1.07,1.07,0,0,1,.47,2.08c-1.67.38-3.36.84-5,1.39a1.08,1.08,0,0,1-1.17-.34,1.58,1.58,0,0,1-.2-.36Zm47.6,45.5a23,23,0,0,0,2.23-4.26l.34-2.33a1.06,1.06,0,0,1,1.2-.9h0a1.08,1.08,0,0,1,.9,1.21l-.33,2.27h0c-.23,1.52-2.5,5.11-2.53,5.15a1.06,1.06,0,0,1-1.46.34h0a1,1,0,0,1-.26-.23,1.07,1.07,0,0,1-.12-1.24Zm-37.29-48a1.07,1.07,0,0,1,.93-1.18,49.16,49.16,0,0,1,5.42-.36,1.07,1.07,0,0,1,0,2.13,47.25,47.25,0,0,0-5.18.34,1.07,1.07,0,0,1-1-.39,1.16,1.16,0,0,1-.21-.57Zm10.61-.35a1.06,1.06,0,0,1,1.11-1h0a46.27,46.27,0,0,1,5.36.83,1.06,1.06,0,0,1,.83,1.25h0a1.08,1.08,0,0,1-1.27.82,46.75,46.75,0,0,0-5.13-.8,1.08,1.08,0,0,1-.72-.39,1,1,0,0,1-.27-.75Zm30,36.53.76-5.26a1.07,1.07,0,0,1,2.11.3l-.77,5.26a1.06,1.06,0,0,1-1.19.91h0a1.11,1.11,0,0,1-.93-1.2ZM1096,119.51a1.07,1.07,0,0,1,1.34-.69c1.68.54,3.39,1.19,5.07,1.91a1.09,1.09,0,0,1-.69,2.07l-.16-.07h0c-1.62-.7-3.26-1.32-4.87-1.84a1,1,0,0,1-.5-.35,1.06,1.06,0,0,1-.22-1.06Zm21.12,24,.76-5.26a1.07,1.07,0,0,1,2.14.14h0v.17l-.77,5.26a1.06,1.06,0,0,1-1.2.9h0a1.08,1.08,0,0,1-.68-.39,1,1,0,0,1-.25-.81Zm-11.3-20a1.06,1.06,0,0,1,1.44-.43h0c1.55.84,3.11,1.77,4.64,2.76a1.07,1.07,0,0,1-1.16,1.79c-1.48-1-3-1.87-4.49-2.68a.76.76,0,0,1-.32-.27,1.07,1.07,0,0,1-.14-1.18Zm9,5.63a1.07,1.07,0,0,1,1.49-.21c1.37,1,2.74,2.14,4.1,3.29l.44.38-.1.71a1.08,1.08,0,0,1-1.21.9,1,1,0,0,1-.82-.63l-3.69-3a1.05,1.05,0,0,1-.23-1.47h0Z" fill="#fff"/><path d="M1116,150s-10.88,20.91-27.09,14.58-31-16.74-38.51-13.49c0,0,28.65-36.1,65.88-9.4Z" fill="url(#Degradado_sin_nombre_114-14)"/><path d="M1158.71,175.18s-2.82,23-10.12,25.82c-6.95,2.72-59.13-2-64.2-2.44a.42.42,0,0,1-.39-.44h0a5.9,5.9,0,0,1,2.49-4.76c7.46-5.31,29.88-21,38.17-23.52C1134.65,166.75,1158.71,175.18,1158.71,175.18Z" fill="url(#Degradado_sin_nombre_138-8)"/><path d="M1103.12,197.07a.53.53,0,0,0,.37.2c.29,0,28.91,2.1,41.27,2.51a5.56,5.56,0,0,0,5.19-3.13,82.94,82.94,0,0,0,5.8-15.78.53.53,0,0,0-.94-.49h0a.54.54,0,0,0-.06.25,80.32,80.32,0,0,1-5.72,15.55,4.5,4.5,0,0,1-4.2,2.54c-12.33-.42-40.93-2.49-41.22-2.51a.53.53,0,0,0-.56.49.54.54,0,0,0,.11.37Z" fill="#fff"/><path d="M1159.37,121.43s-2.22-23-9.44-26.07c-6.88-2.89-59.16.45-64.25.78a.43.43,0,0,0-.4.43h0a5.89,5.89,0,0,0,2.37,4.82c7.32,5.5,29.33,21.73,37.55,24.5C1135.14,129.24,1159.37,121.43,1159.37,121.43Z" fill="url(#Degradado_sin_nombre_138-9)"/><path d="M1104.39,98.76a.54.54,0,0,0,.44.2c.29,0,28.93-1.35,41.27-1.44a4.48,4.48,0,0,1,4.13,2.64,80.67,80.67,0,0,1,5.32,15.7.54.54,0,0,0,.63.41.53.53,0,0,0,.41-.63h0a80.48,80.48,0,0,0-5.39-15.92,5.58,5.58,0,0,0-5.11-3.27c-12.36.1-41,1.43-41.31,1.44a.55.55,0,0,0-.51.56A.59.59,0,0,0,1104.39,98.76Z" fill="#fff"/><path d="M1236.39,175.89a119.66,119.66,0,0,1-36.91,5.46c-42.8-.43-74.18-8.15-83-10.58a4.56,4.56,0,0,1-3.21-3.35,80.12,80.12,0,0,1,.2-38.17,6.58,6.58,0,0,1,4.88-4.81c10.39-2.48,41.06-8.77,82-8.12a119.75,119.75,0,0,1,36.52,6.33C1242.49,144,1239,164.41,1236.39,175.89Z" fill="url(#Degradado_sin_nombre_138-10)"/><path d="M1236.87,122.65a123.85,123.85,0,0,1,43.66,25.58,2.23,2.23,0,0,1,.14,3.15h0a.86.86,0,0,1-.13.14,124,124,0,0,1-44.07,24.36C1239,164.41,1242.49,144,1236.87,122.65Z" fill="url(#Degradado_sin_nombre_114-15)"/><path d="M1203,127.37c-11.08-.14-20.19,9.39-20.35,21.28s8.71,21.66,19.8,21.8,20.19-9.38,20.35-21.28S1214.08,127.51,1203,127.37Z" fill="url(#Degradado_sin_nombre_138-11)"/><path d="M1203.51,131.15c-8.84-.11-16.1,7.48-16.22,17s6.94,17.26,15.77,17.37,16.09-7.48,16.22-17S1212.34,131.27,1203.51,131.15Z" fill="url(#Degradado_sin_nombre_137-14)"/><path d="M1206.1,160.38a.54.54,0,0,0,.57.18,13.45,13.45,0,0,0,9.39-12.77,13.71,13.71,0,0,0-.64-4.36.51.51,0,0,0-.63-.35h0a.54.54,0,0,0-.35.67,13.18,13.18,0,0,1,.59,4,12.34,12.34,0,0,1-8.63,11.75.54.54,0,0,0-.36.66A.79.79,0,0,0,1206.1,160.38Z" fill="#fff"/><path d="M1162.56,134.16c-7.32-.1-13.34,6.2-13.44,14.06s5.75,14.31,13.07,14.4,13.35-6.2,13.45-14.06S1169.87,134.25,1162.56,134.16Z" fill="url(#Degradado_sin_nombre_138-12)"/><path d="M1162.87,136.66c-5.83-.08-10.63,4.94-10.71,11.2s4.58,11.4,10.42,11.48,10.63-4.94,10.71-11.21S1168.71,136.73,1162.87,136.66Z" fill="url(#Degradado_sin_nombre_137-15)"/><path d="M1164.47,156.07a.58.58,0,0,0,.57.18,9.06,9.06,0,0,0,6.33-8.61,9.42,9.42,0,0,0-.42-2.94.54.54,0,0,0-.67-.35.54.54,0,0,0-.35.67,8.21,8.21,0,0,1,.38,2.61,8,8,0,0,1-5.57,7.59.54.54,0,0,0-.36.66A.66.66,0,0,0,1164.47,156.07Z" fill="#fff"/><path d="M998.25,164.5l-7,1.71a1.22,1.22,0,1,1-.79-2.31l.21-.05h.08l6.8-1.69h.08a1.23,1.23,0,0,1,.6,2.38Z" fill="#fff"/><path d="M984.21,167.44l-7.14.77a1.19,1.19,0,1,1-.25-2.37h.07l7-.78H984a1.2,1.2,0,0,1,.27,2.39Z" fill="#fff"/><path d="M969.92,168.55l-7.16-.05a1.17,1.17,0,0,1,0-2.33h7.11a1.18,1.18,0,0,1,0,2.35Z" fill="#fff"/><path d="M955.62,168.07l-7.11-.75a1.13,1.13,0,0,1-1-1.25h0a1.14,1.14,0,0,1,1.25-1h0l7,.72h0a1.16,1.16,0,0,1,1,1.26,1.14,1.14,0,0,1-1.26,1Z" fill="#fff"/><path d="M941.45,166.28l-7-1.33a1.11,1.11,0,0,1,.42-2.19h0l6.94,1.29h0a1.12,1.12,0,0,1-.41,2.21h0Z" fill="#fff"/><path d="M927.47,163.36l-6.9-1.81a1.09,1.09,0,0,1,.56-2.1h0l6.83,1.77h0a1.1,1.1,0,0,1,.79,1.34,1.12,1.12,0,0,1-1.34.79Z" fill="#fff"/><path d="M913.71,159.53l-6.77-2.22a1.06,1.06,0,0,1,.66-2h0l6.72,2.17h0a1.08,1.08,0,0,1-.66,2Z" fill="#fff"/><path d="M900.26,155l-6.65-2.55a1,1,0,1,1,.74-1.94h0L901,153h0a1,1,0,0,1,.64,1.26v.09a1.05,1.05,0,0,1-1.35.61Z" fill="#fff"/><path d="M887,149.65l-6.52-2.85a1,1,0,1,1,.8-1.85h0l6.5,2.8h0a1,1,0,0,1,.55,1.3h0a1,1,0,0,1-1.3.55h0Z" fill="#fff"/><path d="M874,143.82l-6.41-3.1a1,1,0,0,1-.45-1.31,1,1,0,0,1,1.31-.46h0l6.39,3.06h0a1,1,0,0,1-.87,1.79Z" fill="#fff"/><path d="M861.27,137.51,855,134.19a1,1,0,0,1,0-1.41,1,1,0,0,1,.89-.28h0l6.28,3.29h0a1,1,0,0,1-.45,2h0a1.1,1.1,0,0,1-.44-.23Z" fill="#fff"/><path d="M848.71,130.77l-6.19-3.51a.92.92,0,0,1-.36-1.25h0a.94.94,0,0,1,1.27-.35h0l6.18,3.47h0a.94.94,0,0,1,.37,1.28,1,1,0,0,1-1.29.37h0Z" fill="#fff"/><path d="M836.41,123.66,830.32,120a.92.92,0,0,1-.28-1.26h0a.92.92,0,0,1,1.21-.31h0l6.08,3.66h0a.93.93,0,0,1-1,1.57h.08Z" fill="#fff"/><path d="M824.27,116.23l-6-3.84a.92.92,0,0,1-.26-1.27.9.9,0,0,1,1.26-.26h0l6,3.82h0a.92.92,0,0,1-.79,1.66l-.11-.06a.21.21,0,0,1-.1-.06Z" fill="#fff"/><path d="M812.33,108.48l-5.89-4a.9.9,0,0,1,1-1.5h0l5.88,4h0a.91.91,0,0,1-1,1.51Z" fill="#fff"/><path d="M800.59,100.46l-5.8-4.11a.91.91,0,0,1,1-1.47h0L801.58,99h0a.91.91,0,0,1-1,1.47Z" fill="#fff"/><path d="M789,92.38l-6-3.6h0a.89.89,0,1,1,.91-1.53h0L790,90.9a.89.89,0,0,1-.91,1.53h0Z" fill="#fff"/><path d="M776.63,85.58l-6.46-2.79h0a.88.88,0,0,1,.7-1.62h0L777.44,84a.89.89,0,0,1-.7,1.63h0Z" fill="#fff"/><path d="M763.54,80.41l-6.76-2h-.07a.89.89,0,0,1-.6-1.09.88.88,0,0,1,1.09-.59l6.87,2a.88.88,0,0,1,.61,1.07h0a.86.86,0,0,1-1,.61Z" fill="#fff"/><path d="M749.87,77l-7-1.08h0a.85.85,0,0,1-.74-.95s0,0,0-.05h0a.88.88,0,0,1,1-.73l7.07,1.1a.86.86,0,0,1,.76,1,.09.09,0,0,0,0,0,.86.86,0,0,1-1,.76h-.13Z" fill="#fff"/><path d="M735.93,75.21l-7-.19h-.06a.87.87,0,0,1-.77-1,.85.85,0,0,1,.77-.77l7.15.19a.87.87,0,0,1,.19,1.73h-.28Z" fill="#fff"/><path d="M721.87,75.27l-7,.7h0a.87.87,0,0,1-.94-.77.84.84,0,0,1,.74-.93h0l7.11-.72a.86.86,0,0,1,.24,1.7h-.17Z" fill="#fff"/><path d="M707.87,77.12,701,78.7H701a.84.84,0,0,1-1-.63.85.85,0,0,1,.63-1l7-1.61a.85.85,0,0,1,1.07.53h0a.86.86,0,0,1-.54,1.08h-.24Z" fill="#fff"/><path d="M694.28,80.72l-6.61,2.44h0a.84.84,0,1,1-.72-1.52h0l.14,0,6.7-2.49a.84.84,0,1,1,.59,1.58h0Z" fill="#fff"/><path d="M681.24,86.07,675,89.4H675A.83.83,0,0,1,674,88h0l.11-.06,6.3-3.39a.83.83,0,0,1,.79,1.47h0Z" fill="#fff"/><path d="M669.08,93.07l-5.7,4.14h0a.83.83,0,0,1-1.15-.17h0a.83.83,0,0,1,.18-1.16h0l5.78-4.2a.84.84,0,1,1,1.2,1.18l-.07.06-.13.1h0Z" fill="#fff"/><path d="M658,101.73l-5.16,4.8h0a.82.82,0,0,1-1.16,0h0a.82.82,0,0,1,0-1.16h0l.1-.09,5.22-4.87a.82.82,0,0,1,1.12,1.2h0Z" fill="#fff"/><path d="M647.87,111.62,643.29,117h0a.81.81,0,0,1-1.14.09.82.82,0,0,1-.09-1.15l4.63-5.43a.82.82,0,0,1,1.14-.11h0a.82.82,0,0,1,.09,1.15h0Z" fill="#fff"/><path d="M639.07,122.6l-3.93,5.85h0a.81.81,0,0,1-1.12.22.79.79,0,0,1-.24-1.08h0l4-5.94a.81.81,0,0,1,1.14-.12.8.8,0,0,1,.2,1h0Z" fill="#fff"/><path d="M631.57,134.53l-3.19,6.29h0a.82.82,0,0,1-1.08.36.81.81,0,0,1-.35-1.08h0l3.23-6.38a.81.81,0,0,1,1.08-.35.8.8,0,0,1,.35,1.07h0Z" fill="#fff"/><path d="M625.61,147.3,623.3,154h0a.79.79,0,0,1-1.49-.51l2.34-6.77a.79.79,0,1,1,1.5.52h0Z" fill="#fff"/><path d="M621.49,160.75l-1.27,6.92v.07a.8.8,0,0,1-.91.63.79.79,0,0,1-.63-.9h0l1.28-7a.79.79,0,0,1,1.55.28h0Z" fill="#fff"/><path d="M619.54,174.67v7.08a.78.78,0,0,1-1.55.18h0a.54.54,0,0,1,0-.18v-7.17a.78.78,0,1,1,1.55-.18.54.54,0,0,1,0,.18h0Z" fill="#fff"/><path d="M620.13,188.68l1.31,6.9v.07a.77.77,0,0,1-.61.9h0a.76.76,0,0,1-.89-.6h0l-1.36-7a.78.78,0,0,1,.62-.91.77.77,0,0,1,.9.61h0Z" fill="#fff"/><path d="M623.45,202.3l2.69,6.49v.07a.77.77,0,0,1-.42,1,.75.75,0,0,1-1-.38v0h0L622,202.83a.77.77,0,0,1,.4-1h0a.77.77,0,0,1,1,.4h0Z" fill="#fff"/><path d="M629.55,214.87a36.61,36.61,0,0,0,4.42,5.36.75.75,0,0,1,0,1.06.77.77,0,0,1-1.07,0,36.27,36.27,0,0,1-4.61-5.58.76.76,0,0,1,1.25-.85Z" fill="#fff"/><path d="M639.39,224.54a29.62,29.62,0,0,0,6.24,3,.75.75,0,1,1-.43,1.44h0a31.31,31.31,0,0,1-6.56-3.12.75.75,0,0,1-.24-1,.76.76,0,0,1,1-.24Z" fill="#fff"/><path d="M652.39,229a32.11,32.11,0,0,0,6.93,0,.75.75,0,0,1,.82.66.73.73,0,0,1-.64.81h0a33.7,33.7,0,0,1-7.24,0,.76.76,0,0,1-.72-.78.75.75,0,0,1,.78-.72h.09Z" fill="#fff"/><path d="M666.12,227.52a37.2,37.2,0,0,0,6.42-2.68.74.74,0,0,1,.69,1.3,40.53,40.53,0,0,1-6.67,2.79.76.76,0,0,1-1-.38.74.74,0,0,1,.35-1h.1Z" fill="#fff"/><path d="M678.4,221.07a43.16,43.16,0,0,0,5.15-4.69.71.71,0,0,1,1,1,44.51,44.51,0,0,1-5.32,4.86.73.73,0,1,1-.9-1.16h.07Z" fill="#fff"/><path d="M687.87,211l1.77-3a32.49,32.49,0,0,0,1.61-3.1h0a.72.72,0,1,1,1.29.64h0a35.92,35.92,0,0,1-1.66,3.2l-1.82,3.12a.73.73,0,0,1-1,.25.71.71,0,0,1-.33-.94l0-.06h0Z" fill="#fff"/><path d="M693.71,198.25A39.84,39.84,0,0,0,695,191.4a.71.71,0,1,1,1.42.14h0a41.78,41.78,0,0,1-1.36,7.1.72.72,0,0,1-.89.49.71.71,0,0,1-.49-.88Z" fill="#fff"/><path d="M695.05,184.45a36.1,36.1,0,0,0-1.29-6.83.7.7,0,0,1,1.35-.39h0a37.13,37.13,0,0,1,1.35,7.09.71.71,0,1,1-1.4.24v-.11Z" fill="#fff"/><path d="M691.19,171.16a39.32,39.32,0,0,0-3.69-5.92.7.7,0,0,1,1.12-.84h0a42,42,0,0,1,3.82,6.12.69.69,0,0,1-.31.94.7.7,0,0,1-.94-.3Z" fill="#fff"/><path d="M682.87,160a51.32,51.32,0,0,0-5.34-4.53.69.69,0,0,1,.82-1.11h0a49.84,49.84,0,0,1,5.52,4.64.71.71,0,0,1-1,1Z" fill="#fff"/><path d="M671.71,151.68a56.19,56.19,0,0,0-6.32-3,.7.7,0,0,1-.37-.9.68.68,0,0,1,.89-.37h0a57.38,57.38,0,0,1,6.47,3.11.69.69,0,0,1,.35.91.67.67,0,0,1-.87.37h0l-.11-.06Z" fill="#fff"/><path d="M658.71,146.33c-2.25-.65-4.57-1.07-6.85-1.62h0a.71.71,0,0,1-.52-.84.7.7,0,0,1,.84-.51h0c2.31.57,4.65,1,7,1.68a.68.68,0,0,1,.47.84h0a.67.67,0,0,1-.82.48h0Z" fill="#fff"/><path d="M644.87,143.57l-7-.68h0a.73.73,0,0,1,.14-1.46h0l7.11.72a.72.72,0,0,1-.14,1.43Z" fill="#fff"/><path d="M630.87,142.65l-7.06.18h0a.78.78,0,0,1,0-1.55h0l7.14-.14a.76.76,0,0,1,.67.84.76.76,0,0,1-.67.67Z" fill="#fff"/><path d="M616.76,143.4l-7,.95h0a.82.82,0,0,1-.22-1.62h0l7.08-.92a.79.79,0,1,1,.21,1.57h0Z" fill="#fff"/><path d="M602.87,145.67,596,147.36h0a.85.85,0,0,1-.41-1.65h0l7-1.68a.83.83,0,0,1,.39,1.62h0Z" fill="#fff"/><path d="M589.24,149.41l-6.62,2.41h0a.89.89,0,1,1-.61-1.68h0l6.73-2.4a.87.87,0,0,1,1.11.5h0a.88.88,0,0,1-.52,1.12Z" fill="#fff"/><path d="M576.14,154.59l-6.31,3.14h0a.93.93,0,1,1-.83-1.67h0l6.42-3.15a.9.9,0,0,1,1.21.39h0a.92.92,0,0,1-.41,1.22Z" fill="#fff"/><path d="M563.71,161.25l-5.86,3.88h0a1,1,0,0,1-1.47-1.36h0a1.07,1.07,0,0,1,.4-.26h0l6-3.91a.93.93,0,0,1,1.28.23v0h0a1,1,0,0,1-.27,1.32Z" fill="#fff"/><path d="M552.22,169.34l-5.44,4.49h0a1,1,0,1,1-1.28-1.56h0l5.54-4.52a1,1,0,0,1,1.41-.15h0a1,1,0,0,1,.15,1.4l-.07.08a.91.91,0,0,1-.24.2Z" fill="#fff"/><path d="M541.55,178.56l-5,4.94h0a1.05,1.05,0,0,1-1.47-1.5h0l5.13-5a1,1,0,1,1,1.44,1.47Z" fill="#fff"/><path d="M531.65,188.62,527,194h0a1.09,1.09,0,0,1-1.54.09h0a1.08,1.08,0,0,1-.1-1.52h0l4.76-5.31a1.07,1.07,0,1,1,1.64,1.38h0Z" fill="#fff"/><path d="M522.46,199.35l-4.34,5.57h0a1.13,1.13,0,0,1-1.78-1.39h0l4.41-5.6a1.11,1.11,0,0,1,1.56-.18h0a1.11,1.11,0,0,1,.18,1.54Z" fill="#fff"/><path d="M513.93,210.61l-4,5.81h0a1.16,1.16,0,0,1-1.61.3,1.17,1.17,0,0,1-.3-1.62h0l4.09-5.83a1.15,1.15,0,0,1,1.88,1.31Z" fill="#fff"/><path d="M506,222.33l-3.73,6h0a1.2,1.2,0,0,1-2-1.26h0l3.79-6a1.17,1.17,0,0,1,1.61-.38h0a1.18,1.18,0,0,1,.38,1.62Z" fill="#fff"/><path d="M498.71,234.43l-3.43,6.19h0a1.23,1.23,0,0,1-2.16-1.19h0l3.49-6.22a1.21,1.21,0,1,1,2.12,1.18Z" fill="#fff"/><path d="M492,246.88l-3.12,6.35h0a1.27,1.27,0,0,1-2.29-1.12h0l3.17-6.38a1.25,1.25,0,1,1,2.25,1.11h0Z" fill="#fff"/><path d="M486,259.66l-2.78,6.49h0a1.31,1.31,0,0,1-2.41-1h0l2.84-6.55a1.29,1.29,0,0,1,2.37,1Z" fill="#fff"/><path d="M480.58,272.72l-2.4,6.64h0a1.34,1.34,0,0,1-1.7.82h0a1.36,1.36,0,0,1-.81-1.73h0l2.47-6.7a1.33,1.33,0,0,1,2.5.92h0Z" fill="#fff"/><path d="M476,286.07l-2,6.77v.05a1.39,1.39,0,1,1-2.72-.58h0l.06-.2h0l2-6.86a1.37,1.37,0,0,1,2.62.77Z" fill="#fff"/><path d="M472.28,299.67l-1.41,6.89h0a1.42,1.42,0,0,1-2.79-.55h0c.48-2.33,1-4.66,1.5-7a1.4,1.4,0,1,1,2.74.59h0Z" fill="#fff"/><path d="M469.71,313.5l-.83,7v.07a1.4,1.4,0,1,1-2.79-.33h0l.83-7.12a1.41,1.41,0,0,1,2.81.27v.06h0Z" fill="#fff"/><path d="M468.38,327.5l-.12,7v.07a1.39,1.39,0,1,1-2.78,0h0l.11-7.18a1.4,1.4,0,1,1,2.79-.24,1,1,0,0,1,0,.24h0Z" fill="#fff"/><path d="M468.52,341.55l.65,7v.08a1.38,1.38,0,0,1-2.75.25l-.67-7.14a1.38,1.38,0,1,1,2.75-.26h0Z" fill="#fff"/><path d="M470.21,355.48l1.44,6.87v.08a1.36,1.36,0,0,1-2.62.73V363l-1.49-7a1.35,1.35,0,1,1,2.63-.57h0Z" fill="#fff"/><path d="M473.48,369.12l2.21,6.66v.08a1.35,1.35,0,0,1-2.55.88h0L470.87,370a1.36,1.36,0,0,1,2.57-.86h0Z" fill="#fff"/><path d="M478.28,382.31l2.94,6.38v.07a1.33,1.33,0,0,1-2.42,1.12l-3-6.51a1.34,1.34,0,1,1,2.44-1.13h0Z" fill="#fff"/><path d="M484.5,395l3.59,6.05v.05a1.32,1.32,0,0,1-2.27,1.35h0l-3.67-6.15a1.33,1.33,0,0,1,2.28-1.36h0Z" fill="#fff"/><path d="M492,406.82l4.15,5.69v.05A1.31,1.31,0,0,1,494,414.1l-4.23-5.77a1.32,1.32,0,0,1,.42-1.82h0a1.33,1.33,0,0,1,1.7.26h0Z" fill="#fff"/><path d="M500.51,418l4.62,5.33h0a1.31,1.31,0,0,1-2,1.7l-4.69-5.39a1.32,1.32,0,1,1,1.78-1.95l.08.08a1.07,1.07,0,0,1,.14.16h0Z" fill="#fff"/><path d="M510,428.48l5,5h0a1.3,1.3,0,0,1-1.66,2l-.14-.14-5.08-5a1.29,1.29,0,0,1,1.68-1.95.49.49,0,0,1,.13.12h0Z" fill="#fff"/><path d="M520.12,438.25l5.32,4.63h0a1.27,1.27,0,0,1-1.66,1.91l-5.39-4.68a1.27,1.27,0,1,1,1.67-1.92h0Z" fill="#fff"/><path d="M530.87,447.36l5.58,4.34h0a1.26,1.26,0,1,1-1.36,2.12l-.16-.12h0l-5.65-4.36a1.26,1.26,0,1,1,1.54-2h0Z" fill="#fff"/><path d="M542.17,455.88l5.8,4.05h0a1.24,1.24,0,1,1-1,2.28h-.1a1.5,1.5,0,0,1-.33-.23l-5.85-4.07a1.25,1.25,0,0,1,1.13-2.23,1.24,1.24,0,0,1,.32.23h0Z" fill="#fff"/><path d="M553.87,463.88l5.92,3.91a1.2,1.2,0,0,1,0,1.7h0a1.19,1.19,0,0,1-1.39.28l-5.94-3.91a1.23,1.23,0,0,1,1.21-2.14l.14.09Z" fill="#fff"/><path d="M565.71,471.69l6,3.88a1.21,1.21,0,0,1-1.32,2l-6-3.88a1.21,1.21,0,0,1,1-2.19A1.5,1.5,0,0,1,565.71,471.69Z" fill="#fff"/><path d="M577.6,479.45l6,3.89a1.2,1.2,0,0,1-1.31,2l-6-3.87a1.2,1.2,0,0,1,1.31-2Z" fill="#fff"/><path d="M589.48,487.24l5.92,3.92a1.2,1.2,0,1,1-1.06,2.15l-.08,0-.17-.11-5.92-3.91a1.19,1.19,0,0,1,1.3-2h0Z" fill="#fff"/><path d="M601.3,495.07l5.87,4a1.17,1.17,0,0,1-1.3,1.89h0L600,497h0a1.17,1.17,0,0,1,1.31-1.94h0Z" fill="#fff"/><path d="M613,503.14l5.81,4.09a1.16,1.16,0,0,1-1.33,1.89h0l-5.79-4h0a1.16,1.16,0,0,1,1.07-2.06l.1.06.11.08h0Z" fill="#fff"/><path d="M624.6,511.39l5.71,4.22a1.14,1.14,0,0,1-1.35,1.83h0l-5.7-4.19h0a1.14,1.14,0,0,1,1.35-1.84Z" fill="#fff"/><path d="M636,520l5.61,4.39a1.13,1.13,0,1,1-1.23,1.9h0l-.16-.13h0l-5.59-4.35h0a1.13,1.13,0,0,1,1.32-1.83H636Z" fill="#fff"/><path d="M647.12,528.75l5.49,4.52A1.11,1.11,0,0,1,651.2,535h0l-5.48-4.48h0a1.12,1.12,0,0,1-.29-1.56h0a1.11,1.11,0,0,1,1.54-.3h0l.15.12Z" fill="#fff"/><path d="M658,537.86l5.37,4.67a1.1,1.1,0,0,1,.11,1.55,1.11,1.11,0,0,1-1.56.11h0l-5.34-4.65h0a1.1,1.1,0,0,1-.11-1.55,1.11,1.11,0,0,1,1.56-.11Z" fill="#fff"/><path d="M668.71,547.31l5.18,4.88a1.09,1.09,0,0,1-1.49,1.58h0l-5.16-4.84h0a1.1,1.1,0,0,1,0-1.54,1.09,1.09,0,0,1,1.53,0h0Z" fill="#fff"/><path d="M678.94,557.2l4.94,5.14a1.08,1.08,0,0,1,0,1.51,1.07,1.07,0,0,1-1.5,0h0l-4.91-5.09h0a1.08,1.08,0,1,1,1.41-1.64l.14.15Z" fill="#fff"/><path d="M688.71,567.63l4.62,5.44a1.05,1.05,0,0,1-1.61,1.36h0l-4.58-5.38h0a1.06,1.06,0,0,1,1.51-1.49h0l.1.12Z" fill="#fff"/><path d="M697.71,578.67l4.2,5.78a1,1,0,0,1-.17,1.4l-.06,0a1,1,0,0,1-1.4-.17l0-.06h0l-4.16-5.7h0a1.05,1.05,0,0,1,.23-1.47h0a1,1,0,0,1,1.41.15h0l0,.07Z" fill="#fff"/><path d="M705.87,590.4l3.66,6.14a1,1,0,0,1-.31,1.38h0a1,1,0,0,1-1.38-.3h0l-3.63-6h0a1,1,0,0,1,.3-1.38h0a1,1,0,0,1,1.38.29v.06Z" fill="#fff"/><path d="M712.87,602.85l3,6.49a1,1,0,0,1-1.81.84v0l-3-6.37h0a1,1,0,0,1,1.85-.87Z" fill="#fff"/><path d="M718.49,616l2.23,6.8a1,1,0,0,1-.93,1.07,1,1,0,0,1-.94-.51v-.06l-2.22-6.67v-.06a1,1,0,0,1,.86-1.12h0a1,1,0,0,1,1,.5Z" fill="#fff"/><path d="M722.51,629.71l1.35,7a.92.92,0,0,1-1.81.35h0l-1.36-6.9v-.06a1,1,0,0,1,.73-1.1h0a.94.94,0,0,1,1.11.73h0Z" fill="#fff"/><path d="M724.76,643.84l.44,7.14a.88.88,0,0,1-1.76.12h0l-.47-7h0a.88.88,0,0,1,.74-1h.1a.91.91,0,0,1,1,.79h0Z" fill="#fff"/><path d="M725.15,658.14l-.52,7.12a.86.86,0,0,1-.91.78.83.83,0,0,1-.77-.88h0l.47-7h0a.86.86,0,0,1,1.72.12Z" fill="#fff"/><path d="M723.77,672.35l-1.16,7a.81.81,0,0,1-.93.66.8.8,0,0,1-.66-.92h0l1.11-7h0a.83.83,0,0,1,.94-.7h.06a.82.82,0,0,1,.68.94h0Z" fill="#fff"/><path d="M721.14,686.37l-1.82,6.9a.75.75,0,0,1-.9.55h0a.77.77,0,0,1-.55-.93h0l1.76-6.84h0a.78.78,0,1,1,1.52.39h0Z" fill="#fff"/><path d="M717.12,700.07l-2.69,6.63a.73.73,0,0,1-1.35-.54v0l2.6-6.54v-.06a.75.75,0,0,1,1.39.56Z" fill="#fff"/><path d="M711.13,713.07A49.06,49.06,0,0,1,707,719a.69.69,0,0,1-1.07-.87,46.26,46.26,0,0,0,3.94-5.77.71.71,0,0,1,1.22.71Z" fill="#fff"/><path d="M701.87,724.07a23.72,23.72,0,0,1-6.32,3.6.66.66,0,0,1-.84-.38.66.66,0,0,1,.38-.83,22.37,22.37,0,0,0,6-3.44.66.66,0,0,1,.93.11h0a.68.68,0,0,1-.1.94Z" fill="#fff"/><path d="M1249.6,938.22c-.95-67.72,40.35-90.91,114.45-77.92,80.34,14.07,62.83,92.75,71.29,113.17,5.38,13,21.82,17.34,33,18.77a2.35,2.35,0,0,1,1.92,1.56,2.32,2.32,0,0,1-1.37,3l-.1,0C1357.18,1034.63,1250.48,1003.86,1249.6,938.22Z" fill="url(#Degradado_sin_nombre_138-13)"/><g opacity="0.6"><rect x="1404.45" y="924.06" width="7.19" height="55.62" fill="#fff"/><rect x="1392.43" y="943.18" width="7.19" height="36.51" fill="#fff"/><rect x="1380.42" y="895.93" width="7.19" height="83.75" fill="#fff"/><rect x="1368.4" y="959.56" width="7.19" height="20.12" fill="#fff"/><rect x="1356.39" y="907.12" width="7.19" height="72.55" fill="#fff"/><rect x="1344.38" y="919.69" width="7.19" height="59.99" fill="#fff"/><rect x="1332.37" y="933.34" width="7.19" height="46.33" fill="#fff"/><rect x="1320.36" y="879" width="7.19" height="100.68" fill="#fff"/><rect x="1308.35" y="889.65" width="7.19" height="90.03" fill="#fff"/><rect x="1296.33" y="905.76" width="7.19" height="73.92" fill="#fff"/><rect x="1284.32" y="961.42" width="7.19" height="18.25" fill="#fff"/></g><path d="M1429.88,354.83l232.35,30.79a24.31,24.31,0,0,1,21,26L1655.8,750.81a17.93,17.93,0,0,1-19.3,16.41l-.58-.06-267-30.41a17,17,0,0,1-15-18.79h0v-.33l44.88-339.09a27.55,27.55,0,0,1,30.92-23.7h.08Z" fill="url(#Degradado_sin_nombre_138-14)"/><path d="M1408.66,736.3h0L1378.88,732a18.66,18.66,0,0,1-15.76-20.84l6-45a.72.72,0,0,1,.8-.65h0a.78.78,0,0,1,.66.85l-6,45a17.12,17.12,0,0,0,14.5,19.12l29.75,4.33a.76.76,0,0,1,.59.9h0a.79.79,0,0,1-.81.6Z" fill="#fff"/><path d="M1399.28,745.74a.77.77,0,0,1-.65-.85l1-7.29a.76.76,0,0,1,.85-.66h0a.75.75,0,0,1,.65.85h0l-1,7.29a.77.77,0,0,1-.86.66Z" fill="#fff"/><path d="M1431,352.19c31.16,8.51,138.53,36.26,229.67,41.27a7.41,7.41,0,0,1,7,7.77v.22l-26.76,340.82a8.54,8.54,0,0,1-9.11,7.83c-38.24-2.78-195.67-14.78-250.64-28a6.73,6.73,0,0,1-5.11-7.42l45-355.74a8,8,0,0,1,8.88-7h0A7.91,7.91,0,0,1,1431,352.19Z" fill="url(#Degradado_sin_nombre_138-15)"/><path d="M1433.24,361.45c30,8.18,133.32,34.89,221,39.72a7.13,7.13,0,0,1,6.74,7.5h0v.17l-25.79,328a8.23,8.23,0,0,1-8.77,7.54c-36.81-2.68-188.31-14.22-241.21-26.94a6.5,6.5,0,0,1-4.92-7.14L1423.55,368a7.69,7.69,0,0,1,8.56-6.72h0A8.71,8.71,0,0,1,1433.24,361.45Z" fill="#fff" opacity="0.6" style="isolation:isolate"/><g opacity="0.6"><path d="M1646.24,429.2c2.18.29,4-.54,4.12-1.84s-1.63-2.61-3.81-2.92l-193.67-27.18c-2.18-.31-3,1-1.9,2.87l0,.08a9.46,9.46,0,0,0,6,4Z" fill="#fff"/></g><g opacity="0.6"><path d="M1451.24,410.27c-2.18-.3-3,1-1.9,2.88v.08a9.47,9.47,0,0,0,6,4l189.18,25c2.18.28,4-.54,4.12-1.84s-1.62-2.62-3.8-2.92Z" fill="#fff"/></g><path d="M1467.88,532.83h-.07L1441.59,530a7.16,7.16,0,0,1-6.67-6.78l-.11-22.26a4.77,4.77,0,0,1,1.51-3.53,5.76,5.76,0,0,1,4.26-1.6h0c2.23.07,5.3.11,8.69.16,7.37.11,15.72.22,20.59.65h.11a7.39,7.39,0,0,1,6.78,5.92c.87,5.2-.2,14.76-1.48,24.94A6.61,6.61,0,0,1,1467.88,532.83Zm-27.37-34.89a3.7,3.7,0,0,0-2.69,1,2.67,2.67,0,0,0-.86,2l.12,22.26a5,5,0,0,0,4.74,4.65l26.23,2.87h0a4.46,4.46,0,0,0,5-3.49c1.25-10,2.31-19.4,1.49-24.32a5.34,5.34,0,0,0-5-4.14c-4.79-.41-13.46-.54-20.43-.64-3.4,0-6.49-.09-8.73-.16Z" fill="#fff"/><path d="M1443.08,500.45c5.55.18,17.66.15,23.35.65a5.11,5.11,0,0,1,4.74,4c.69,4.16-.26,12.23-1.19,19.68a4.37,4.37,0,0,1-5,3.53L1444,526a4.88,4.88,0,0,1-4.56-4.57l-.07-17.82a3.4,3.4,0,0,1,3.58-3.23h0Z" fill="#fff" opacity="0.6" style="isolation:isolate"/><g opacity="0.6"><path d="M1495,512.45a2.84,2.84,0,0,0-3.35,2.22v0a2.79,2.79,0,0,0,0,1.22l.89,5.57a5.45,5.45,0,0,0,4.61,4.34l128.55,12.76a3.9,3.9,0,0,0,4.27-3.49h0V535l.14-1.83a4.25,4.25,0,0,0-3.66-4.48Z" fill="#fff"/></g><path d="M1443.88,504h0a4,4,0,0,1,5.33,1.89.89.89,0,0,1,.08.17l4.26,9.8a1.32,1.32,0,0,0,1.71.68,1.47,1.47,0,0,0,.61-.55l15.68-27.26a1.43,1.43,0,0,1,1.92-.59l.08.05a1.47,1.47,0,0,1,.72,1.43,56.81,56.81,0,0,1-20.39,37.65s-7.4-3.76-12.25-18A4.24,4.24,0,0,1,1443.88,504Z" fill="url(#Degradado_sin_nombre_117)"/><path d="M1476.16,474.17h-.08l-26.2-2.87a7.16,7.16,0,0,1-6.66-6.78l-.12-22.25a4.79,4.79,0,0,1,1.51-3.54,5.84,5.84,0,0,1,4.26-1.6h0c2.23.07,5.31.12,8.69.16,7.37.11,15.72.23,20.59.65h.11a7.41,7.41,0,0,1,6.79,5.92c.86,5.2-.21,14.76-1.49,24.94C1483.13,472.13,1479.82,474.53,1476.16,474.17Zm-27.38-34.89a3.57,3.57,0,0,0-2.69,1,2.75,2.75,0,0,0-.86,2l.12,22.26a5,5,0,0,0,4.74,4.65l26.23,2.87h0a4.46,4.46,0,0,0,5-3.49c1.25-10,2.31-19.4,1.49-24.32a5.3,5.3,0,0,0-5-4.13c-4.8-.42-13.47-.54-20.44-.64-3.4,0-6.49-.1-8.73-.16Z" fill="#fff"/><path d="M1451.4,441.73c5.56.17,17.66.14,23.36.64a5.09,5.09,0,0,1,4.73,4c.69,4.16-.26,12.24-1.19,19.68a4.4,4.4,0,0,1-5,3.54l-21-2.29a4.86,4.86,0,0,1-4.56-4.57l-.09-17.79a3.41,3.41,0,0,1,3.59-3.22h.16Z" fill="#fff" opacity="0.6" style="isolation:isolate"/><g opacity="0.6"><path d="M1503.3,453.83a2.84,2.84,0,0,0-3.36,2.21h0a2.6,2.6,0,0,0,0,1.24l.89,5.56a5.49,5.49,0,0,0,4.61,4.35L1634,480a3.9,3.9,0,0,0,4.27-3.49h0v-.05l.15-1.84a4.25,4.25,0,0,0-3.66-4.48Z" fill="#fff"/></g><path d="M1452.16,445.33h0a4,4,0,0,1,5.32,1.9h0a.2.2,0,0,0,.07.16l4.26,9.79a1.32,1.32,0,0,0,1.71.68,1.47,1.47,0,0,0,.61-.55l15.75-27.3a1.43,1.43,0,0,1,1.92-.59l.08.05a1.46,1.46,0,0,1,.72,1.43,56.84,56.84,0,0,1-20.34,37.65s-7.4-3.76-12.25-18A4.21,4.21,0,0,1,1452.16,445.33Z" fill="url(#Degradado_sin_nombre_117-2)"/><path d="M1462.24,589.1h-.07L1436,586.24a7.16,7.16,0,0,1-6.67-6.79l-.11-22.25a4.79,4.79,0,0,1,1.51-3.54,5.84,5.84,0,0,1,4.26-1.6h0c2.23.07,5.3.12,8.69.17,7.37.1,15.72.22,20.59.64h.11a7.42,7.42,0,0,1,6.78,5.92c.87,5.2-.2,14.77-1.48,24.94C1469.24,587.07,1465.88,589.45,1462.24,589.1Zm-27.36-34.89a3.7,3.7,0,0,0-2.69,1,2.75,2.75,0,0,0-.86,2l.12,22.25a5,5,0,0,0,4.74,4.66l26.23,2.86h0a4.43,4.43,0,0,0,5-3.5c1.25-10,2.31-19.4,1.49-24.32a5.36,5.36,0,0,0-5-4.13c-4.79-.42-13.46-.54-20.43-.64-3.4,0-6.49-.09-8.73-.16Z" fill="#fff"/><path d="M1437.48,556.73c5.55.17,17.66.15,23.35.64a5.11,5.11,0,0,1,4.74,4c.69,4.17-.26,12.24-1.19,19.68a4.42,4.42,0,0,1-5,3.54l-21-2.29a4.86,4.86,0,0,1-4.56-4.57l-.09-17.78a3.4,3.4,0,0,1,3.58-3.23h.17Z" fill="#fff" opacity="0.6" style="isolation:isolate"/><g opacity="0.6"><path d="M1489.4,568.73a2.84,2.84,0,0,0-3.35,2.2v0h0a2.79,2.79,0,0,0,0,1.22l.89,5.56a5.49,5.49,0,0,0,4.61,4.35l128.53,12.79a3.9,3.9,0,0,0,4.27-3.49h0v-.09l.14-1.84a4.25,4.25,0,0,0-3.66-4.48Z" fill="#fff"/></g><path d="M1438.24,560.26h0a4,4,0,0,1,5.32,1.9l0,.1v.08l4.26,9.8a1.32,1.32,0,0,0,1.71.68,1.47,1.47,0,0,0,.61-.55L1465.88,545a1.43,1.43,0,0,1,1.92-.59l.08,0a1.46,1.46,0,0,1,.72,1.43,56.79,56.79,0,0,1-20.4,37.61s-7.4-3.76-12.25-18A4.24,4.24,0,0,1,1438.24,560.26Z" fill="url(#Degradado_sin_nombre_117-3)"/><path d="M1454.4,642.88h0L1428.17,640a7.16,7.16,0,0,1-6.66-6.78L1421.4,611a4.76,4.76,0,0,1,1.48-3.53,5.8,5.8,0,0,1,4.26-1.6h0c2.23.07,5.3.11,8.68.16,7,.1,15.73.22,20.61.65a7.51,7.51,0,0,1,6.89,5.92c.87,5.2-.21,14.77-1.48,24.94C1461.4,640.85,1458.08,643.25,1454.4,642.88ZM1427,608a3.62,3.62,0,0,0-2.69,1,2.62,2.62,0,0,0-.86,2l.11,22.26a5,5,0,0,0,4.75,4.65l26.22,2.86c2.48.21,4.82-1.29,5.09-3.49,1.26-10,2.32-19.4,1.5-24.31a5.42,5.42,0,0,0-5-4.14c-4.8-.42-13.47-.54-20.45-.64-3.39,0-6.48-.09-8.71-.16Z" fill="#fff"/><path d="M1429.65,610.45c5.55.17,17.66.15,23.35.64a5.11,5.11,0,0,1,4.74,4c.69,4.17-.26,12.24-1.19,19.69a4.37,4.37,0,0,1-5,3.53l-21-2.29a4.89,4.89,0,0,1-4.55-4.57l-.1-17.78a3.4,3.4,0,0,1,3.58-3.23h.17Z" fill="#fff" opacity="0.6" style="isolation:isolate"/><g opacity="0.6"><path d="M1481.56,622.54a2.85,2.85,0,0,0-3.36,2.23v0a2.75,2.75,0,0,0,0,1.21l.89,5.56a5.5,5.5,0,0,0,4.62,4.35l128.51,12.82a3.9,3.9,0,0,0,4.27-3.49h0v-.09l.14-1.84a4.25,4.25,0,0,0-3.66-4.48Z" fill="#fff"/></g><path d="M1430.4,614.05h0a4,4,0,0,1,5.32,1.9v.18l4.25,9.8a1.32,1.32,0,0,0,1.71.68,1.47,1.47,0,0,0,.61-.55L1458,598.75a1.42,1.42,0,0,1,1.93-.59l.07,0a1.47,1.47,0,0,1,.72,1.45,56.86,56.86,0,0,1-20.31,37.63s-7.41-3.76-12.25-18A4.21,4.21,0,0,1,1430.4,614.05Z" fill="url(#Degradado_sin_nombre_117-4)"/><path d="M1445.88,698.3h-.07l-26.22-2.85a7.16,7.16,0,0,1-6.66-6.78l-.11-22.26a4.77,4.77,0,0,1,1.51-3.53,5.76,5.76,0,0,1,4.26-1.6h0c2.23.07,5.3.11,8.69.16,7.36.1,15.72.22,20.59.65,3.56.4,6.36,2.74,6.89,5.92.87,5.2-.2,14.77-1.48,24.94C1452.88,696.27,1449.56,698.62,1445.88,698.3Zm-27.36-34.85a3.7,3.7,0,0,0-2.69,1,2.67,2.67,0,0,0-.86,2l.12,22.26a5,5,0,0,0,4.74,4.65l26.23,2.86h0a4.43,4.43,0,0,0,5-3.5c1.25-10,2.31-19.4,1.49-24.32a5.42,5.42,0,0,0-5-4.13c-4.79-.42-13.46-.54-20.43-.64-3.4,0-6.49-.09-8.73-.16Z" fill="#fff"/><path d="M1421.12,665.9c5.55.17,17.66.15,23.35.64a5.11,5.11,0,0,1,4.74,4c.69,4.17-.26,12.24-1.19,19.69a4.41,4.41,0,0,1-5,3.53l-21-2.29a4.86,4.86,0,0,1-4.56-4.57l-.06-17.78a3.4,3.4,0,0,1,3.58-3.23h.14Z" fill="#fff" opacity="0.6" style="isolation:isolate"/><g opacity="0.6"><path d="M1473,678a2.84,2.84,0,0,0-3.35,2.22v0a2.79,2.79,0,0,0,0,1.22l.89,5.56a5.46,5.46,0,0,0,4.61,4.35l128.53,12.79a3.9,3.9,0,0,0,4.27-3.49h0v-.09l.14-1.84a4.25,4.25,0,0,0-3.66-4.48Z" fill="#fff"/></g><path d="M1421.88,669.45h0a4,4,0,0,1,5.33,1.89.89.89,0,0,1,.08.17l4.26,9.8a1.32,1.32,0,0,0,1.71.68,1.47,1.47,0,0,0,.61-.55l15.68-27.32a1.42,1.42,0,0,1,1.93-.59l.07,0a1.47,1.47,0,0,1,.72,1.45,56.8,56.8,0,0,1-20.39,37.71s-7.4-3.76-12.25-18A4.2,4.2,0,0,1,1421.88,669.45Z" fill="url(#Degradado_sin_nombre_117-5)"/><path d="M1566.58,326.18c-7.62-7-14.94-7.8-20.28-7a10.31,10.31,0,0,0-8.7,9.81l-1,24.48,26.06,5.83S1581.52,339.81,1566.58,326.18Zm-14.18,18a6.63,6.63,0,1,1,7.48-5.73,6.63,6.63,0,0,1-7.48,5.73Z" fill="url(#Degradado_sin_nombre_137-16)"/><path d="M1540.07,344.21a1.33,1.33,0,0,1-.71-1.22l.16-3.9a1.3,1.3,0,0,1,1.44-1.16h0a1.35,1.35,0,0,1,1.17,1.27l-.16,3.89a1.33,1.33,0,0,1-1.35,1.27h0A1.38,1.38,0,0,1,1540.07,344.21Zm.33-7.59a1.33,1.33,0,0,1-.71-1.22l.12-3a10.53,10.53,0,0,1,8.86-10,20.49,20.49,0,0,1,10,.91,1.35,1.35,0,0,1,.81,1.68,1.33,1.33,0,0,1-1.67.81,18,18,0,0,0-8.75-.8,7.89,7.89,0,0,0-6.64,7.49l-.12,3a1.34,1.34,0,0,1-1.37,1.27h0a1.34,1.34,0,0,1-.53-.14Z" fill="#fff"/><path d="M1498.56,364.37l1.61-12.16a7.46,7.46,0,0,1,8.37-6.44h.28l83.46,14a7.29,7.29,0,0,1,6.06,7.7l-.85,11.77Z" fill="url(#Degradado_sin_nombre_137-17)"/><path d="M1528.17,353.16a.79.79,0,0,1-.66-.89.77.77,0,0,1,.87-.65h0l3.61.48a.78.78,0,0,1,.74.8h0a.79.79,0,0,1-.8.74h-.14l-3.61-.48Z" fill="#fff"/><path d="M1503.07,361.73a1.3,1.3,0,0,1-.69-1.34l.65-4.92a7.61,7.61,0,0,1,8.54-6.56h0l13.26,1.76a1.32,1.32,0,0,1-.35,2.61l-13.26-1.83a5,5,0,0,0-5.61,4.3l-.65,4.92a1.32,1.32,0,0,1-1.47,1.13h0A1.62,1.62,0,0,1,1503.07,361.73Z" fill="#fff"/><path d="M1472.88,356.45l146.6,19.4a11,11,0,0,1,9.49,10.4V387a9.42,9.42,0,0,1-9.1,9.71,9,9,0,0,1-1.47-.06L1468,376.71a6.1,6.1,0,0,1-5.25-6.84h0a.58.58,0,0,1,0-.29l1.21-6.69A8,8,0,0,1,1472.88,356.45Z" fill="url(#Degradado_sin_nombre_137-18)"/><path d="M1307.05,730l-244.32-21.7a19.33,19.33,0,0,1-17.56-19.19l-.81-165.69A19.35,19.35,0,0,1,1063.6,504h1.48l260.16,18a19.32,19.32,0,0,1,17.88,20.68h0V543l-15,169.3A19.33,19.33,0,0,1,1307.3,730Z" fill="url(#Degradado_sin_nombre_114-16)"/><path d="M1058.65,539.47,1057,682.53a12,12,0,0,0,10.69,12.06L1302,717.91A12,12,0,0,0,1315,707l13.58-153a12,12,0,0,0-10.91-13h-.31L1071.2,527.66a12,12,0,0,0-12.55,11.42h0Z" fill="#fff" opacity="0.87" style="isolation:isolate"/><path d="M1169.65,664.4l132.58,7.76a2.42,2.42,0,0,1,2.27,2.56v.08l-.19,2.14a2.43,2.43,0,0,1-2.59,2.21l-132.4-9.9a2.42,2.42,0,0,1-2.22-2.59h0A2.43,2.43,0,0,1,1169.65,664.4Z" fill="url(#Degradado_sin_nombre_117-6)"/><path d="M1166.14,677.76l-.08.92a2.42,2.42,0,0,0,2.19,2.63L1300.49,693a2.41,2.41,0,0,0,2.62-2.2l.08-.91a2.41,2.41,0,0,0-2.17-2.64h0l-132.23-11.73a2.43,2.43,0,0,0-2.63,2.19Z" fill="url(#Degradado_sin_nombre_117-7)"/><path d="M1205.22,693.25v.4a2.42,2.42,0,0,0,2.19,2.63l92.1,8.18a2.42,2.42,0,0,0,2.62-2.21l.17-1.88a2.42,2.42,0,0,0-2.2-2.64h0L1207.83,691a2.42,2.42,0,0,0-2.61,2.21h0Z" fill="url(#Degradado_sin_nombre_117-8)"/><path d="M962.17,789.07H692.87c-10.92,0-20-10.65-21.07-24.59l-17-231c-1.16-15.72,8.35-29.38,20.66-29.68l286.3-7c11.85-.29,21.57,11.94,21.57,27.13V762C983.33,777,973.87,789.07,962.17,789.07Z" fill="url(#Degradado_sin_nombre_138-16)"/><path d="M672,554.15l12,199.7c.52,8.67,6.13,15.4,12.91,15.49l258.5,3.47c7.28.1,13.22-7.44,13.22-16.78V541c0-9.5-6.13-17.1-13.53-16.78L684.62,536C677.17,536.4,671.44,544.62,672,554.15Z" fill="#fff" opacity="0.87" style="isolation:isolate"/><path d="M810,552.32l145.77-5.59c1.49-.06,2.73,1.48,2.73,3.4v3c0,1.85-1.16,3.37-2.61,3.39l-145.77,2.59c-1.48,0-2.69-1.51-2.69-3.4h0C807.44,553.88,808.58,552.37,810,552.32Z" fill="url(#Degradado_sin_nombre_138-17)"/><path d="M807.44,571.39v1.28c0,1.88,1.19,3.4,2.65,3.4H955.87c1.46,0,2.65-1.52,2.65-3.4v-1.28c0-1.88-1.19-3.4-2.65-3.4H810.09C808.63,568,807.44,569.51,807.44,571.39Z" fill="url(#Degradado_sin_nombre_138-18)"/><path d="M771.87,738.84a1.37,1.37,0,0,1-1.17-1.5v-4.52a1.37,1.37,0,0,1,1.17-1.51h0a1.38,1.38,0,0,1,1.18,1.5v4.52a1.37,1.37,0,0,1-1.17,1.51Zm0-15.06a1.37,1.37,0,0,1-1.17-1.5v-4.52a1.37,1.37,0,0,1,1.17-1.51h0a1.37,1.37,0,0,1,1.17,1.5v4.52A1.37,1.37,0,0,1,771.87,723.78Zm0-15.06a1.37,1.37,0,0,1-1.17-1.5V702.7a1.37,1.37,0,0,1,1.17-1.51h0a1.37,1.37,0,0,1,1.17,1.5v4.52A1.37,1.37,0,0,1,771.87,708.72Zm0-15.06a1.37,1.37,0,0,1-1.17-1.5v-4.52a1.38,1.38,0,0,1,1.17-1.51h0a1.37,1.37,0,0,1,1.18,1.51v4.51a1.37,1.37,0,0,1-1.17,1.51Z" fill="url(#Degradado_sin_nombre_138-19)"/><path d="M831.57,734.3a1.37,1.37,0,0,1-1.17-1.51v-4.52a1.21,1.21,0,1,1,2.35-.58,1.14,1.14,0,0,1,0,.58v4.52A1.37,1.37,0,0,1,831.57,734.3Zm0-15.06a1.37,1.37,0,0,1-1.17-1.51v-4.51a1.21,1.21,0,1,1,2.35-.58h0a1.14,1.14,0,0,1,0,.58v4.51A1.37,1.37,0,0,1,831.57,719.24Zm0-15.06a1.37,1.37,0,0,1-1.17-1.5v-4.52a1.21,1.21,0,1,1,2.35-.58,1.14,1.14,0,0,1,0,.58v4.52a1.37,1.37,0,0,1-1.18,1.5Zm0-15.06a1.37,1.37,0,0,1-1.17-1.5v-4.55a1.21,1.21,0,1,1,2.35-.58,1.14,1.14,0,0,1,0,.58v4.52a1.37,1.37,0,0,1-1.18,1.53Zm0-15.06a1.37,1.37,0,0,1-1.17-1.5v-4.49a1.21,1.21,0,1,1,2.35-.58,1.14,1.14,0,0,1,0,.58v4.52a1.36,1.36,0,0,1-1.18,1.48Z" fill="url(#Degradado_sin_nombre_138-20)"/><path d="M877.13,747.73a1.36,1.36,0,0,1-1.17-1.46l-.1-3.88a1.21,1.21,0,1,1,2.35-.1l.09,3.89a1.38,1.38,0,0,1-1.13,1.55Zm-.35-14.42a1.36,1.36,0,0,1-1.17-1.46l-.11-4.52a1.4,1.4,0,0,1,1.14-1.55c.64-.06,1.19.63,1.21,1.46l.1,4.52a1.38,1.38,0,0,1-1.13,1.55Zm-.36-15a1.36,1.36,0,0,1-1.18-1.46l-.11-4.52a1.4,1.4,0,0,1,1.14-1.55,1.34,1.34,0,0,1,1.21,1.46h0l.11,4.52a1.4,1.4,0,0,1-1.14,1.55Zm-.37-15a1.36,1.36,0,0,1-1.17-1.46l-.11-4.52a1.39,1.39,0,0,1,1.14-1.55,1.35,1.35,0,0,1,1.21,1.46l.11,4.51a1.39,1.39,0,0,1-1.14,1.55Zm-.36-15.06a1.35,1.35,0,0,1-1.17-1.45l-.11-4.52a1.38,1.38,0,0,1,1.13-1.55,1.34,1.34,0,0,1,1.21,1.46h0l.11,4.51a1.38,1.38,0,0,1-1.13,1.55Zm-.37-15a1.36,1.36,0,0,1-1.17-1.46l-.11-4.51a1.39,1.39,0,0,1,1.14-1.55c.66-.06,1.19.62,1.21,1.45l.11,4.52a1.39,1.39,0,0,1-1.14,1.55Zm-.36-15a1.36,1.36,0,0,1-1.17-1.46l-.08-4.62a1.38,1.38,0,0,1,1.13-1.55c.67-.07,1.19.62,1.21,1.45l.11,4.52a1.38,1.38,0,0,1-1.13,1.55Z" fill="url(#Degradado_sin_nombre_138-21)"/><path d="M920.43,737.59a1.37,1.37,0,0,1-1.17-1.5v-4.52a1.21,1.21,0,1,1,2.35-.58,1.14,1.14,0,0,1,0,.58v4.5A1.37,1.37,0,0,1,920.43,737.59Zm0-15.06a1.37,1.37,0,0,1-1.17-1.5v-4.52a1.21,1.21,0,1,1,2.35-.58,1.14,1.14,0,0,1,0,.58v4.56A1.37,1.37,0,0,1,920.43,722.53Zm0-15a1.38,1.38,0,0,1-1.17-1.51v-4.52a1.21,1.21,0,1,1,2.35-.58,1.14,1.14,0,0,1,0,.58V706a1.37,1.37,0,0,1-1.18,1.51Zm0-15.06a1.38,1.38,0,0,1-1.17-1.51v-4.52a1.21,1.21,0,1,1,2.35-.58,1.14,1.14,0,0,1,0,.58V691a1.37,1.37,0,0,1-1.18,1.51Zm0-15.06a1.38,1.38,0,0,1-1.17-1.51v-4.51a1.21,1.21,0,1,1,2.35-.58h0a1.14,1.14,0,0,1,0,.58v4.51a1.37,1.37,0,0,1-1.18,1.51Zm0-15.06a1.37,1.37,0,0,1-1.17-1.51v-4.51a1.21,1.21,0,1,1,2.35-.58,1.14,1.14,0,0,1,0,.58v4.51a1.37,1.37,0,0,1-1.18,1.51Zm0-15.06a1.37,1.37,0,0,1-1.17-1.5v-4.52a1.21,1.21,0,1,1,2.35-.58h0a1.14,1.14,0,0,1,0,.58v4.52a1.37,1.37,0,0,1-1.18,1.5Zm0-15.06a1.37,1.37,0,0,1-1.17-1.5v-4.52a1.21,1.21,0,1,1,2.35-.58,1.14,1.14,0,0,1,0,.58v4.52a1.37,1.37,0,0,1-1.18,1.5Zm0-15.06a1.37,1.37,0,0,1-1.17-1.5v-4.55a1.21,1.21,0,1,1,2.35-.58h0a1.14,1.14,0,0,1,0,.58v4.52a1.37,1.37,0,0,1-1.18,1.53Z" fill="url(#Degradado_sin_nombre_138-22)"/><path d="M707.87,757.19a2,2,0,0,1-1.75-2.07l-12.2-184.71a2.16,2.16,0,0,1,1.61-2.44c1-.11,1.82.82,1.9,2.06l12.25,184.71a2.16,2.16,0,0,1-1.61,2.44Z" fill="url(#Degradado_sin_nombre_138-23)"/><polygon points="690.35 579.83 695.79 571.55 702.25 578.54 701.82 572.06 695.37 565.08 689.92 573.35 690.35 579.83" fill="url(#Degradado_sin_nombre_138-24)"/><path d="M949.57,748.49H698.65a2.33,2.33,0,0,1,0-4.52H949.57a2.33,2.33,0,0,1,0,4.52Z" fill="url(#Degradado_sin_nombre_138-25)"/><polygon points="942.55 753.89 948.53 746.23 942.55 738.57 947.63 738.57 953.6 746.23 947.63 753.89 942.55 753.89" fill="url(#Degradado_sin_nombre_138-26)"/><path d="M718.34,695.46a2,2,0,0,1-1.77-2,2.26,2.26,0,0,1,1.54-2.57c1.31-.22,132.66-23.29,204.57-91.28a1.55,1.55,0,0,1,2.18,0h0a1.62,1.62,0,0,1,.31.46,2.73,2.73,0,0,1-.38,3.2C852.15,672,719.9,695.18,718.58,695.41Z" fill="url(#Degradado_sin_nombre_138-27)"/><path d="M924.29,613.63h-.15a2.19,2.19,0,0,1-1.64-2.46l.56-9-9.88-.76A2.15,2.15,0,0,1,911.5,599c.06-1.26.9-2.24,1.89-2.14l11.69.89a1.65,1.65,0,0,1,1.24.78,2.71,2.71,0,0,1,.44,1.68l-.7,11.31A2,2,0,0,1,924.29,613.63Z" fill="url(#Degradado_sin_nombre_138-28)"/><path d="M1129.27,1167h-.4l-162.65-.17a7.28,7.28,0,0,1,0-14.56l162.65.17a7.28,7.28,0,0,1,.36,14.55Z" fill="url(#Degradado_sin_nombre_137-19)"/><path d="M820,1019.3H955.49a25.84,25.84,0,0,1,23.35,14.8l62.62,132.79H873.12a15.68,15.68,0,0,1-14.59-9.93L810,1034.07a10.81,10.81,0,0,1,6.12-14A10.63,10.63,0,0,1,820,1019.3Z" fill="url(#Degradado_sin_nombre_137-20)"/><ellipse cx="910.29" cy="1090.73" rx="10.67" ry="17.35" transform="translate(-290.38 331.32) rotate(-17.84)" fill="url(#Degradado_sin_nombre_138-29)"/><ellipse cx="696.58" cy="1091.53" rx="17.35" ry="10.67" transform="translate(-555.87 1420.21) rotate(-72.16)" fill="url(#Degradado_sin_nombre_138-30)"/><ellipse cx="331.39" cy="1079.74" rx="17.35" ry="10.67" transform="translate(-797.95 1064.4) rotate(-72.16)" fill="url(#Degradado_sin_nombre_138-31)"/><path d="M107.92,1155h.37l162.65-.17a7.28,7.28,0,1,0,0-14.56l-162.64.17a7.28,7.28,0,0,0-.36,14.55Z" fill="url(#Degradado_sin_nombre_137-21)"/><path d="M417.15,1007.3H281.71a25.84,25.84,0,0,0-23.35,14.8l-62.65,132.79H364a15.68,15.68,0,0,0,14.59-9.93l48.58-122.89a10.81,10.81,0,0,0-10.06-14.77Z" fill="url(#Degradado_sin_nombre_137-22)"/><ellipse cx="331.84" cy="1078.61" rx="17.35" ry="10.67" transform="translate(-796.57 1064.05) rotate(-72.16)" fill="url(#Degradado_sin_nombre_138-32)"/><rect x="306.17" y="889.22" width="102.19" height="9.75" fill="#94c4fc"/><rect x="305.87" y="868.41" width="102.19" height="9.75" fill="#94c4fc"/><rect x="978.9" y="225.26" width="61.29" height="11.66" fill="#94c4fc"/></g></g></svg>