<svg id="Capa_1" data-name="Capa 1" xmlns="http://www.w3.org/2000/svg" xmlns:xlink="http://www.w3.org/1999/xlink" viewBox="0 0 2796.38 2788.64"><defs><linearGradient id="Degradado_sin_nombre" x1="3407.64" y1="460.78" x2="1367.23" y2="2246.14" gradientTransform="matrix(1, 0, 0, -1, 0, 3707.89)" gradientUnits="userSpaceOnUse"><stop offset="0" stop-color="#b37cff"/><stop offset="1" stop-color="#f895e7"/></linearGradient><linearGradient id="Degradado_sin_nombre_2" x1="-3410.71" y1="-3764.63" x2="-2789.3" y2="-3764.63" gradientTransform="matrix(0, 1, 1, 0, 5236.82, 4335.61)" xlink:href="#Degradado_sin_nombre"/><linearGradient id="Degradado_sin_nombre_3" x1="8204.4" y1="-3221.54" x2="8239.33" y2="-3221.54" gradientTransform="translate(5392.58 8889.92) rotate(-94)" xlink:href="#Degradado_sin_nombre"/><linearGradient id="Degradado_sin_nombre_4" x1="8385.69" y1="-3486.97" x2="8409.66" y2="-3486.97" gradientTransform="translate(5392.58 8889.92) rotate(-94)" xlink:href="#Degradado_sin_nombre"/><linearGradient id="Degradado_sin_nombre_5" x1="-3626.63" y1="-4172.56" x2="-2988.29" y2="-4172.56" gradientTransform="matrix(0, 1, 1, 0, 5236.82, 4335.61)" xlink:href="#Degradado_sin_nombre"/><linearGradient id="Degradado_sin_nombre_6" x1="7737.41" y1="-3891.38" x2="7771.86" y2="-3891.38" gradientTransform="translate(5392.58 8889.92) rotate(-94)" xlink:href="#Degradado_sin_nombre"/><linearGradient id="Degradado_sin_nombre_7" x1="-4205.53" y1="-2615.87" x2="-1913.48" y2="-5699.41" gradientTransform="matrix(0, 1, 1, 0, 5236.82, 4335.61)" gradientUnits="userSpaceOnUse"><stop offset="0" stop-color="#a737d5"/><stop offset="1" stop-color="#ef497a"/></linearGradient><linearGradient id="Degradado_sin_nombre_8" x1="7221.59" y1="-3880.08" x2="7238.64" y2="-3880.08" gradientTransform="translate(5392.58 8889.92) rotate(-94)" xlink:href="#Degradado_sin_nombre"/><linearGradient id="Degradado_sin_nombre_9" x1="-2763.27" y1="-4043.08" x2="-2412.19" y2="-4043.08" gradientTransform="matrix(0, 1, 1, 0, 5236.82, 4335.61)" xlink:href="#Degradado_sin_nombre"/><linearGradient id="Degradado_sin_nombre_10" x1="-2934.35" y1="-4379.86" x2="-2546.27" y2="-4379.86" gradientTransform="matrix(0, 1, 1, 0, 5236.82, 4335.61)" xlink:href="#Degradado_sin_nombre"/><linearGradient id="Degradado_sin_nombre_11" x1="7321.87" y1="-4031.76" x2="7347.95" y2="-4031.76" gradientTransform="translate(5392.58 8889.92) rotate(-94)" xlink:href="#Degradado_sin_nombre"/><linearGradient id="Degradado_sin_nombre_12" x1="-3975.92" y1="-2445.19" x2="-1683.88" y2="-5528.73" xlink:href="#Degradado_sin_nombre_7"/><linearGradient id="Degradado_sin_nombre_13" x1="1919.9" y1="1213.22" x2="1917.8" y2="801.13" gradientTransform="matrix(1, 0, 0, -1, 0, 3707.89)" gradientUnits="userSpaceOnUse"><stop offset="0" stop-color="#53d8ff"/><stop offset="1" stop-color="#3840f7"/></linearGradient><linearGradient id="Degradado_sin_nombre_14" x1="1894.01" y1="810.38" x2="1672.92" y2="4.95" xlink:href="#Degradado_sin_nombre_13"/><linearGradient id="Degradado_sin_nombre_15" x1="1885.68" y1="812.67" x2="1664.59" y2="7.25" xlink:href="#Degradado_sin_nombre_13"/><linearGradient id="Degradado_sin_nombre_16" x1="1865.14" y1="818.3" x2="1644.04" y2="12.88" xlink:href="#Degradado_sin_nombre_13"/><linearGradient id="Degradado_sin_nombre_17" x1="1859.6" y1="819.83" x2="1638.5" y2="14.4" xlink:href="#Degradado_sin_nombre_13"/><linearGradient id="Degradado_sin_nombre_18" x1="1927.75" y1="2361.88" x2="1860.07" y2="520.89" gradientTransform="matrix(1, 0, 0, -1, 0, 3707.89)" gradientUnits="userSpaceOnUse"><stop offset="0" stop-color="#fdf53f"/><stop offset="1" stop-color="#d93c65"/></linearGradient><linearGradient id="Degradado_sin_nombre_19" x1="2047.12" y1="1715.01" x2="2096.76" y2="137.99" xlink:href="#Degradado_sin_nombre_18"/><linearGradient id="Degradado_sin_nombre_20" x1="1773.72" y1="1706.41" x2="1823.35" y2="129.38" xlink:href="#Degradado_sin_nombre_18"/><linearGradient id="Degradado_sin_nombre_21" x1="13274.38" y1="791.29" x2="11948.87" y2="-67.96" gradientTransform="matrix(1, 0, 0, -1, -10580.93, 3707.89)" xlink:href="#Degradado_sin_nombre"/><linearGradient id="Degradado_sin_nombre_22" x1="3653.87" y1="700.96" x2="670.12" y2="633.41" gradientTransform="translate(4395.38 3707.89) rotate(180)" gradientUnits="userSpaceOnUse"><stop offset="0" stop-color="#cb236d"/><stop offset="1" stop-color="#4c246d"/></linearGradient><linearGradient id="Degradado_sin_nombre_23" x1="2445.89" y1="260.59" x2="2868.43" y2="2509.08" gradientTransform="matrix(1, 0, 0, -1, -456.81, 3241.53)" gradientUnits="userSpaceOnUse"><stop offset="0" stop-color="#2b3582"/><stop offset="1" stop-color="#150e42"/></linearGradient><linearGradient id="Degradado_sin_nombre_24" x1="3731.18" y1="1987.06" x2="2849.63" y2="720.89" gradientTransform="matrix(1, 0, 0, -1, -456.81, 3241.53)" xlink:href="#Degradado_sin_nombre_13"/><linearGradient id="Degradado_sin_nombre_25" x1="3654.71" y1="2040.31" x2="2773.16" y2="774.14" gradientTransform="matrix(1, 0, 0, -1, -456.81, 3241.53)" xlink:href="#Degradado_sin_nombre_13"/><linearGradient id="Degradado_sin_nombre_26" x1="13883.99" y1="545.4" x2="13952.95" y2="979.13" gradientTransform="matrix(1, 0, 0, -1, -13496.56, 3241.53)" xlink:href="#Degradado_sin_nombre_22"/><linearGradient id="Degradado_sin_nombre_27" x1="13911" y1="542.1" x2="13981.64" y2="986.44" gradientTransform="matrix(1, 0, 0, -1, -13039.75, 3707.89)" xlink:href="#Degradado_sin_nombre_22"/><linearGradient id="Degradado_sin_nombre_28" x1="13855.19" y1="529.07" x2="13928.47" y2="990.02" gradientTransform="matrix(1, 0, 0, -1, -13496.56, 3241.53)" xlink:href="#Degradado_sin_nombre_18"/><linearGradient id="Degradado_sin_nombre_29" x1="4182.59" y1="659.05" x2="4126.27" y2="548.3" gradientTransform="matrix(1, 0, 0, -1, -2917.52, 3707.89)" xlink:href="#Degradado_sin_nombre_23"/><linearGradient id="Degradado_sin_nombre_30" x1="4075.49" y1="614.96" x2="4131.62" y2="614.96" gradientTransform="matrix(1, 0, 0, -1, -2917.52, 3707.89)" gradientUnits="userSpaceOnUse"><stop offset="0" stop-color="#f9b776"/><stop offset="1" stop-color="#f47960"/></linearGradient><linearGradient id="Degradado_sin_nombre_31" x1="3997.89" y1="763.41" x2="4236.29" y2="1097.55" gradientTransform="matrix(1, 0, 0, -1, -2917.52, 3707.89)" gradientUnits="userSpaceOnUse"><stop offset="0" stop-color="#2b3582"/><stop offset="0.23" stop-color="#252a70"/><stop offset="0.73" stop-color="#19164f"/><stop offset="1" stop-color="#150e42"/></linearGradient><linearGradient id="Degradado_sin_nombre_32" x1="4149.93" y1="547.06" x2="3954.7" y2="291.76" gradientTransform="matrix(1, 0, 0, -1, -2917.52, 3707.89)" xlink:href="#Degradado_sin_nombre_23"/><linearGradient id="Degradado_sin_nombre_33" x1="4052.22" y1="491.77" x2="4203.07" y2="491.77" gradientTransform="matrix(1, 0, 0, -1, -2917.52, 3707.89)" xlink:href="#Degradado_sin_nombre_13"/><linearGradient id="Degradado_sin_nombre_34" x1="4034.95" y1="563.19" x2="4087.59" y2="563.19" xlink:href="#Degradado_sin_nombre_30"/><linearGradient id="Degradado_sin_nombre_35" x1="3911.94" y1="596.9" x2="3925.08" y2="1043.67" gradientTransform="matrix(1, 0, 0, -1, -2917.52, 3707.89)" xlink:href="#Degradado_sin_nombre_23"/><linearGradient id="Degradado_sin_nombre_36" x1="4237.67" y1="1031.4" x2="4108.15" y2="1234.14" gradientTransform="matrix(1, 0, 0, -1, -2917.52, 3707.89)" xlink:href="#Degradado_sin_nombre_13"/><linearGradient id="Degradado_sin_nombre_37" x1="4195.83" y1="1170.36" x2="4379.48" y2="1170.36" xlink:href="#Degradado_sin_nombre_30"/><linearGradient id="Degradado_sin_nombre_38" x1="4111.13" y1="1390.32" x2="3698.14" y2="1089.96" gradientTransform="matrix(1, 0, 0, -1, -2917.52, 3707.89)" xlink:href="#Degradado_sin_nombre_13"/><linearGradient id="Degradado_sin_nombre_39" x1="4020.59" y1="1441.42" x2="4142.41" y2="1441.42" xlink:href="#Degradado_sin_nombre_30"/><linearGradient id="Degradado_sin_nombre_40" x1="4051.89" y1="1471.76" x2="3638.91" y2="1171.41" gradientTransform="matrix(1, 0, 0, -1, -2917.52, 3707.89)" xlink:href="#Degradado_sin_nombre_13"/><linearGradient id="Degradado_sin_nombre_41" x1="863.34" y1="1960.91" x2="955.23" y2="1065.74" xlink:href="#Degradado_sin_nombre_13"/><linearGradient id="Degradado_sin_nombre_42" x1="3937.5" y1="1168.15" x2="3470.95" y2="357.41" xlink:href="#Degradado_sin_nombre_30"/><linearGradient id="Degradado_sin_nombre_43" x1="3836.93" y1="3269.52" x2="3686.61" y2="3154.51" gradientTransform="matrix(0.92, 0.39, 0.39, -0.92, -3548.91, 3705.46)" xlink:href="#Degradado_sin_nombre_30"/><linearGradient id="Degradado_sin_nombre_44" x1="3746.05" y1="3358.54" x2="3882.16" y2="3183.29" gradientTransform="matrix(0.92, 0.39, 0.39, -0.92, -3548.91, 3705.46)" xlink:href="#Degradado_sin_nombre_23"/><linearGradient id="Degradado_sin_nombre_45" x1="3818.36" y1="3293.8" x2="3668.04" y2="3178.78" gradientTransform="matrix(0.92, 0.39, 0.39, -0.92, -3548.91, 3705.46)" xlink:href="#Degradado_sin_nombre_30"/><linearGradient id="Degradado_sin_nombre_46" x1="12204.33" y1="769.23" x2="12490.53" y2="769.23" gradientTransform="translate(13872.1 3707.89) rotate(180)" gradientUnits="userSpaceOnUse"><stop offset="0" stop-color="#9cfffb"/><stop offset="1" stop-color="#9bfffa"/></linearGradient><linearGradient id="Degradado_sin_nombre_47" x1="12237.34" y1="769.22" x2="12523.59" y2="769.22" xlink:href="#Degradado_sin_nombre_46"/><linearGradient id="Degradado_sin_nombre_48" x1="13013.22" y1="769.2" x2="13299.4" y2="769.2" xlink:href="#Degradado_sin_nombre_46"/><linearGradient id="Degradado_sin_nombre_49" x1="13046.26" y1="769.22" x2="13332.46" y2="769.22" xlink:href="#Degradado_sin_nombre_46"/><linearGradient id="Degradado_sin_nombre_50" x1="12136.82" y1="1069.66" x2="13350.89" y2="1069.66" xlink:href="#Degradado_sin_nombre_46"/><linearGradient id="Degradado_sin_nombre_51" x1="12759.46" y1="566.89" x2="12520.57" y2="501.42" gradientTransform="matrix(-1, -0.05, 0.05, -1, 13799.83, 3730.71)" xlink:href="#Degradado_sin_nombre_23"/><linearGradient id="Degradado_sin_nombre_52" x1="12467.44" y1="1332.14" x2="12297.94" y2="1152.98" gradientTransform="translate(13872.1 3707.89) rotate(180)" xlink:href="#Degradado_sin_nombre_23"/><linearGradient id="Degradado_sin_nombre_53" x1="12364.96" y1="1287.53" x2="12288.05" y2="1171.71" gradientTransform="translate(13872.1 3707.89) rotate(180)" xlink:href="#Degradado_sin_nombre_13"/><linearGradient id="Degradado_sin_nombre_54" x1="14194.96" y1="1204.53" x2="13817.7" y2="989.2" gradientTransform="translate(16440.48 3707.89) rotate(180)" xlink:href="#Degradado_sin_nombre_30"/><linearGradient id="Degradado_sin_nombre_55" x1="2201.49" y1="1282.48" x2="2548.65" y2="286.96" xlink:href="#Degradado_sin_nombre_13"/><linearGradient id="Degradado_sin_nombre_56" x1="14158.47" y1="1150.84" x2="15449.26" y2="1958.9" gradientTransform="translate(16440.48 3707.89) rotate(180)" xlink:href="#Degradado_sin_nombre_30"/><linearGradient id="Degradado_sin_nombre_57" x1="2255.37" y1="1301.27" x2="2602.53" y2="305.74" xlink:href="#Degradado_sin_nombre_13"/><linearGradient id="Degradado_sin_nombre_58" x1="1927.41" y1="6334.17" x2="1258.63" y2="7212.28" gradientTransform="translate(8608.78 3707.89) rotate(180)" xlink:href="#Degradado_sin_nombre_7"/><linearGradient id="Degradado_sin_nombre_59" x1="-3913.98" y1="2019.03" x2="-3821.21" y2="1786.33" gradientTransform="matrix(0.94, -0.33, -0.33, -0.94, 7024.29, 2393.85)" xlink:href="#Degradado_sin_nombre_23"/><linearGradient id="Degradado_sin_nombre_60" x1="2768.19" y1="1338.19" x2="3377.45" y2="2216.34" xlink:href="#Degradado_sin_nombre_13"/><linearGradient id="Degradado_sin_nombre_61" x1="-2023.73" y1="1328.67" x2="-1647.98" y2="1328.67" gradientTransform="matrix(1, 0, 0, -1, 4930.01, 3707.89)" xlink:href="#Degradado_sin_nombre_30"/><linearGradient id="Degradado_sin_nombre_62" x1="-3876.06" y1="2002.04" x2="-3857.69" y2="2136.44" gradientTransform="matrix(1, -0.07, -0.07, -1, 6762.93, 3918.64)" xlink:href="#Degradado_sin_nombre_30"/><linearGradient id="Degradado_sin_nombre_63" x1="-4229.65" y1="2047.35" x2="-4056.67" y2="2355.18" gradientTransform="matrix(0.55, -0.84, -0.84, -0.55, 6790.23, -341.49)" xlink:href="#Degradado_sin_nombre_30"/><linearGradient id="Degradado_sin_nombre_64" x1="-4192.45" y1="2315.49" x2="-4105.96" y2="2098.55" gradientTransform="matrix(0.55, -0.84, -0.84, -0.55, 6790.23, -341.49)" xlink:href="#Degradado_sin_nombre_23"/><linearGradient id="Degradado_sin_nombre_65" x1="-4192.86" y1="2026.67" x2="-4019.88" y2="2334.5" gradientTransform="matrix(0.55, -0.84, -0.84, -0.55, 6790.23, -341.49)" xlink:href="#Degradado_sin_nombre_30"/><linearGradient id="Degradado_sin_nombre_66" x1="-2044.35" y1="1454.73" x2="-2240.94" y2="1400.85" gradientTransform="matrix(1, -0.05, -0.05, -1, 5002.76, 3726.96)" xlink:href="#Degradado_sin_nombre_13"/><linearGradient id="Degradado_sin_nombre_67" x1="8999.9" y1="1364.65" x2="10768.07" y2="1513.41" gradientTransform="matrix(1, 0, 0, -1, -6621.1, 3707.89)" xlink:href="#Degradado_sin_nombre_23"/><linearGradient id="Degradado_sin_nombre_68" x1="-2391.38" y1="1423.3" x2="-2454.67" y2="1327.99" gradientTransform="matrix(1, 0, 0, -1, 4930.01, 3707.89)" xlink:href="#Degradado_sin_nombre_13"/><linearGradient id="Degradado_sin_nombre_69" x1="1243.02" y1="2219.4" x2="1310.86" y2="2431.41" gradientTransform="matrix(0.98, 0.19, 0.19, -0.98, 552.29, 3343.92)" xlink:href="#Degradado_sin_nombre_13"/><linearGradient id="Degradado_sin_nombre_70" x1="1252.69" y1="2361.77" x2="1583.39" y2="3093.84" gradientTransform="matrix(0.98, 0.19, 0.19, -0.98, 552.29, 3343.92)" xlink:href="#Degradado_sin_nombre_13"/><linearGradient id="Degradado_sin_nombre_71" x1="1681.9" y1="2008.44" x2="1614.06" y2="2438.07" gradientTransform="matrix(0.98, 0.19, 0.19, -0.98, 552.29, 3343.92)" xlink:href="#Degradado_sin_nombre_13"/></defs><g id="Illustration"><path d="M3060.88,2319.9c-263.71,620.91-966.15,968.75-1575.31,874.92-99.12-15.27-370.87-60.75-611.47-275.31-463.16-413-562.21-1230.93-188.59-1807.31C957.44,692.69,1444.9,454.89,1908.08,466.79c99.77,2.56,482.13,18.35,818.16,295.43,49.35,40.7,158.21,137.41,256.32,290.83C3212.93,1413.31,3232.74,1915.24,3060.88,2319.9Z" transform="translate(-456.81 -466.36)" opacity="0.3" fill="url(#Degradado_sin_nombre)" style="isolation:isolate"/><g opacity="0.3"><path d="M1243.55,1542.68a10.49,10.49,0,0,1,10.89-10.07c11.24.44,22.67.4,34-.13a10.49,10.49,0,0,1,11,9.79v.2a10.49,10.49,0,0,1-9.94,11h-.06c-11.89.55-23.92.6-35.75.13a10.48,10.48,0,0,1-10-9.77A7.33,7.33,0,0,1,1243.55,1542.68Zm99.67-16.52c11.11-2.05,22.25-4.61,33.1-7.58a10.48,10.48,0,1,1,5.55,20.22c-11.42,3.13-23.14,5.82-34.83,8a10.49,10.49,0,0,1-12.22-8.41,8.6,8.6,0,0,1-.15-1.23,10.49,10.49,0,0,1,8.55-11Zm85.13-25.86c10.35-4.46,20.63-9.43,30.56-14.78a10.49,10.49,0,0,1,9.94,18.47c-10.46,5.63-21.29,10.86-32.19,15.57a10.49,10.49,0,0,1-13.78-5.47,10.38,10.38,0,0,1-.84-3.47,10.5,10.5,0,0,1,6.31-10.32Zm77.21-44.25c9.1-6.67,18-13.82,26.5-21.24a10.48,10.48,0,1,1,13.81,15.78c-8.94,7.82-18.33,15.34-27.9,22.37a10.49,10.49,0,1,1-12.77-16.64Zm65.42-60.34c7.38-8.51,14.49-17.46,21.14-26.6a10.51,10.51,0,0,1,17,12.35c-7,9.61-14.48,19-22.24,28a10.48,10.48,0,0,1-15.85-13.73Zm50.45-73.32c5.31-10,10.27-20.24,14.72-30.61a10.49,10.49,0,0,1,19.27,8.29c-4.69,10.9-9.91,21.74-15.5,32.21a10.48,10.48,0,1,1-18.49-9.89Zm4.12-389.33a10.49,10.49,0,0,1,14.19,4.29c5.6,10.46,10.83,21.3,15.52,32.23a10.49,10.49,0,0,1-19.27,8.28c-4.45-10.38-9.41-20.67-14.73-30.6a10.46,10.46,0,0,1,4.24-14.17Zm28.79,306.7c3-10.87,5.51-22,7.53-33.09a10.49,10.49,0,0,1,20.74,3.19c0,.19-.07.39-.11.58-2.13,11.67-4.8,23.4-7.93,34.85a10.49,10.49,0,0,1-20.58-2.08,10.84,10.84,0,0,1,.35-3.45Zm7.18-222.7a10.49,10.49,0,0,1,12.88,7.36c3.11,11.45,5.78,23.18,7.92,34.87a10.49,10.49,0,0,1-20.63,3.78c-2-11.11-4.56-22.26-7.53-33.13a9.81,9.81,0,0,1-.34-2.09,10.49,10.49,0,0,1,7.7-10.79Zm6.44,134.81c.47-11.26.45-22.68,0-34a10.48,10.48,0,1,1,20.93-1.15.81.81,0,0,1,0,.22c.53,11.87.55,23.9.07,35.74a10.49,10.49,0,0,1-20.94.27c0-.33,0-.71,0-1.08Z" transform="translate(-456.81 -466.36)" fill="url(#Degradado_sin_nombre_2)"/><path d="M1579.54,881.51a10.34,10.34,0,0,0,2.26,5.84c3.37,4.23,6.7,8.6,9.92,13A10.48,10.48,0,0,0,1608.63,888c-3.38-4.62-6.89-9.21-10.43-13.66a10.49,10.49,0,0,0-18.66,7.23Z" transform="translate(-456.81 -466.36)" fill="url(#Degradado_sin_nombre_3)"/></g><g opacity="0.3"><path d="M1298.5,729.21A10.48,10.48,0,0,0,1308,739c5.38.5,10.84,1.13,16.23,1.86A10.52,10.52,0,0,0,1327,720c-5.67-.77-11.43-1.43-17.09-2a10.47,10.47,0,0,0-11.42,9.43,10.85,10.85,0,0,0,0,1.71Z" transform="translate(-456.81 -466.36)" fill="url(#Degradado_sin_nombre_4)"/><path d="M851.7,1141.37a10.5,10.5,0,1,1,21-.34c.18,11,.84,22.21,2,33.37a10.49,10.49,0,0,1-20.87,2.07q-.72-7.24-1.2-14.47C852.09,1155.13,851.81,1148.19,851.7,1141.37Zm19.3,78.82a10.48,10.48,0,0,1,12.63,7.76h0c2.58,10.81,5.65,21.63,9.12,32.15a10.48,10.48,0,1,1-19.91,6.57h0c-3.65-11.08-6.89-22.47-9.6-33.85a10.45,10.45,0,0,1,7.76-12.63Zm-16.31-135.88c1.4-11.58,3.32-23.26,5.71-34.71a10.49,10.49,0,0,1,20.65,3.69,5.6,5.6,0,0,1-.12.59c-2.27,10.87-4.09,22-5.42,33a10.49,10.49,0,0,1-20.87-.57,10.27,10.27,0,0,1,0-2Zm44.53,221.25a10.49,10.49,0,0,1,14,4.8c4.89,10,10.26,19.84,16,29.35a10.49,10.49,0,0,1-18,10.79c-6-10-11.67-20.41-16.81-30.91a10.45,10.45,0,0,1,4.77-14h0ZM875.85,994.64c3.91-11,8.35-21.95,13.2-32.6a10.48,10.48,0,0,1,19.08,8.68h0c-4.6,10.12-8.81,20.54-12.53,31a10.48,10.48,0,0,1-19.92-6.52c.05-.16.11-.32.17-.48Zm40.32-82.86c6.23-9.88,13-19.61,20-28.93A10.49,10.49,0,1,1,953.3,895l-.39.51c-6.68,8.85-13.07,18.1-19,27.49a10.48,10.48,0,0,1-17.73-11.19h0Zm57.42-72.1c8.24-8.3,16.93-16.33,25.82-23.89a10.49,10.49,0,0,1,13.58,16h0c-8.44,7.18-16.69,14.82-24.53,22.7a10.48,10.48,0,1,1-14.87-14.78Zm71.78-57.86c9.86-6.29,20.1-12.23,30.44-17.66a10.48,10.48,0,0,1,9.74,18.57c-9.81,5.15-19.54,10.79-28.9,16.77a10.49,10.49,0,0,1-11.28-17.68Zm82.79-40.69c11-4,22.26-7.49,33.56-10.52a10.49,10.49,0,1,1,6,20.11l-.54.15c-10.73,2.87-21.45,6.23-31.88,10a10.48,10.48,0,0,1-7.28-19.66l.18-.06Zm89.6-21.5c8.53-1.09,17.2-1.92,25.76-2.48,3.1-.21,6.19-.37,9.28-.51a10.37,10.37,0,0,1,10.92,9.79c0,.07,0,.14,0,.21a10.47,10.47,0,0,1-10,10.93h0q-4.39.2-8.82.48c-8.14.54-16.38,1.33-24.49,2.36a10.49,10.49,0,0,1-11.72-9.08l-.06-.65a10.48,10.48,0,0,1,9.12-11Z" transform="translate(-456.81 -466.36)" fill="url(#Degradado_sin_nombre_5)"/><path d="M941.81,1391.69a10.44,10.44,0,0,0,2.3,5.89c3.56,4.42,7.28,8.85,11.06,13.16a10.48,10.48,0,1,0,15.77-13.81h0c-3.58-4.1-7.12-8.31-10.5-12.5a10.48,10.48,0,0,0-18.63,7.26Z" transform="translate(-456.81 -466.36)" fill="url(#Degradado_sin_nombre_6)"/></g><path d="M1120.5,1411.15a4.91,4.91,0,0,0,5.69,0l48.56-34.64a259.59,259.59,0,0,0,82,18.93l28.49,52.35a4.88,4.88,0,0,0,5.11,2.49l70.55-11.84a4.91,4.91,0,0,0,4-4l9.83-58.79a260,260,0,0,0,71.35-44.66l57.2,16.88a4.91,4.91,0,0,0,5.38-1.86l41.51-58.26a4.88,4.88,0,0,0,0-5.69l-34.63-48.55a259.85,259.85,0,0,0,18.92-82l52.35-28.49a4.88,4.88,0,0,0,2.49-5.11l-11.84-70.56a4.89,4.89,0,0,0-4-4l-58.79-9.83A259.77,259.77,0,0,0,1470,962.11l16.88-57.2a4.91,4.91,0,0,0-1.85-5.38L1426.8,858a4.86,4.86,0,0,0-5.68,0l-48.56,34.63a259.85,259.85,0,0,0-82-18.92l-28.49-52.36a4.91,4.91,0,0,0-5.11-2.49l-70.56,11.85a4.89,4.89,0,0,0-4,4l-9.83,58.79a259.81,259.81,0,0,0-71.35,44.66L1044,921.32a4.91,4.91,0,0,0-5.38,1.85l-41.51,58.26a4.88,4.88,0,0,0,0,5.69l34.63,48.56a259.85,259.85,0,0,0-18.92,82l-52.35,28.48a4.9,4.9,0,0,0-2.49,5.12l11.84,70.55a4.89,4.89,0,0,0,4,4l58.79,9.84a260,260,0,0,0,44.66,71.35l-16.88,57.2a4.91,4.91,0,0,0,1.85,5.38Z" transform="translate(-456.81 -466.36)" fill="url(#Degradado_sin_nombre_7)"/><path d="M1202,1128.77a71.9,71.9,0,1,1-.08,10.56A71.9,71.9,0,0,1,1202,1128.77Zm113.69-29.89a55.13,55.13,0,1,0,12.94,40.16,55.7,55.7,0,0,0,.06-8.17,54.7,54.7,0,0,0-13-32Z" transform="translate(-456.81 -466.36)" fill="#fff" opacity="0.56" style="isolation:isolate"/><path d="M1098.16,1144.64q.6,9,2.1,18h0q.46,2.83,1,5.67a177.66,177.66,0,0,0,7.77,27.23l.14.36c.13.34.25.68.39,1,.25.66.51,1.32.77,2a4.21,4.21,0,0,0,4.17,2.64,4.33,4.33,0,0,0,1.28-.29,4.19,4.19,0,0,0,2.34-5.45,168.45,168.45,0,1,1,322.58-90.31c15.37,91.63-46.64,178.62-138.22,194-5.65.94-11.33,1.6-17,2a167.83,167.83,0,0,1-72.25-11.2,4.19,4.19,0,0,0-3.06,7.81,176.16,176.16,0,0,0,75.85,11.76,178.1,178.1,0,0,0,17.84-2.07c96.16-16.14,161.25-107.52,145.12-203.65a176.88,176.88,0,0,0-185.57-147.21,180,180,0,0,0-18.08,2.1,176.85,176.85,0,0,0-147.21,185.6Z" transform="translate(-456.81 -466.36)" fill="#fff" opacity="0.56" style="isolation:isolate"/><g opacity="0.3"><path d="M991.21,1918.86a6.49,6.49,0,0,0,5,5.89c5.37,1.2,10.84,2.26,16.27,3.13a6.47,6.47,0,1,0,2.07-12.78c-5.18-.84-10.39-1.84-15.51-3a6.48,6.48,0,0,0-7.74,4.9A7.24,7.24,0,0,0,991.21,1918.86Z" transform="translate(-456.81 -466.36)" fill="url(#Degradado_sin_nombre_8)"/><path d="M1040.61,1924.56a6.47,6.47,0,0,1,6.7-6.23h0a270.42,270.42,0,0,0,27.16-.4q2.85-.18,5.72-.44a6.49,6.49,0,0,1,7,5.9,6.71,6.71,0,0,1-5.9,7c-2,.17-4,.33-6,.46a284.85,284.85,0,0,1-28.49.41,6.48,6.48,0,0,1-6.22-6A5.46,5.46,0,0,1,1040.61,1924.56Zm72.12-11.89a267.38,267.38,0,0,0,31.69-8.76A6.48,6.48,0,0,1,1149,1916l-.4.14a280.66,280.66,0,0,1-33.22,9.18,6.48,6.48,0,0,1-7.68-5h0a7,7,0,0,1-.12-.92A6.46,6.46,0,0,1,1112.73,1912.67Zm62.06-21.37a266,266,0,0,0,28.58-16.28,6.47,6.47,0,0,1,7.1,10.83h0a281,281,0,0,1-30,17.08,6.47,6.47,0,0,1-8.66-3h0a6.65,6.65,0,0,1-.65-2.43A6.51,6.51,0,0,1,1174.79,1891.3Zm54.92-36a268.42,268.42,0,0,0,23.72-22.77,6.48,6.48,0,1,1,9.85,8.42c-.1.12-.21.24-.32.35a283.23,283.23,0,0,1-24.87,23.88,6.48,6.48,0,0,1-8.38-9.88Zm44.48-48.29a270.21,270.21,0,0,0,17.47-27.85,6.48,6.48,0,0,1,11.37,6.21,286.15,286.15,0,0,1-18.31,29.19,6.48,6.48,0,0,1-10.53-7.55Zm31.4-57.62a265.31,265.31,0,0,0,10.14-31.24,6.48,6.48,0,0,1,12.55,3.23,279,279,0,0,1-10.64,32.77,6.47,6.47,0,1,1-12.05-4.73Zm16.35-63.52a264.51,264.51,0,0,0,2.16-32.8,6.5,6.5,0,0,1,13,.06h0a280.5,280.5,0,0,1-2.27,34.39,6.48,6.48,0,0,1-12.89-.39,7.22,7.22,0,0,1,0-1.23Zm-.87-105.83a6.49,6.49,0,0,1,7.84,4.74,282.61,282.61,0,0,1,5.58,29.43c.21,1.5.4,3,.58,4.5a6.48,6.48,0,0,1-12.87,1.52c-.16-1.41-.34-2.82-.54-4.26a265.33,265.33,0,0,0-5.33-28.09,6.51,6.51,0,0,1,4.74-7.84Z" transform="translate(-456.81 -466.36)" fill="url(#Degradado_sin_nombre_9)"/></g><g opacity="0.3"><path d="M778,1666.11a277.84,277.84,0,0,1,.27-33.9,6.48,6.48,0,0,1,12.92.9,268.26,268.26,0,0,0-.26,32.33,6.48,6.48,0,0,1-12.93.76Zm9.08,26.22a6.47,6.47,0,0,1,7.48,5.27h0a272.13,272.13,0,0,0,7.46,31.48,6.48,6.48,0,0,1-12.41,3.74,283,283,0,0,1-7.81-33c0-.24-.06-.46-.08-.7a6.48,6.48,0,0,1,5.37-6.79Zm-4.42-93.75a281.53,281.53,0,0,1,8.47-32.84,6.48,6.48,0,0,1,12.32,4,268.16,268.16,0,0,0-8.08,31.33,6.47,6.47,0,0,1-12.81-.81,6.76,6.76,0,0,1,.11-1.68Zm22,157.53a6.48,6.48,0,0,1,8.54,3.31A264.62,264.62,0,0,0,828,1788.17a6.48,6.48,0,0,1-11.13,6.63,278.71,278.71,0,0,1-15.55-30.15,6.58,6.58,0,0,1-.54-2.19,6.49,6.49,0,0,1,3.88-6.35Zm-1.17-221.92a279.19,279.19,0,0,1,16.11-29.83,6.48,6.48,0,0,1,11.3,6.35,5.6,5.6,0,0,1-.3.48,265.39,265.39,0,0,0-15.37,28.46,6.48,6.48,0,0,1-12.34-2.31,6.57,6.57,0,0,1,.63-3.15Zm35.69-57.51A284.2,284.2,0,0,1,862,1451.56a6.47,6.47,0,0,1,9,9.26,269.93,269.93,0,0,0-21.73,24,6.47,6.47,0,0,1-11.51-3.64,6.39,6.39,0,0,1,1.45-4.5Zm48.43-47.32a280.27,280.27,0,0,1,28.16-18.92,6.47,6.47,0,0,1,6.56,11.16,267.9,267.9,0,0,0-26.85,18.05,6.45,6.45,0,0,1-9.05-1.18l0,0a6.39,6.39,0,0,1-1.32-3.5,6.49,6.49,0,0,1,2.55-5.58Z" transform="translate(-456.81 -466.36)" fill="url(#Degradado_sin_nombre_10)"/><path d="M834.88,1819.54a6.37,6.37,0,0,0,1.35,3.54c3.39,4.38,6.94,8.68,10.53,12.78a6.48,6.48,0,0,0,10-8.24l-.27-.3c-3.42-3.91-6.8-8-10-12.18a6.47,6.47,0,0,0-11.57,4.4Z" transform="translate(-456.81 -466.36)" fill="url(#Degradado_sin_nombre_11)"/></g><path d="M957,1836.49a3.26,3.26,0,0,0,3.81,0l32.49-23.17a173.71,173.71,0,0,0,54.88,12.66l19.07,35a3.28,3.28,0,0,0,3.42,1.67l47.21-7.93a3.27,3.27,0,0,0,2.69-2.69l6.58-39.34a173.81,173.81,0,0,0,47.74-29.88l38.28,11.3a3.29,3.29,0,0,0,3.6-1.25l27.78-39a3.29,3.29,0,0,0,0-3.81l-23.18-32.49a173.71,173.71,0,0,0,12.66-54.88l35-19.07a3.25,3.25,0,0,0,1.66-3.42L1262.8,1593a3.27,3.27,0,0,0-2.69-2.69l-39.34-6.58a173.84,173.84,0,0,0-29.89-47.74l11.3-38.28a3.27,3.27,0,0,0-1.24-3.6l-39-27.78a3.27,3.27,0,0,0-3.8,0l-32.49,23.18a173.83,173.83,0,0,0-54.89-12.66l-19.06-35a3.26,3.26,0,0,0-3.42-1.66l-47.22,7.92a3.27,3.27,0,0,0-2.69,2.69l-6.58,39.34A173.93,173.93,0,0,0,944.06,1520l-38.28-11.3a3.26,3.26,0,0,0-3.59,1.24l-27.78,39a3.24,3.24,0,0,0,0,3.8l23.17,32.49a173.83,173.83,0,0,0-12.66,54.89l-35,19.06a3.28,3.28,0,0,0-1.67,3.42l7.93,47.22a3.27,3.27,0,0,0,2.69,2.69l39.34,6.58a173.81,173.81,0,0,0,29.88,47.74l-11.3,38.28a3.28,3.28,0,0,0,1.25,3.59Z" transform="translate(-456.81 -466.36)" fill="url(#Degradado_sin_nombre_12)"/><path d="M1010.65,1647.46a48.75,48.75,0,1,1-.06,7.26A51.74,51.74,0,0,1,1010.65,1647.46Zm51.74-32a36,36,0,0,0-38.82,32.93v.07h0a36,36,0,0,0,71.83,5.84,39.06,39.06,0,0,0,0-5.3,36.11,36.11,0,0,0-33-33.5Z" transform="translate(-456.81 -466.36)" fill="#fff" opacity="0.56" style="isolation:isolate"/><path d="M938.39,1658.51q.4,6.13,1.44,12.32a123.23,123.23,0,0,0,6.56,24l.41,1a6.5,6.5,0,0,0,6.44,4.08,6.84,6.84,0,0,0,2-.45,6.49,6.49,0,0,0,3.62-8.41,109.11,109.11,0,0,1-6.24-22.37h0c-.07-.42-.14-.84-.2-1.26a108,108,0,0,1,4.89-53.17,109.58,109.58,0,0,1,13.47-26.09l.14-.2.43-.6a109,109,0,1,1,49.08,164.83,6.48,6.48,0,1,0-5.08,11.92l.35.14a121.59,121.59,0,0,0,52.33,8.12q6.17-.4,12.31-1.43a122,122,0,0,0-27.91-242.07q-6.23.42-12.47,1.45A122.19,122.19,0,0,0,938.39,1658.51Z" transform="translate(-456.81 -466.36)" fill="#fff" opacity="0.56" style="isolation:isolate"/><path d="M2174,2641.82c-.9-11.17-12.31-20.84-31.63-28.59,21-11.58,32.61-24,31.63-36.16-3-36.83-119.6-57.48-260.51-46.11s-252.72,50.42-249.75,87.25c.89,11.17,12.31,20.84,31.63,28.6-21,11.57-32.62,24-31.63,36.16.89,11.16,12.31,20.83,31.63,28.59-21,11.57-32.62,24-31.63,36.16.89,11.17,12.31,20.84,31.63,28.59-21,11.58-32.62,24-31.63,36.16,1.31,16.29,24.88,29.4,62.93,38a328.37,328.37,0,0,0,1,39.8c5.52,67.86,81.85,121.07,182.82,121.07s188.35-72.55,189.34-140.63a345.11,345.11,0,0,0-2-44.42c48.31-16.13,77.73-35.84,76.19-55-.9-11.17-12.31-20.84-31.63-28.59,21-11.58,32.61-24,31.63-36.17-.9-11.17-12.31-20.84-31.63-28.59C2163.39,2666.4,2175,2654,2174,2641.82Z" transform="translate(-456.81 -466.36)" fill="url(#Degradado_sin_nombre_13)"/><path d="M1848.31,2865.12c-41.85,0-80.14-3.08-111.77-9.14a3.39,3.39,0,0,1,1.27-6.65c49.5,9.48,115.62,11.57,186.18,5.88,57.74-4.65,111.73-14,156.15-26.93a3.38,3.38,0,0,1,1.89,6.5c-44.84,13.09-99.31,22.49-157.49,27.18C1898.33,2864.07,1872.72,2865.12,1848.31,2865.12Z" transform="translate(-456.81 -466.36)" fill="url(#Degradado_sin_nombre_14)"/><path d="M1849,2800.31c-54.37,0-103-5.12-137.23-14.88a3.38,3.38,0,1,1,1.85-6.51h0c48.84,13.91,127.48,18.22,210.36,11.54,82-6.61,158.45-23.25,204.54-44.51a3.39,3.39,0,0,1,2.84,6.15c-46.78,21.57-124.1,38.43-206.83,45.11C1898.72,2799.29,1873.29,2800.31,1849,2800.31Z" transform="translate(-456.81 -466.36)" fill="url(#Degradado_sin_nombre_15)"/><path d="M1848.32,2735.6c-58.71,0-110.08-6-144.66-17.41a3.38,3.38,0,1,1,2.12-6.42h0c48.12,15.86,129.69,21.07,218.21,13.94,82-6.61,158.45-23.25,204.54-44.51a3.39,3.39,0,0,1,2.84,6.15c-46.78,21.57-124.1,38.43-206.83,45.1C1898.32,2734.57,1872.69,2735.6,1848.32,2735.6Z" transform="translate(-456.81 -466.36)" fill="url(#Degradado_sin_nombre_16)"/><path d="M1848.77,2670.82c-46.57,0-88.92-3.76-121.85-11.08a3.39,3.39,0,0,1,1.14-6.68l.33.07c49.51,11,120.81,13.85,195.6,7.82,81.25-6.55,157.33-23,203.5-44a3.38,3.38,0,1,1,2.8,6.16c-46.84,21.32-123.76,38-205.75,44.61C1898.63,2669.79,1873.12,2670.82,1848.77,2670.82Z" transform="translate(-456.81 -466.36)" fill="url(#Degradado_sin_nombre_17)"/><path d="M1569.18,2315a476.39,476.39,0,0,0-85.33-166.61c-83.89-105.72-220.73-320.72-237.58-614.16-24.5-426.82,354-640.51,699.47-611.5S2632,1208.9,2594.7,1606c-23,244.32-159.71,429.64-261.52,536.07-64.66,67.58-110.78,150.35-135.74,240.49-30.56,110.32-103.27,247.8-276.11,256.19C1697.68,2649.57,1604.79,2441.11,1569.18,2315Z" transform="translate(-456.81 -466.36)" fill="url(#Degradado_sin_nombre_18)"/><path d="M1978.46,2553.61l120.86-786.11c2.5-16.24,10.49-27.15,17.85-24.36s11.31,18.21,8.81,34.45c-.06.43-.15,1-.23,1.39l-137.67,778.81c-1,5.86-4,9.55-6.64,8.26S1977.59,2559.28,1978.46,2553.61Z" transform="translate(-456.81 -466.36)" fill="url(#Degradado_sin_nombre_19)"/><path d="M1853,2559.85l-120.87-786.11c-2.49-16.24-10.49-27.15-17.85-24.36s-11.31,18.21-8.81,34.45l.23,1.39L1843.37,2564c1,5.86,4,9.56,6.65,8.26S1853.86,2565.52,1853,2559.85Z" transform="translate(-456.81 -466.36)" fill="url(#Degradado_sin_nombre_20)"/><path d="M2098.45,1700c-3.06-4.93-10.17-6.78-15.86-4.12l-67.3,31.45-23.36-66.56a14.27,14.27,0,0,0-8.19-8.24c-7.74-3.19-17-.34-20.68,6.37l-.11.22L1907.6,1760l-51.36-143.65-.08-.24a16.33,16.33,0,0,0-7.78-8.76c-8.61-4.71-20-2.46-25.41,5l-77.38,106.52c-3.14,4.36-2.06,10.21,2.73,13.44,5.11,3.45,12.48,2.64,16.45-1.79l68.13-76,61.34,136.65v.11a10.84,10.84,0,0,0,5.4,5.3c5.76,2.69,12.94.83,16-4.16l59.2-95,22.27,48,.2.43a9.72,9.72,0,0,0,.55,1c3.07,4.93,10.17,6.77,15.86,4.11l79.88-37.32C2099.4,1711.1,2101.52,1704.94,2098.45,1700Z" transform="translate(-456.81 -466.36)" fill="#fff"/><path d="M2335.8,2047a21.65,21.65,0,0,1-17.37-34.56,886.93,886.93,0,0,0,55.67-84.56,21.65,21.65,0,1,1,37.5,21.65,930.62,930.62,0,0,1-58.39,88.72A21.65,21.65,0,0,1,2335.8,2047Z" transform="translate(-456.81 -466.36)" fill="#fff"/><path d="M2435.24,1876.38a21.66,21.66,0,0,1-19.85-30.28c126.6-291.57,17.6-535.89,16.48-538.33a21.66,21.66,0,1,1,38.81-19.24c.21.41.39.82.57,1.24,4.88,10.65,118.09,264.49-16.14,573.61A21.65,21.65,0,0,1,2435.24,1876.38Z" transform="translate(-456.81 -466.36)" fill="#fff"/><path d="M3209.48,3190.13H1776.07V2903.24H3209.48C3178.8,2903.24,3178.8,3190.13,3209.48,3190.13Z" transform="translate(-456.81 -466.36)" fill="url(#Degradado_sin_nombre_21)"/><path d="M1776.07,3118.34V2987c0-46.28,28.33-83.8,63.27-83.8H3249.81a3.4,3.4,0,0,0,3.38-3.38V2841.7a3.39,3.39,0,0,0-3.38-3.37H1747.22c-34.18,0-88.47,53.75-88.47,120.06V3141.8c0,62.52,52.7,113.2,84.94,113.2H3249.81a3.39,3.39,0,0,0,3.38-3.37V3193.5a3.39,3.39,0,0,0-3.38-3.37H1830.27C1800.34,3190.13,1776.07,3158,1776.07,3118.34Z" transform="translate(-456.81 -466.36)" fill="url(#Degradado_sin_nombre_22)"/><path d="M3159.84,2965.48h-1344a3.38,3.38,0,0,1-.37-6.75,2.29,2.29,0,0,1,.37,0h1344a3.38,3.38,0,0,1,0,6.75Z" transform="translate(-456.81 -466.36)" fill="#fff"/><path d="M3159.84,3008.06h-1344a3.38,3.38,0,0,1-.37-6.75H3159.84a3.38,3.38,0,0,1,0,6.75Z" transform="translate(-456.81 -466.36)" fill="#fff"/><path d="M3159.84,3050.64h-1344a3.37,3.37,0,1,1,0-6.74h1344a3.37,3.37,0,0,1,0,6.74Z" transform="translate(-456.81 -466.36)" fill="#fff"/><path d="M3159.84,3093.23h-1344a3.38,3.38,0,0,1-.37-6.75,2.29,2.29,0,0,1,.37,0h1344a3.38,3.38,0,0,1,0,6.75Z" transform="translate(-456.81 -466.36)" fill="#fff"/><path d="M3159.84,3135.81h-1344a3.37,3.37,0,1,1,0-6.74h1344a3.37,3.37,0,0,1,0,6.74Z" transform="translate(-456.81 -466.36)" fill="#fff"/><rect x="1467.72" y="2094.48" width="1323.36" height="279.48" rx="13.8" fill="url(#Degradado_sin_nombre_23)"/><rect x="2524.22" y="2126.6" width="136.02" height="215.24" opacity="0.3" fill="url(#Degradado_sin_nombre_24)" style="isolation:isolate"/><rect x="2453.17" y="2126.6" width="51.04" height="215.24" opacity="0.3" fill="url(#Degradado_sin_nombre_25)" style="isolation:isolate"/><rect x="396.39" y="2366.98" width="31.9" height="345" fill="url(#Degradado_sin_nombre_26)"/><path d="M1008.85,3185H729.44v-11.14a9.63,9.63,0,0,1,9.63-9.63h259.4a10.38,10.38,0,0,1,10.38,10.38Z" transform="translate(-456.81 -466.36)" fill="url(#Degradado_sin_nombre_27)"/><rect x="231.52" y="2284.82" width="373.36" height="105.89" rx="36.46" fill="url(#Degradado_sin_nombre_28)"/><path d="M1187.44,3115s91.1,65.67,75.28,109.78c0,0-99.67-43-111.71-76.88s2-48.84,2-48.84Z" transform="translate(-456.81 -466.36)" fill="url(#Degradado_sin_nombre_29)"/><path d="M1173.75,3060l-14.89,43.07a15,15,0,0,0,5.81,17.57,39.11,39.11,0,0,0,12.33,4.77,17.45,17.45,0,0,0,19.28-8.75l17.82-33.56Z" transform="translate(-456.81 -466.36)" fill="url(#Degradado_sin_nombre_30)"/><path d="M1028.79,2672.4s187.11,32.43,267.38,106.58-73.67,310.66-73.67,310.66-25.22-.16-55.79-26.35c0,0,91.27-177.88,12.62-229.76-88.44-58.32-190.35-71.45-190.35-71.45l38-84Z" transform="translate(-456.81 -466.36)" fill="url(#Degradado_sin_nombre_31)"/><path d="M1246.89,3200.41c-20-9.27-76.76-49-86.32-50.73s-26.15,9.49-26.15,9.49-4,7.25.28,19.91c13.32,16.11,42.88,46.82,82.62,58.26,29.24,8.42,49.68.57,62.42-8.61A84.45,84.45,0,0,0,1246.89,3200.41Z" transform="translate(-456.81 -466.36)" fill="url(#Degradado_sin_nombre_32)"/><path d="M1217.32,3237.34c-39.74-11.44-69.3-42.15-82.62-58.26,2.92,8.55,9.64,19.56,24,32.48,35.63,32,103.69,43.57,118.18,41.34,11.61-1.78,10.51-12.5,2.85-24.17C1267,3237.91,1246.56,3245.76,1217.32,3237.34Z" transform="translate(-456.81 -466.36)" fill="url(#Degradado_sin_nombre_33)"/><path d="M1117.43,3131.14c.23,5.52,11.51,24.45,18.1,35.07a17.19,17.19,0,0,0,14.57,8.15,44.56,44.56,0,0,0,12-1.44,11.17,11.17,0,0,0,7.5-13.89l-12.89-44Z" transform="translate(-456.81 -466.36)" fill="url(#Degradado_sin_nombre_34)"/><path d="M848.68,2616.24s-41.55,111.11,0,144.9,140.69,71.83,162.83,139.14,59.73,198.1,110,244.42c0,0,35.33-3.43,48.55-17.5,0,0-28.64-195.27-47.53-245.37-16.36-43.39-40.46-106-86.65-141-13.22-10-10.92-25.9-4.79-41.31l11.16-28.08Z" transform="translate(-456.81 -466.36)" fill="url(#Degradado_sin_nombre_35)"/><path d="M1282.07,2529.15c-69.68,4.2-48-107.11-46.71-111.54l-105.75,74.7s5.6,59.52,93.52,90.75c22.25,7.9,42.58,8.25,60.55,4.38A96.21,96.21,0,0,1,1282.07,2529.15Z" transform="translate(-456.81 -466.36)" fill="url(#Degradado_sin_nombre_36)"/><path d="M1416.79,2495.65c-26-18.06-55.38,0-55.38,0-34.71,22.7-60.39,32.36-79.34,33.5a96.21,96.21,0,0,0,1.61,58.29c38.89-8.36,66.71-36.5,78.8-50.94a12.57,12.57,0,0,1,17.39-1.91c5.4,4.27,10.65,10.12,9.7,16.27-1.88,12.13,12.2,16,13.27,11.59S1398,2532,1398,2532s28.16,28.32,39.15,39.2,24.81,0,24.81,0S1442.76,2513.71,1416.79,2495.65Z" transform="translate(-456.81 -466.36)" fill="url(#Degradado_sin_nombre_37)"/><path d="M957.19,2245.71s101.36-40.59,290,115.15c0,0,15.76,32.62-1.43,61.65s-181,170.48-203.49,248.92c0,0-97.57,31.71-198.48-43.47C843.79,2628,852.69,2409.64,957.19,2245.71Z" transform="translate(-456.81 -466.36)" fill="url(#Degradado_sin_nombre_38)"/><path d="M1157.57,2209.49l-49.9,60.49a19.89,19.89,0,0,0-2.62,21.35c6.93,14.13,23.36,34.7,59.81,31.86A30.66,30.66,0,0,0,1190,2306l34.89-72.13Z" transform="translate(-456.81 -466.36)" fill="url(#Degradado_sin_nombre_39)"/><path d="M878.71,2504.79C866.94,2456.86,986.13,2350,986.13,2350l-28.94-104.31S699.81,2417.05,765.4,2554.83c9.4,19.75,21.89,33.59,36.37,42.84C822.5,2541.88,855.52,2516.3,878.71,2504.79Z" transform="translate(-456.81 -466.36)" fill="url(#Degradado_sin_nombre_40)"/><path d="M878.62,2497.81a2.81,2.81,0,0,1-2.73-2.14c-12-49,103.37-153.13,108.28-157.54a2.82,2.82,0,0,1,3.76,4.2c-1.18,1.05-117.8,106.25-106.57,152a2.82,2.82,0,0,1-2.06,3.41A3.08,3.08,0,0,1,878.62,2497.81Z" transform="translate(-456.81 -466.36)" fill="url(#Degradado_sin_nombre_41)"/><path d="M1059.24,2500.66s-141.32,54.87-175.81,13.6a23.17,23.17,0,0,1-4.72-9.47c-23.19,11.51-56.21,37.09-76.94,92.88,74.32,47.49,201.37-26.42,235.72-48.21a25.66,25.66,0,0,1,19-3.49c13.25,2.75,36.14,6.79,48.48,4.89,18.06-2.78,44,60.92,73.27,41.27C1178.22,2592.13,1153.15,2481.41,1059.24,2500.66Z" transform="translate(-456.81 -466.36)" fill="url(#Degradado_sin_nombre_42)"/><path d="M1282.05,2139.88s.86,65.87-9.78,95.78-12.31,51.53-48.58,43.23-57.67-37.1-60.87-72.69c0,0-5.34-55,7.8-71.11S1282.05,2139.88,1282.05,2139.88Z" transform="translate(-456.81 -466.36)" fill="url(#Degradado_sin_nombre_43)"/><path d="M1183.15,2190.11l4.28,1.8s-2.45-43.51,15.68-43.36,84.66,13.38,107-2.81c21.54-15.61,21.54-47.46,7.72-62.17a2.48,2.48,0,0,0-3.35-.15l-2.52,2.08a2.51,2.51,0,0,1-3.52-.36,2.55,2.55,0,0,1-.54-1.86h0a2.47,2.47,0,0,0-3.85-2.35c-6.77,4.8-22.17,10.77-53.84,3.86-44.93-9.81-79.59-4.51-92.37,24a2.49,2.49,0,0,1-4.34.39c-2.29-3.17-6.85-6.12-15.76-3.35-15.49,4.82-21.29,31.77-4.82,62.85a2.47,2.47,0,0,1-.92,3.36,2.38,2.38,0,0,1-.73.27c-5.79,1.06-15.54,5.26-1.9,22,13.94,17.17,25,20.58,29.47,21.24a2.49,2.49,0,0,0,2.74-1.64l9.14-26.21a2.49,2.49,0,0,1,3.17-1.53l.15.06Z" transform="translate(-456.81 -466.36)" fill="url(#Degradado_sin_nombre_44)"/><path d="M1182,2195.9s5.69-39.46-14.45-36.18-8.46,43.33,3.81,50.05Z" transform="translate(-456.81 -466.36)" fill="url(#Degradado_sin_nombre_45)"/><path d="M1655.33,3244.79a12.62,12.62,0,0,0,4.92-1,11.91,11.91,0,0,0,6.67-15.48c0-.12-.1-.25-.15-.37l-261.31-588.1a12.63,12.63,0,0,0-16.37-6.32,11.93,11.93,0,0,0-6.67,15.5l.15.35,261.31,588.11A12.48,12.48,0,0,0,1655.33,3244.79Z" transform="translate(-456.81 -466.36)" fill="url(#Degradado_sin_nombre_46)"/><path d="M1361,3244.79a12.49,12.49,0,0,0,11.45-7.29l261.31-588.11a11.93,11.93,0,0,0-6.17-15.7l-.35-.15a12.62,12.62,0,0,0-16.37,6.32L1349.51,3228a11.93,11.93,0,0,0,6.15,15.7l.37.15A12.84,12.84,0,0,0,1361,3244.79Z" transform="translate(-456.81 -466.36)" fill="url(#Degradado_sin_nombre_47)"/><path d="M846.46,3244.79a12.62,12.62,0,0,0,4.92-1A11.91,11.91,0,0,0,858,3228.3l-.12-.3L596.59,2639.9a12.63,12.63,0,0,0-16.37-6.32,11.94,11.94,0,0,0-6.67,15.51,3.45,3.45,0,0,0,.14.34L835,3237.5A12.47,12.47,0,0,0,846.46,3244.79Z" transform="translate(-456.81 -466.36)" fill="url(#Degradado_sin_nombre_48)"/><path d="M552.08,3244.79a12.46,12.46,0,0,0,11.45-7.29l261.31-588.11a11.93,11.93,0,0,0-6.17-15.7l-.35-.15a12.63,12.63,0,0,0-16.37,6.32L540.64,3228a11.93,11.93,0,0,0,6.15,15.7l.37.15A12.93,12.93,0,0,0,552.08,3244.79Z" transform="translate(-456.81 -466.36)" fill="url(#Degradado_sin_nombre_49)"/><path d="M521.43,2621.7a14.29,14.29,0,0,1,2.48-10.88A11.27,11.27,0,0,1,533,2606H1721.75a13.24,13.24,0,0,1,11.4,7,16.69,16.69,0,0,1,.88,14.52l-12.88,31.21c-3,7.15-9.34,11.73-16.37,11.73H541.13c-6.54,0-12.17-5.19-13.41-12.39Z" transform="translate(-456.81 -466.36)" fill="url(#Degradado_sin_nombre_50)"/><path d="M1131.64,2608.86h.68l296.5-.32a13.27,13.27,0,1,0,0-26.54l-296.5.32a13.27,13.27,0,0,0-.65,26.53Z" transform="translate(-456.81 -466.36)" fill="url(#Degradado_sin_nombre_51)"/><path d="M1695.36,2339.65H1448.43a47,47,0,0,0-42.56,27l-114.16,242h306.87a28.59,28.59,0,0,0,26.6-18.09l88.52-224a19.72,19.72,0,0,0-18.34-27Z" transform="translate(-456.81 -466.36)" fill="url(#Degradado_sin_nombre_52)"/><path d="M1521.4,2463.76c-5.35,16.63-1.4,32.77,8.83,36.06s22.85-7.51,28.2-24.14,1.4-32.77-8.82-36.06S1526.75,2447.14,1521.4,2463.76Z" transform="translate(-456.81 -466.36)" fill="url(#Degradado_sin_nombre_53)"/><path d="M2302.88,2854.38c.45-.17,239.74-419.22,272.07-458.66a25.09,25.09,0,0,1,22.38-9l66.79,8,78.47,169.75-130.72-76.13c12.93,89.46-155,222.4-212.59,270.91a13.24,13.24,0,0,0-1.55,18.66c.18.21.36.41.55.61l23,24.07c-37.75,38.26-81.31,62.83-130.47,74.19Z" transform="translate(-456.81 -466.36)" fill="url(#Degradado_sin_nombre_54)"/><path d="M2407.93,2789.56s14.67,4.74,19.64,17.81c2.38,6.25-.18,13.33-5.62,17.23-24.16,17.31-103.87,73.2-140.65,84.15a4.16,4.16,0,0,1-5.2-4.9c1.88-8.55,8-25.61,27.66-50.59l-1.77,3.57a5.11,5.11,0,0,0,7.08,6.74C2333.67,2849.69,2383.78,2819.29,2407.93,2789.56Z" transform="translate(-456.81 -466.36)" fill="url(#Degradado_sin_nombre_55)"/><path d="M2396.09,2957.23c.4-.25,36.3-86.75,36.7-87,32.92-200.41,113.23-372.06,136.92-417.22a25,25,0,0,1,20.09-13.34l67-5.72L2768,2584.29l-143.42-48.09c30.77,85-106.77,249.16-153.36,308.32a13.23,13.23,0,0,0,2.2,18.58l.68.5,27.39,18.92c-29.23,45.11-66.91,78-112.76,99.06Z" transform="translate(-456.81 -466.36)" fill="url(#Degradado_sin_nombre_56)"/><path d="M2485.84,2872.49s15.33,1.67,22.84,13.47c3.6,5.64,2.52,13.09-2,18-20.16,21.84-86.9,92.71-120.7,110.87a4.17,4.17,0,0,1-5.62-1.75,4.23,4.23,0,0,1-.47-2c.12-8.75,2.64-26.69,16.85-55.13l-1,3.85a5.12,5.12,0,0,0,8.3,5.17C2425.29,2946.4,2468.21,2906.5,2485.84,2872.49Z" transform="translate(-456.81 -466.36)" fill="url(#Degradado_sin_nombre_57)"/><path d="M2970.53,2402.27s60.62,90.18,65.6,131.31-16.77,55.36-80.22,60.61c-188.84,15.61-281.93-41-281.93-41-12.91-82.36-22.11-103.31-130-148.1,0,0,136.46,10.84,163.92.18S2970.53,2402.27,2970.53,2402.27Z" transform="translate(-456.81 -466.36)" fill="url(#Degradado_sin_nombre_58)"/><path d="M2728.76,1897.06s42.23-50,87.12,11.33c8.13,11.1,39.36,1.94,50.81,25.18,5.91,12,18.68,18.82,31.83,16.39,32.76-6,86.31-6.55,112.74,44.78,20.18,39.19,4.6,62.12-15.57,75.19-14.82,9.61-20.1,29.1-11.14,44.31,8.59,14.59,10.2,34.35-12,58.13-49.72,53.29-148.15-33.81-148.15-33.81l-78.15-184.67Z" transform="translate(-456.81 -466.36)" fill="url(#Degradado_sin_nombre_59)"/><path d="M2806.57,2390.34s-70.6-67.23-105.36-111.76a94.49,94.49,0,0,1-16-85c15.87-53.46,44.07-108.82,46.64-117.44,3.94-13.21,83.1-12.66,83.1-12.66s155.78,101.1,217,272.36l-68.73,21.4s-40.68-68.24-80.86-111.62c0,0,69.53,91.86,72,129.47Z" transform="translate(-456.81 -466.36)" fill="url(#Degradado_sin_nombre_60)"/><path d="M2672.05,2416.87l53-57.72,61.26,16.49s71.43,11.07,112.31,0l40.88-11.06,92.38-28.76,14.51,41a24.69,24.69,0,0,1-9,28.37c-8,5.68-17.36,11.92-23.33,14.53-12.16,5.32-280.25,1.68-280.25,1.68Z" transform="translate(-456.81 -466.36)" fill="url(#Degradado_sin_nombre_61)"/><path d="M2760.55,1968.28l53.2,98.94c-3.51,21.6-57.9,22.21-66.31,9.31a12.93,12.93,0,0,1-1.67-4.36L2714,2006.06c-1.37-6.45,16.3-28.17,22.12-31.26l21.15-11.26C2765.36,1959.21,2731.38,1958.86,2760.55,1968.28Z" transform="translate(-456.81 -466.36)" fill="url(#Degradado_sin_nombre_62)"/><path d="M2652.87,1945.06s-6,33.43,20.27,75.93,52.43,40.58,65.72,25.42,29.21-40.4,22-82.78S2661.94,1902.44,2652.87,1945.06Z" transform="translate(-456.81 -466.36)" fill="url(#Degradado_sin_nombre_63)"/><path d="M2729,1968.23s-42.55-55.88-75.21-7.17l.55,16.83s-42.47-2-37.86-41.13,39.28-65.89,87.35-52.51,76.16,28.6,81.59,62-21.83,27.92-21.83,27.92-10.41-23-23-24.6-8,16.64-8,16.64Z" transform="translate(-456.81 -466.36)" fill="url(#Degradado_sin_nombre_64)"/><path d="M2738.79,1966.74s-22-28.59-2-34.53,19.31,28,18,40.65Z" transform="translate(-456.81 -466.36)" fill="url(#Degradado_sin_nombre_65)"/><path d="M2847.65,2439.71h-.56l-244-.26a10.93,10.93,0,0,1,0-21.85l244,.27a10.92,10.92,0,0,1,.54,21.83Z" transform="translate(-456.81 -466.36)" fill="url(#Degradado_sin_nombre_66)"/><path d="M2383.73,2218.17h203.21a38.73,38.73,0,0,1,35,22.21l94,199.2H2463.38a23.53,23.53,0,0,1-21.89-14.89l-72.85-184.33a16.23,16.23,0,0,1,15.09-22.19Z" transform="translate(-456.81 -466.36)" fill="url(#Degradado_sin_nombre_67)"/><path d="M2526.9,2320.3c4.4,13.69,1.15,27-7.27,29.68s-18.81-6.18-23.21-19.87-1.15-27,7.26-29.67S2522.49,2306.62,2526.9,2320.3Z" transform="translate(-456.81 -466.36)" fill="url(#Degradado_sin_nombre_68)"/><path d="M2112.15,807.74,2028.72,940s5.88,239.94,245.77,364.52,367.24,20.1,367.24,20.1l106.82-197Z" transform="translate(-456.81 -466.36)" fill="url(#Degradado_sin_nombre_69)"/><path d="M2548.74,666.63l-539.26,30c-27.77,1.54-42.59,33.43-25.85,55.64,81.64,108.33,266.11,359.42,327,495a34.73,34.73,0,0,0,37.74,19.92L2909.2,1168a34.78,34.78,0,0,0,22-54.8c-80.35-109.55-285.62-384.74-359.91-440A34.61,34.61,0,0,0,2548.74,666.63Z" transform="translate(-456.81 -466.36)" fill="url(#Degradado_sin_nombre_70)"/><path d="M2479.78,926.54s233,230.6,245,274.17-68.71,211.76-68.71,211.76c9.45,159.53-20.26,323.93-111.09,393.3,0,0-45.14-217,12.89-291.45s80.86-105.17,80.86-105.17,76.47-181.41,71.47-210.86C2710.21,1198.29,2454.42,932.28,2479.78,926.54Z" transform="translate(-456.81 -466.36)" fill="url(#Degradado_sin_nombre_71)"/><path d="M2068.45,758.19l203,314,50.74,78.5,12.69,19.62,6.33,9.76a48.47,48.47,0,0,0,6.85,8.21,49,49,0,0,0,39.46,13.36L2573.4,1182a3.27,3.27,0,0,1,.72,6.51l-185.72,21.3a57.63,57.63,0,0,1-54.55-24.9l-6.47-9.78-12.87-19.51-51.47-78-205.89-312a6.75,6.75,0,1,1,11-7.85c.1.13.19.28.28.42Z" transform="translate(-456.81 -466.36)" fill="#fff"/><path d="M2616.79,1500.34c-.67.41-1.88,1.4-2.82,2.09l-3,2.57c-2,1.75-3.84,3.76-5.78,5.62l-5.4,6.17c-1.72,2.13-3.32,4.38-5,6.57a74.45,74.45,0,0,0-4.67,6.85c-1.47,2.35-3,4.64-4.45,7l-4,7.36a79.37,79.37,0,0,0-3.78,7.48l-3.41,7.68a81.11,81.11,0,0,0-3.22,7.78c-1.87,5.31-3.82,10.59-5.63,15.93l-4.5,16.35c-.36,1.37-.78,2.72-1.09,4.1l-.84,4.17-1.66,8.34c-2.58,11.06-3.54,22.43-5.13,33.7-.44,2.81-.6,5.66-.77,8.5l-.55,8.53c-.34,5.7-.79,11.39-1,17.09,0,11.41-.2,22.85,0,34.28l1.86,34.3v.13a2.35,2.35,0,0,1-4.68.33l-3-34.5c-.59-11.52-.74-23.09-1.12-34.65.06-5.78.34-11.57.5-17.36l.28-8.69c.08-2.89.16-5.79.51-8.67,1.25-11.54,1.87-23.16,4.14-34.61l1.44-8.61.72-4.31c.28-1.43.67-2.84,1-4.26l4.12-17c1.68-5.6,3.54-11.17,5.32-16.76a83.6,83.6,0,0,1,3.11-8.25l3.32-8.18a80.79,80.79,0,0,1,3.74-8l4-7.94c1.42-2.6,3-5.12,4.51-7.69a87.13,87.13,0,0,1,4.8-7.53c1.75-2.44,3.4-4.93,5.22-7.32l5.74-7c2.13-2.19,4.12-4.48,6.37-6.6a65.27,65.27,0,0,1,7.48-6.3,6.75,6.75,0,1,1,8.32,10.63l-.52.37-.37.25Z" transform="translate(-456.81 -466.36)" fill="#fff"/><path d="M2610.06,1571.54l-4.85,22.17-5,23.92-9.87,47.91-19.46,95.91a3.67,3.67,0,1,1-7.22-1.33l16.45-96.51,8.37-48.23,4.28-24.13,2.22-12.08,1.17-6.09.6-3.06c.31-1.37.78-3,1.26-4.47a6.56,6.56,0,0,1,12.65,3.43Z" transform="translate(-456.81 -466.36)" fill="#fff"/></g></svg>