<svg xmlns="http://www.w3.org/2000/svg" viewBox="0 0 1052.38 819.42"><g id="Capa_2" data-name="Capa 2"><g id="Capa_1_copia_3" data-name="Capa 1 copia 3"><polygon points="398.95 384.19 206.89 200.34 398.95 16.45 591.06 200.34 398.95 384.19" fill="none" stroke="#f4ec90" stroke-miterlimit="10" stroke-width="19.12"/><text transform="translate(0 695.46) scale(1.01 1)" font-size="373.69" fill="#efe88f" font-family="TimesNewRomanPSMT, Times New Roman" letter-spacing="0.06em" style="isolation:isolate">SAD</text><text transform="translate(783.62 695.46) scale(1.01 1)" font-size="373.69" fill="#efe88f" font-family="TimesNewRomanPSMT, Times New Roman" letter-spacing="-0.12em" style="isolation:isolate">A</text><polygon points="598.06 380.97 406 197.08 598.06 13.23 790.17 197.08 598.06 380.97" fill="none" stroke="#f4ec90" stroke-miterlimit="10" stroke-width="19.12"/><path d="M125.09,768.92h-17V758.29h46.75v10.63h-17v49.39H125.09Z" fill="#efe88f"/><path d="M164.7,801.15V772.81h12.77v26.72c0,6.84,1.9,9.12,6.16,9.12,3.62,0,5.89-1.56,8.81-5.4V772.81h12.77v45.5H194.78l-.94-6.43h-.32c-3.91,4.6-8.28,7.54-14.57,7.54C169,819.42,164.7,812.55,164.7,801.15Z" fill="#efe88f"/><path d="M245.32,805.81c0-9.63,7.86-14.79,26.29-16.72-.24-4.26-2.24-7.31-7.62-7.31-4.08,0-8.07,1.74-12.41,4.23L247,777.69c5.6-3.41,12.17-6,19.43-6,11.69,0,17.94,6.75,17.94,20.31v26.29H273.94l-.93-4.77h-.33c-3.95,3.4-8.41,5.88-13.67,5.88C250.72,819.42,245.32,813.56,245.32,805.81Zm26.29-.4v-8.65c-10.56,1.38-14,4.27-14,8.06,0,3.27,2.26,4.8,5.69,4.8S268.88,808,271.61,805.41Z" fill="#efe88f"/><path d="M301.92,804.92V753.7h12.76v51.77c0,2.82,1.31,3.74,2.43,3.74a5.92,5.92,0,0,0,1.67-.19l1.55,9.34a17.12,17.12,0,0,1-6.5,1.06C305,819.42,301.92,813.74,301.92,804.92Z" fill="#efe88f"/><path d="M332.55,759c0-4,3.17-6.74,7.52-6.74s7.52,2.77,7.52,6.74-3.18,6.73-7.52,6.73S332.55,762.94,332.55,759Zm1.11,13.79h12.77v45.5H333.66Z" fill="#efe88f"/><path d="M362.34,805.81c0-9.63,7.86-14.79,26.28-16.72-.24-4.26-2.24-7.31-7.61-7.31-4.09,0-8.08,1.74-12.42,4.23L364,777.69c5.6-3.41,12.17-6,19.43-6,11.69,0,17.95,6.75,17.95,20.31v26.29H391l-.94-4.77h-.32c-3.95,3.4-8.42,5.88-13.67,5.88C367.73,819.42,362.34,813.56,362.34,805.81Zm26.28-.4v-8.65c-10.56,1.38-14,4.27-14,8.06,0,3.27,2.27,4.8,5.7,4.8S385.89,808,388.62,805.41Z" fill="#efe88f"/><path d="M416.42,795.59c0-14.87,9.41-23.88,19.22-23.88,5.12,0,8.28,1.88,11.53,4.82l-.46-7V753.7h12.76v64.61H449.05l-.94-4.64h-.32c-3.31,3.27-7.91,5.75-12.51,5.75C423.83,819.42,416.42,810.49,416.42,795.59Zm30.29,9.08V785.21a12,12,0,0,0-8.16-3.15c-4.86,0-9,4.48-9,13.39,0,9.22,3.34,13.62,9,13.62C441.66,809.07,444.21,807.83,446.71,804.67Z" fill="#efe88f"/><path d="M474.79,795.59c0-15.14,10.67-23.88,22.27-23.88s22.26,8.74,22.26,23.88-10.67,23.83-22.26,23.83S474.79,810.68,474.79,795.59Zm31.44,0c0-8.26-3.19-13.67-9.17-13.67s-9.18,5.41-9.18,13.67,3.19,13.62,9.18,13.62S506.23,803.84,506.23,795.59Z" fill="#efe88f"/><path d="M554.16,773.32l6.84-.51h20.57v9.94H554.16Zm6.14-3.59c0-9.55,4.47-17.14,16.42-17.14a25.93,25.93,0,0,1,9,1.61l-2.34,9.34a13.29,13.29,0,0,0-4.84-1c-3.48,0-5.43,2-5.43,6.87v48.91H560.3Z" fill="#efe88f"/><path d="M593.57,759c0-4,3.18-6.74,7.52-6.74s7.52,2.77,7.52,6.74-3.17,6.73-7.52,6.73S593.57,762.94,593.57,759Zm1.12,13.79h12.76v45.5H594.69Z" fill="#efe88f"/><path d="M625.59,772.81H636l.93,5.88h.33c4-3.76,8.61-7,14.89-7,10,0,14.25,6.86,14.25,18.27v28.33H653.65V791.6c0-6.84-1.9-9.12-6.16-9.12-3.62,0-5.89,1.69-9.13,4.8v31H625.59Z" fill="#efe88f"/><path d="M681.82,805.81c0-9.63,7.86-14.79,26.29-16.72-.24-4.26-2.24-7.31-7.62-7.31-4.08,0-8.07,1.74-12.41,4.23l-4.58-8.32c5.6-3.41,12.17-6,19.43-6,11.69,0,17.94,6.75,17.94,20.31v26.29H710.45l-.94-4.77h-.33c-3.95,3.4-8.41,5.88-13.67,5.88C687.22,819.42,681.82,813.56,681.82,805.81Zm26.29-.4v-8.65c-10.56,1.38-14,4.27-14,8.06,0,3.27,2.26,4.8,5.69,4.8S705.38,808,708.11,805.41Z" fill="#efe88f"/><path d="M735.63,795.59c0-15.14,11.14-23.88,23.72-23.88a20,20,0,0,1,13.45,5l-6.08,8.14c-2.27-1.93-4.26-2.89-6.67-2.89-6.83,0-11.33,5.41-11.33,13.67s4.6,13.62,10.91,13.62a14.28,14.28,0,0,0,8.68-3.54l5.05,8.28a23.15,23.15,0,0,1-15.14,5.47C745.46,819.42,735.63,810.68,735.63,795.59Z" fill="#efe88f"/><path d="M786.27,759c0-4,3.17-6.74,7.52-6.74s7.52,2.77,7.52,6.74-3.18,6.73-7.52,6.73S786.27,762.94,786.27,759Zm1.11,13.79h12.77v45.5H787.38Z" fill="#efe88f"/><path d="M815.5,795.59c0-14.77,10.58-23.88,21.57-23.88,12.91,0,19.42,9.26,19.42,21.76a30.06,30.06,0,0,1-.53,5.73H827.89c1.13,7,5.91,10.56,12.45,10.56a19.55,19.55,0,0,0,10.18-3.07l4.25,7.66a29.74,29.74,0,0,1-16.16,5.07C825.61,819.42,815.5,810.63,815.5,795.59Zm30-4.8c0-5.62-2.49-9.43-8.2-9.43-4.64,0-8.67,3.2-9.6,9.43Z" fill="#efe88f"/><path d="M871.72,772.81h10.43l.93,8h.33c3.33-6,8.32-9.1,13.08-9.1a12.54,12.54,0,0,1,5.41.92l-2.15,10.9a18.06,18.06,0,0,0-4.89-.73c-3.54,0-7.82,2.29-10.37,8.72v26.79H871.72Z" fill="#efe88f"/><path d="M910,795.59c0-15.14,10.67-23.88,22.26-23.88s22.27,8.74,22.27,23.88-10.67,23.83-22.27,23.83S910,810.68,910,795.59Zm31.43,0c0-8.26-3.18-13.67-9.17-13.67s-9.17,5.41-9.17,13.67,3.19,13.62,9.17,13.62S941.42,803.84,941.42,795.59Z" fill="#efe88f"/></g></g></svg>